SplineFontDB: 3.0
FontName: Slipstick-Index-Light
FullName: Slipstick Index Light
FamilyName: Slipstick Index Light
Weight: Light
Copyright: Copyright (c) 2015-2017 Belleve Invis.
Version: 1.13.3; ttfautohint (v1.6)
ItalicAngle: 0
UnderlinePosition: -25
UnderlineWidth: 50
Ascent: 800
Descent: 200
sfntRevision: 0x00000000
LayerCount: 2
Layer: 0 1 "Back"  1
Layer: 1 1 "Fore"  0
XUID: [1021 619 161513758 16178030]
FSType: 0
OS2Version: 4
OS2_WeightWidthSlopeOnly: 0
OS2_UseTypoMetrics: 1
CreationTime: 1479708639
ModificationTime: 1513597564
PfmFamily: 17
TTFWeight: 300
TTFWidth: 5
LineGap: 67
VLineGap: 0
Panose: 2 0 4 9 0 0 0 0 0 0
OS2TypoAscent: 977
OS2TypoAOffset: 0
OS2TypoDescent: -272
OS2TypoDOffset: 0
OS2TypoLinegap: 0
OS2WinAscent: 977
OS2WinAOffset: 0
OS2WinDescent: 272
OS2WinDOffset: 0
HheadAscent: 977
HheadAOffset: 0
HheadDescent: -205
HheadDOffset: 0
OS2SubXSize: 665
OS2SubYSize: 716
OS2SubXOff: 0
OS2SubYOff: 143
OS2SupXSize: 0
OS2SupYSize: 0
OS2SupXOff: 0
OS2SupYOff: 0
OS2StrikeYSize: 51
OS2StrikeYPos: 265
OS2FamilyClass: 2057
OS2Vendor: 'CYEL'
OS2CodePages: 2000011f.c4000000
OS2UnicodeRanges: e00002ff.5041fcfb.00040010.00000000

StartChar: .notdef
Encoding: 65536 -1 0
Width: 500
GlyphClass: 2
Flags: W
LayerCount: 2
Fore
SplineSet
64 0 m 1,0,-1
 64 735 l 1,1,-1
 436 735 l 1,2,-1
 436 0 l 1,3,-1
 64 0 l 1,0,-1
120 56 m 1,4,-1
 380 56 l 1,5,-1
 380 679 l 1,6,-1
 120 679 l 1,7,-1
 120 56 l 1,4,-1
EndSplineSet
EndChar

StartChar: exclam
Encoding: 33 33 4
Width: 500
GlyphClass: 2
Flags: W
FFAnchorPoint: "Anchor-5" 436 0 basechar 0
FFAnchorPoint: "Anchor-4" 436 735 basechar 0
FFAnchorPoint: "Anchor-3" 250 367 basechar 0
FFAnchorPoint: "Anchor-2" 250 382 basechar 0
FFAnchorPoint: "Anchor-1" 250 0 basechar 0
FFAnchorPoint: "Anchor-0" 250 735 basechar 0
LayerCount: 2
Fore
SplineSet
219 260 m 1,0,-1
 219 735 l 1,1,-1
 281 735 l 1,2,-1
 281 260 l 1,3,-1
 219 260 l 1,0,-1
250 -8 m 256,4,5
 223 -8 223 -8 207.5 7.5 c 128,-1,6
 192 23 192 23 192 50 c 128,-1,7
 192 77 192 77 207.5 92.5 c 128,-1,8
 223 108 223 108 250 108 c 256,9,10
 277 108 277 108 292.5 92.5 c 128,-1,11
 308 77 308 77 308 50 c 128,-1,12
 308 23 308 23 292.5 7.5 c 128,-1,13
 277 -8 277 -8 250 -8 c 256,4,5
EndSplineSet
Substitution2: "Single Substitution lookup 67 subtable" glyph3253
EndChar

StartChar: quotedbl
Encoding: 34 34 5
Width: 500
GlyphClass: 2
Flags: W
LayerCount: 2
Fore
SplineSet
320 451 m 1,0,1
 316 623 316 623 316 772 c 1,2,-1
 384 772 l 1,3,4
 384 623 384 623 380 451 c 1,5,-1
 320 451 l 1,0,1
120 451 m 1,6,7
 116 623 116 623 116 772 c 1,8,-1
 184 772 l 1,9,10
 184 623 184 623 180 451 c 1,11,-1
 120 451 l 1,6,7
EndSplineSet
EndChar

StartChar: numbersign
Encoding: 35 35 6
Width: 500
GlyphClass: 2
Flags: W
LayerCount: 2
Fore
SplineSet
127 -88 m 1,0,-1
 127 156 l 1,1,-1
 36 156 l 1,2,-1
 36 212 l 1,3,-1
 127 212 l 1,4,-1
 127 518 l 1,5,-1
 36 518 l 1,6,-1
 36 574 l 1,7,-1
 127 574 l 1,8,-1
 127 818 l 1,9,-1
 189 818 l 1,10,-1
 189 574 l 1,11,-1
 311 574 l 1,12,-1
 311 818 l 1,13,-1
 373 818 l 1,14,-1
 373 574 l 1,15,-1
 464 574 l 1,16,-1
 464 518 l 1,17,-1
 373 518 l 1,18,-1
 373 212 l 1,19,-1
 464 212 l 1,20,-1
 464 156 l 1,21,-1
 373 156 l 1,22,-1
 373 -88 l 1,23,-1
 311 -88 l 1,24,-1
 311 156 l 1,25,-1
 189 156 l 1,26,-1
 189 -88 l 1,27,-1
 127 -88 l 1,0,-1
189 212 m 1,28,-1
 311 212 l 1,29,-1
 311 518 l 1,30,-1
 189 518 l 1,31,-1
 189 212 l 1,28,-1
EndSplineSet
Substitution2: "'ss09' Style Set 9 lookup 144 subtable" numbersign.ss09
Substitution2: "'ss11' Style Set 11 lookup 143 subtable" numbersign.ss11
EndChar

StartChar: dollar
Encoding: 36 36 7
Width: 500
GlyphClass: 2
Flags: W
FFAnchorPoint: "Anchor-5" 436 0 basechar 0
FFAnchorPoint: "Anchor-4" 436 735 basechar 0
FFAnchorPoint: "Anchor-3" 250 367 basechar 0
FFAnchorPoint: "Anchor-2" 250 382 basechar 0
FFAnchorPoint: "Anchor-1" 250 0 basechar 0
FFAnchorPoint: "Anchor-0" 250 735 basechar 0
LayerCount: 2
Fore
SplineSet
219 -103 m 1,0,-1
 219 30 l 1,1,2
 171 34 171 34 136 55 c 0,3,4
 99 76 99 76 79 112 c 1,5,6
 59 145 59 145 59 185 c 0,7,8
 59 188 59 188 59 192 c 1,9,-1
 121 197 l 1,10,11
 120 193 120 193 121 189 c 1,12,13
 120 163 120 163 133.5 140 c 128,-1,14
 147 117 147 117 172 102 c 0,15,16
 192 91 192 91 219 87 c 1,17,-1
 219 347 l 1,18,19
 194 359 194 359 175 370 c 0,20,21
 117 403 117 403 88 452 c 1,22,23
 64 495 64 495 64 540.5 c 128,-1,24
 64 586 64 586 86 623 c 1,25,26
 106 659 106 659 143 680 c 0,27,28
 176 699 176 699 219 704 c 1,29,-1
 219 838 l 1,30,-1
 281 838 l 1,31,-1
 281 705 l 1,32,33
 329 701 329 701 364 680 c 0,34,35
 401 659 401 659 421 623 c 1,36,37
 441 590 441 590 441 550 c 0,38,39
 441 547 441 547 441 543 c 1,40,-1
 379 538 l 1,41,42
 380 542 380 542 379 546 c 1,43,44
 380 572 380 572 366.5 595 c 128,-1,45
 353 618 353 618 328 633 c 0,46,47
 308 644 308 644 281 648 c 1,48,-1
 281 388 l 1,49,50
 306 376 306 376 325 365 c 0,51,52
 383 332 383 332 412 283 c 1,53,54
 436 240 436 240 436 194.5 c 128,-1,55
 436 149 436 149 414 112 c 1,56,57
 394 76 394 76 357 55 c 0,58,59
 324 36 324 36 281 31 c 1,60,-1
 281 -103 l 1,61,-1
 219 -103 l 1,0,-1
219 417 m 1,62,-1
 219 647 l 1,63,64
 196 643 196 643 178 633 c 1,65,66
 154 618 154 618 140 595 c 0,67,68
 126 570 126 570 126 541 c 0,69,70
 126 511 126 511 142 484 c 0,71,72
 162 449 162 449 207 424 c 0,73,74
 213 420 213 420 219 417 c 1,62,-1
281 88 m 1,75,76
 304 92 304 92 322 102 c 1,77,78
 346 117 346 117 360 140 c 0,79,80
 374 165 374 165 374 194 c 0,81,82
 374 224 374 224 358 251 c 0,83,84
 338 286 338 286 293 311 c 0,85,86
 287 315 287 315 281 318 c 1,87,-1
 281 88 l 1,75,76
EndSplineSet
Substitution2: "'ss11' Style Set 11 lookup 152 subtable" dollar.ss11
Substitution2: "'ss09' Style Set 9 lookup 151 subtable" dollar.ss09
EndChar

StartChar: percent
Encoding: 37 37 8
Width: 500
GlyphClass: 2
Flags: W
LayerCount: 2
Fore
SplineSet
64 515 m 1,0,-1
 64 735 l 1,1,-1
 157 735 l 1,2,-1
 157 515 l 1,3,-1
 64 515 l 1,0,-1
64 0 m 1,4,-1
 367 735 l 1,5,-1
 436 735 l 1,6,-1
 133 0 l 1,7,-1
 64 0 l 1,4,-1
343 0 m 1,8,-1
 343 221 l 1,9,-1
 436 221 l 1,10,-1
 436 0 l 1,11,-1
 343 0 l 1,8,-1
EndSplineSet
EndChar

StartChar: ampersand
Encoding: 38 38 9
Width: 500
GlyphClass: 2
Flags: W
LayerCount: 2
Fore
SplineSet
250 -8 m 256,0,1
 190 -8 190 -8 147 17 c 0,2,3
 107 40 107 40 83 80 c 1,4,5
 56 128 56 128 56 187 c 0,6,7
 56 242 56 242 85 292 c 0,8,9
 106 329 106 329 162 374 c 1,10,11
 142 400 142 400 129 422 c 0,12,13
 82 503 82 503 83 579 c 1,14,15
 82 632 82 632 106 672 c 1,16,17
 124 705 124 705 156 724 c 0,18,19
 190 743 190 743 236 743 c 256,20,21
 282 743 282 743 316 724 c 0,22,23
 348 705 348 705 366 672 c 1,24,25
 389 633 389 633 390 581 c 1,26,27
 389 527 389 527 361 478.5 c 128,-1,28
 333 430 333 430 246 367 c 1,29,30
 275 332 275 332 314.5 291 c 128,-1,31
 354 250 354 250 382 216 c 1,32,-1
 382 368 l 1,33,-1
 444 368 l 1,34,-1
 444 195 l 2,35,36
 444 163 444 163 438 136 c 1,37,38
 473 68 473 68 473 0 c 1,39,-1
 411 0 l 1,40,41
 411 30 411 30 403 60 c 1,42,43
 382 34 382 34 353 17 c 0,44,45
 310 -8 310 -8 250 -8 c 256,0,1
211 412 m 1,46,47
 282 463 282 463 306 504 c 0,48,49
 328 542 328 542 327 581 c 1,50,51
 328 617 328 617 312 644 c 0,52,53
 300 665 300 665 280.5 676 c 128,-1,54
 261 687 261 687 236 687 c 256,55,56
 211 687 211 687 192 676 c 0,57,58
 172 665 172 665 161 644 c 1,59,60
 145 617 145 617 145 579 c 0,61,62
 145 520 145 520 184 452 c 0,63,64
 195 434 195 434 211 412 c 1,46,47
250 48 m 0,65,66
 289 48 289 48 317 64 c 128,-1,67
 345 80 345 80 361 109 c 0,68,69
 368 120 368 120 372 133 c 1,70,71
 342 182 342 182 264 260 c 0,72,73
 227 297 227 297 198 330 c 1,74,75
 157 296 157 296 140 267 c 0,76,77
 118 228 118 228 118 187 c 0,78,79
 118 143 118 143 138 109 c 0,80,81
 154 80 154 80 182 64 c 128,-1,82
 210 48 210 48 250 48 c 0,65,66
EndSplineSet
EndChar

StartChar: quotesingle
Encoding: 39 39 10
Width: 500
GlyphClass: 2
Flags: W
LayerCount: 2
Fore
SplineSet
220 451 m 1,0,1
 216 623 216 623 216 772 c 1,2,-1
 284 772 l 1,3,4
 284 623 284 623 280 451 c 1,5,-1
 220 451 l 1,0,1
EndSplineSet
EndChar

StartChar: parenleft
Encoding: 40 40 11
Width: 500
GlyphClass: 2
Flags: W
LayerCount: 2
Fore
SplineSet
399 -188 m 1,0,1
 290 -120 290 -120 225 -8 c 0,2,3
 139 142 139 142 138 365 c 1,4,5
 139 588 139 588 225 738 c 0,6,7
 290 850 290 850 399 918 c 1,8,-1
 432 870 l 1,9,10
 337 809 337 809 281 711 c 1,11,-1
 279 707 l 1,12,-1
 277 704 l 1,13,-1
 274 700 l 1,14,-1
 272 696 l 1,15,-1
 270 692 l 1,16,-1
 268 688 l 1,17,-1
 266 684 l 1,18,-1
 264 680 l 1,19,-1
 262 676 l 1,20,-1
 260 672 l 1,21,-1
 258 667 l 1,22,-1
 256 663 l 1,23,-1
 255 659 l 1,24,-1
 253 655 l 1,25,-1
 251 651 l 1,26,-1
 249 646 l 1,27,-1
 247 642 l 1,28,-1
 246 638 l 1,29,-1
 244 633 l 1,30,-1
 243 629 l 1,31,-1
 241 625 l 1,32,-1
 239 620 l 1,33,-1
 238 616 l 1,34,-1
 236 611 l 1,35,-1
 235 607 l 1,36,-1
 233 602 l 1,37,-1
 232 598 l 1,38,-1
 231 593 l 1,39,-1
 229 588 l 1,40,-1
 228 584 l 1,41,-1
 227 579 l 1,42,-1
 225 574 l 1,43,-1
 224 570 l 1,44,-1
 223 565 l 1,45,-1
 222 560 l 1,46,-1
 221 555 l 1,47,-1
 220 551 l 1,48,-1
 219 546 l 1,49,-1
 218 541 l 1,50,-1
 217 536 l 1,51,-1
 216 531 l 1,52,-1
 215 526 l 1,53,-1
 214 521 l 1,54,-1
 213 516 l 1,55,-1
 212 511 l 1,56,-1
 211 506 l 1,57,-1
 210 501 l 1,58,-1
 210 496 l 1,59,-1
 209 491 l 1,60,-1
 208 485 l 1,61,-1
 208 480 l 1,62,-1
 207 475 l 1,63,-1
 206 470 l 1,64,-1
 206 465 l 1,65,-1
 205 459 l 1,66,-1
 205 454 l 1,67,-1
 204 449 l 1,68,-1
 204 443 l 1,69,-1
 203 438 l 1,70,-1
 203 432 l 1,71,-1
 203 427 l 1,72,-1
 202 421 l 1,73,-1
 202 416 l 1,74,-1
 202 410 l 1,75,-1
 202 405 l 1,76,-1
 201 399 l 1,77,-1
 201 394 l 1,78,-1
 201 388 l 1,79,-1
 201 382 l 1,80,-1
 201 376 l 1,81,-1
 201 371 l 1,82,-1
 201 359 l 1,83,-1
 201 354 l 1,84,-1
 201 348 l 1,85,-1
 201 342 l 1,86,-1
 201 336 l 1,87,-1
 201 331 l 1,88,-1
 202 325 l 1,89,-1
 202 320 l 1,90,-1
 202 314 l 1,91,-1
 202 309 l 1,92,-1
 203 303 l 1,93,-1
 203 298 l 1,94,-1
 203 292 l 1,95,-1
 204 287 l 1,96,-1
 204 281 l 1,97,-1
 205 276 l 1,98,-1
 205 271 l 1,99,-1
 206 265 l 1,100,-1
 206 260 l 1,101,-1
 207 255 l 1,102,-1
 208 250 l 1,103,-1
 208 245 l 1,104,-1
 209 239 l 1,105,-1
 210 234 l 1,106,-1
 210 229 l 1,107,-1
 211 224 l 1,108,-1
 212 219 l 1,109,-1
 213 214 l 1,110,-1
 214 209 l 1,111,-1
 215 204 l 1,112,-1
 216 199 l 1,113,-1
 217 194 l 1,114,-1
 218 189 l 1,115,-1
 219 184 l 1,116,-1
 220 179 l 1,117,-1
 221 175 l 1,118,-1
 222 170 l 1,119,-1
 223 165 l 1,120,-1
 224 160 l 1,121,-1
 225 156 l 1,122,-1
 227 151 l 1,123,-1
 228 146 l 1,124,-1
 229 142 l 1,125,-1
 231 137 l 1,126,-1
 232 132 l 1,127,-1
 233 128 l 1,128,-1
 235 123 l 1,129,-1
 236 119 l 1,130,-1
 238 114 l 1,131,-1
 239 110 l 1,132,-1
 241 105 l 1,133,-1
 243 101 l 1,134,-1
 244 97 l 1,135,-1
 246 92 l 1,136,-1
 247 88 l 1,137,-1
 249 84 l 1,138,-1
 251 79 l 1,139,-1
 253 75 l 1,140,-1
 255 71 l 1,141,-1
 256 67 l 1,142,-1
 258 63 l 1,143,-1
 260 58 l 1,144,-1
 262 54 l 1,145,-1
 264 50 l 1,146,-1
 266 46 l 1,147,-1
 268 42 l 1,148,-1
 270 38 l 1,149,-1
 272 34 l 1,150,-1
 274 30 l 1,151,-1
 277 26 l 1,152,-1
 279 23 l 1,153,-1
 281 19 l 1,154,155
 337 -79 337 -79 432 -140 c 1,156,-1
 399 -188 l 1,0,1
EndSplineSet
EndChar

StartChar: parenright
Encoding: 41 41 12
Width: 500
GlyphClass: 2
Flags: W
LayerCount: 2
Fore
SplineSet
101 -188 m 1,0,-1
 68 -140 l 1,1,2
 163 -79 163 -79 219 19 c 1,3,-1
 221 23 l 1,4,-1
 223 26 l 1,5,-1
 226 30 l 1,6,-1
 228 34 l 1,7,-1
 230 38 l 1,8,-1
 232 42 l 1,9,-1
 234 46 l 1,10,-1
 236 50 l 1,11,-1
 238 54 l 1,12,-1
 240 58 l 1,13,-1
 242 63 l 1,14,-1
 244 67 l 1,15,-1
 245 71 l 1,16,-1
 247 75 l 1,17,-1
 249 79 l 1,18,-1
 251 84 l 1,19,-1
 253 88 l 1,20,-1
 254 92 l 1,21,-1
 256 97 l 1,22,-1
 257 101 l 1,23,-1
 259 105 l 1,24,-1
 261 110 l 1,25,-1
 262 114 l 1,26,-1
 264 119 l 1,27,-1
 265 123 l 1,28,-1
 267 128 l 1,29,-1
 268 132 l 1,30,-1
 269 137 l 1,31,-1
 271 142 l 1,32,-1
 272 146 l 1,33,-1
 273 151 l 1,34,-1
 275 156 l 1,35,-1
 276 160 l 1,36,-1
 277 165 l 1,37,-1
 278 170 l 1,38,-1
 279 175 l 1,39,-1
 280 179 l 1,40,-1
 281 184 l 1,41,-1
 282 189 l 1,42,-1
 283 194 l 1,43,-1
 284 199 l 1,44,-1
 285 204 l 1,45,-1
 286 209 l 1,46,-1
 287 214 l 1,47,-1
 288 219 l 1,48,-1
 289 224 l 1,49,-1
 290 229 l 1,50,-1
 290 234 l 1,51,-1
 291 239 l 1,52,-1
 292 245 l 1,53,-1
 292 250 l 1,54,-1
 293 255 l 1,55,-1
 294 260 l 1,56,-1
 294 265 l 1,57,-1
 295 271 l 1,58,-1
 295 276 l 1,59,-1
 296 281 l 1,60,-1
 296 287 l 1,61,-1
 297 292 l 1,62,-1
 297 298 l 1,63,-1
 297 303 l 1,64,-1
 298 309 l 1,65,-1
 298 314 l 1,66,-1
 298 320 l 1,67,-1
 298 325 l 1,68,-1
 299 331 l 1,69,-1
 299 336 l 1,70,-1
 299 342 l 1,71,-1
 299 348 l 1,72,-1
 299 354 l 1,73,-1
 299 359 l 1,74,-1
 299 371 l 1,75,-1
 299 376 l 1,76,-1
 299 382 l 1,77,-1
 299 388 l 1,78,-1
 299 394 l 1,79,-1
 299 399 l 1,80,-1
 298 405 l 1,81,-1
 298 410 l 1,82,-1
 298 416 l 1,83,-1
 298 421 l 1,84,-1
 297 427 l 1,85,-1
 297 432 l 1,86,-1
 297 438 l 1,87,-1
 296 443 l 1,88,-1
 296 449 l 1,89,-1
 295 454 l 1,90,-1
 295 459 l 1,91,-1
 294 465 l 1,92,-1
 294 470 l 1,93,-1
 293 475 l 1,94,-1
 292 480 l 1,95,-1
 292 485 l 1,96,-1
 291 491 l 1,97,-1
 290 496 l 1,98,-1
 290 501 l 1,99,-1
 289 506 l 1,100,-1
 288 511 l 1,101,-1
 287 516 l 1,102,-1
 286 521 l 1,103,-1
 285 526 l 1,104,-1
 284 531 l 1,105,-1
 283 536 l 1,106,-1
 282 541 l 1,107,-1
 281 546 l 1,108,-1
 280 551 l 1,109,-1
 279 555 l 1,110,-1
 278 560 l 1,111,-1
 277 565 l 1,112,-1
 276 570 l 1,113,-1
 275 574 l 1,114,-1
 273 579 l 1,115,-1
 272 584 l 1,116,-1
 271 588 l 1,117,-1
 269 593 l 1,118,-1
 268 598 l 1,119,-1
 267 602 l 1,120,-1
 265 607 l 1,121,-1
 264 611 l 1,122,-1
 262 616 l 1,123,-1
 261 620 l 1,124,-1
 259 625 l 1,125,-1
 257 629 l 1,126,-1
 256 633 l 1,127,-1
 254 638 l 1,128,-1
 253 642 l 1,129,-1
 251 646 l 1,130,-1
 249 651 l 1,131,-1
 247 655 l 1,132,-1
 245 659 l 1,133,-1
 244 663 l 1,134,-1
 242 667 l 1,135,-1
 240 672 l 1,136,-1
 238 676 l 1,137,-1
 236 680 l 1,138,-1
 234 684 l 1,139,-1
 232 688 l 1,140,-1
 230 692 l 1,141,-1
 228 696 l 1,142,-1
 226 700 l 1,143,-1
 223 704 l 1,144,-1
 221 707 l 1,145,-1
 219 711 l 1,146,147
 163 809 163 809 68 870 c 1,148,-1
 101 918 l 1,149,150
 210 850 210 850 275 738 c 0,151,152
 361 588 361 588 362 365 c 1,153,154
 361 142 361 142 275 -8 c 0,155,156
 210 -120 210 -120 101 -188 c 1,0,-1
EndSplineSet
EndChar

StartChar: asterisk
Encoding: 42 42 13
Width: 500
GlyphClass: 2
Flags: W
LayerCount: 2
Fore
SplineSet
152 449 m 1,0,-1
 101 482 l 1,1,-1
 211 624 l 1,2,-1
 41 674 l 1,3,-1
 60 727 l 1,4,-1
 224 669 l 1,5,-1
 219 846 l 1,6,-1
 281 846 l 1,7,-1
 276 669 l 1,8,-1
 440 727 l 1,9,-1
 459 674 l 1,10,-1
 289 624 l 1,11,-1
 399 482 l 1,12,-1
 348 449 l 1,13,-1
 250 593 l 1,14,-1
 152 449 l 1,0,-1
EndSplineSet
Substitution2: "'ss10' Style Set 10 lookup 142 subtable" asterisk.ss10
Substitution2: "'ss11' Style Set 11 lookup 141 subtable" asterisk.ss11
Substitution2: "Single Substitution lookup 85 subtable" asterisk.ss10
Substitution2: "Single Substitution lookup 45 subtable" asterisk.ss10
Substitution2: "Single Substitution lookup 42 subtable" asterisk.ss10
Substitution2: "Single Substitution lookup 40 subtable" asterisk.ss10
EndChar

StartChar: plus
Encoding: 43 43 14
Width: 500
GlyphClass: 2
Flags: W
FFAnchorPoint: "Anchor-5" 436 0 basechar 0
FFAnchorPoint: "Anchor-4" 436 530 basechar 0
FFAnchorPoint: "Anchor-3" 250 365 basechar 0
FFAnchorPoint: "Anchor-2" 250 373 basechar 0
FFAnchorPoint: "Anchor-1" 250 160 basechar 0
FFAnchorPoint: "Anchor-0" 250 569 basechar 0
LayerCount: 2
Fore
SplineSet
219 160 m 1,0,-1
 219 337 l 1,1,-1
 64 337 l 1,2,-1
 64 393 l 1,3,-1
 219 393 l 1,4,-1
 219 570 l 1,5,-1
 281 570 l 1,6,-1
 281 393 l 1,7,-1
 436 393 l 1,8,-1
 436 337 l 1,9,-1
 281 337 l 1,10,-1
 281 160 l 1,11,-1
 219 160 l 1,0,-1
EndSplineSet
Substitution2: "Single Substitution lookup 53 subtable" glyph3158
Substitution2: "Single Substitution lookup 52 subtable" glyph3157
Substitution2: "Single Substitution lookup 51 subtable" glyph3155
Substitution2: "Single Substitution lookup 50 subtable" glyph3160
EndChar

StartChar: comma
Encoding: 44 44 15
Width: 500
GlyphClass: 2
Flags: W
LayerCount: 2
Fore
SplineSet
233 -205 m 1,0,-1
 180 -175 l 1,1,2
 183 -171 183 -171 187 -164 c 0,3,4
 190 -159 190 -159 192 -156 c 0,5,6
 235 -82 235 -82 247 -8 c 1,7,8
 228 -7 228 -7 214.5 0.5 c 128,-1,9
 201 8 201 8 193 22 c 0,10,11
 184 37 184 37 185 58 c 1,12,13
 184 78 184 78 193 93 c 0,14,15
 201 107 201 107 214 114 c 0,16,17
 229 123 229 123 250 123 c 256,18,19
 271 123 271 123 286 114 c 0,20,21
 299 107 299 107 307 93 c 256,22,23
 315 79 315 79 316 57 c 1,24,25
 315 -63 315 -63 246 -183 c 0,26,27
 242 -189 242 -189 235 -202 c 0,28,29
 234 -204 234 -204 233 -205 c 1,0,-1
EndSplineSet
EndChar

StartChar: hyphen
Encoding: 45 45 16
Width: 500
GlyphClass: 2
Flags: W
LayerCount: 2
Fore
SplineSet
64 337 m 1,0,-1
 64 393 l 1,1,-1
 436 393 l 1,2,-1
 436 337 l 1,3,-1
 64 337 l 1,0,-1
EndSplineSet
Substitution2: "Single Substitution lookup 95 subtable" glyph3217
Substitution2: "Single Substitution lookup 94 subtable" glyph3211
Substitution2: "Single Substitution lookup 92 subtable" glyph3200
Substitution2: "Single Substitution lookup 91 subtable" glyph3210
Substitution2: "Single Substitution lookup 90 subtable" glyph3210
Substitution2: "Single Substitution lookup 89 subtable" glyph3216
Substitution2: "Single Substitution lookup 87 subtable" glyph3201
Substitution2: "Single Substitution lookup 79 subtable" glyph3220
Substitution2: "Single Substitution lookup 72 subtable" glyph3195
Substitution2: "Single Substitution lookup 71 subtable" glyph3209
Substitution2: "Single Substitution lookup 70 subtable" glyph3212
Substitution2: "Single Substitution lookup 69 subtable" glyph3213
Substitution2: "Single Substitution lookup 68 subtable" glyph3199
Substitution2: "Single Substitution lookup 66 subtable" glyph3196
Substitution2: "Single Substitution lookup 65 subtable" glyph3208
Substitution2: "Single Substitution lookup 64 subtable" glyph3214
Substitution2: "Single Substitution lookup 63 subtable" glyph3215
Substitution2: "Single Substitution lookup 62 subtable" glyph3218
Substitution2: "Single Substitution lookup 61 subtable" glyph3197
Substitution2: "Single Substitution lookup 60 subtable" glyph3219
Substitution2: "Single Substitution lookup 59 subtable" glyph3198
EndChar

StartChar: period
Encoding: 46 46 17
Width: 500
GlyphClass: 2
Flags: W
LayerCount: 2
Fore
SplineSet
250 -8 m 256,0,1
 229 -8 229 -8 214 1 c 0,2,3
 201 8 201 8 193 22 c 0,4,5
 184 37 184 37 185 58 c 1,6,7
 184 78 184 78 193 93 c 0,8,9
 201 107 201 107 214 114 c 0,10,11
 229 123 229 123 250 123 c 256,12,13
 271 123 271 123 286 114 c 0,14,15
 299 107 299 107 307 93 c 256,16,17
 315 79 315 79 316 58 c 1,18,19
 315 36 315 36 307 22 c 256,20,21
 299 8 299 8 286 1 c 0,22,23
 271 -8 271 -8 250 -8 c 256,0,1
EndSplineSet
Substitution2: "Single Substitution lookup 85 subtable" glyph3108
Substitution2: "Single Substitution lookup 84 subtable" glyph3108
EndChar

StartChar: slash
Encoding: 47 47 18
Width: 500
GlyphClass: 2
Flags: W
LayerCount: 2
Fore
SplineSet
60 -168 m 1,0,-1
 376 898 l 1,1,-1
 440 898 l 1,2,-1
 124 -168 l 1,3,-1
 60 -168 l 1,0,-1
EndSplineSet
Substitution2: "Single Substitution lookup 83 subtable" glyph3102
Substitution2: "Single Substitution lookup 80 subtable" glyph3101
EndChar

StartChar: zero
Encoding: 48 48 19
Width: 500
GlyphClass: 2
Flags: W
FFAnchorPoint: "Anchor-5" 436 0 basechar 0
FFAnchorPoint: "Anchor-4" 436 735 basechar 0
FFAnchorPoint: "Anchor-3" 250 367 basechar 0
FFAnchorPoint: "Anchor-2" 250 382 basechar 0
FFAnchorPoint: "Anchor-1" 250 0 basechar 0
FFAnchorPoint: "Anchor-0" 250 735 basechar 0
LayerCount: 2
Fore
SplineSet
250 -8 m 256,0,1
 195 -8 195 -8 154 15.5 c 128,-1,2
 113 39 113 39 88 82 c 0,3,4
 56 138 56 138 56 220 c 2,5,-1
 56 515 l 2,6,7
 56 597 56 597 88 653 c 0,8,9
 113 696 113 696 154 719.5 c 128,-1,10
 195 743 195 743 250 743 c 256,11,12
 305 743 305 743 346 719.5 c 128,-1,13
 387 696 387 696 412 653 c 0,14,15
 444 597 444 597 444 515 c 2,16,-1
 444 220 l 2,17,18
 444 138 444 138 412 82 c 0,19,20
 387 39 387 39 346 15.5 c 128,-1,21
 305 -8 305 -8 250 -8 c 256,0,1
250 48 m 256,22,23
 285 48 285 48 311 63 c 0,24,25
 338 79 338 79 357 110 c 1,26,27
 382 154 382 154 382 220 c 2,28,-1
 382 515 l 2,29,30
 382 581 382 581 357 625 c 1,31,32
 338 656 338 656 311 672 c 0,33,34
 285 687 285 687 250 687 c 256,35,36
 215 687 215 687 189 672 c 0,37,38
 162 656 162 656 143 625 c 1,39,40
 118 581 118 581 118 515 c 2,41,-1
 118 220 l 2,42,43
 118 154 118 154 143 110 c 1,44,45
 162 79 162 79 189 63 c 0,46,47
 215 48 215 48 250 48 c 256,22,23
EndSplineSet
Substitution2: "'ss11' Style Set 11 lookup 131 subtable" zero.ss11
Substitution2: "'ss09' Style Set 9 lookup 130 subtable" zero.ss09
Substitution2: "'ss10' Style Set 10 lookup 129 subtable" zero.ss10
EndChar

StartChar: one
Encoding: 49 49 20
Width: 500
GlyphClass: 2
Flags: W
FFAnchorPoint: "Anchor-5" 436 0 basechar 0
FFAnchorPoint: "Anchor-4" 436 735 basechar 0
FFAnchorPoint: "Anchor-3" 250 367 basechar 0
FFAnchorPoint: "Anchor-2" 250 382 basechar 0
FFAnchorPoint: "Anchor-1" 250 0 basechar 0
FFAnchorPoint: "Anchor-0" 250 735 basechar 0
LayerCount: 2
Fore
SplineSet
249 0 m 1,0,-1
 249 667 l 1,1,-1
 101 572 l 1,2,-1
 68 619 l 1,3,-1
 249 735 l 1,4,-1
 311 735 l 1,5,-1
 311 0 l 1,6,-1
 249 0 l 1,0,-1
EndSplineSet
EndChar

StartChar: two
Encoding: 50 50 21
Width: 500
GlyphClass: 2
Flags: W
FFAnchorPoint: "Anchor-5" 436 0 basechar 0
FFAnchorPoint: "Anchor-4" 436 735 basechar 0
FFAnchorPoint: "Anchor-3" 250 367 basechar 0
FFAnchorPoint: "Anchor-2" 250 382 basechar 0
FFAnchorPoint: "Anchor-1" 250 0 basechar 0
FFAnchorPoint: "Anchor-0" 250 735 basechar 0
LayerCount: 2
Fore
SplineSet
64 0 m 1,0,-1
 64 1 l 2,1,2
 64 134 64 134 106 208 c 1,3,4
 142 269 142 269 238 345 c 0,5,6
 324 414 324 414 351 462 c 1,7,8
 378 507 378 507 378 554 c 0,9,10
 378 596 378 596 359 628 c 0,11,12
 344 655 344 655 317 670 c 0,13,14
 288 687 288 687 249 687 c 0,15,16
 209 687 209 687 181 671 c 0,17,18
 155 655 155 655 138 628 c 1,19,20
 124 602 124 602 120 570 c 1,21,-1
 59 580 l 1,22,23
 63 621 63 621 83 656 c 0,24,25
 106 696 106 696 145 718 c 0,26,27
 188 743 188 743 249 743 c 0,28,29
 309 743 309 743 352 718 c 0,30,31
 391 696 391 696 414 656 c 0,32,33
 440 610 440 610 440 555 c 0,34,35
 440 495 440 495 407 439 c 1,36,37
 377 386 377 386 285 310 c 0,38,39
 196 236 196 236 164 182 c 0,40,41
 136 133 136 133 129 56 c 1,42,-1
 436 56 l 1,43,-1
 436 0 l 1,44,-1
 64 0 l 1,0,-1
EndSplineSet
EndChar

StartChar: three
Encoding: 51 51 22
Width: 500
GlyphClass: 2
Flags: W
FFAnchorPoint: "Anchor-5" 436 0 basechar 0
FFAnchorPoint: "Anchor-4" 436 735 basechar 0
FFAnchorPoint: "Anchor-3" 250 367 basechar 0
FFAnchorPoint: "Anchor-2" 250 382 basechar 0
FFAnchorPoint: "Anchor-1" 250 0 basechar 0
FFAnchorPoint: "Anchor-0" 250 735 basechar 0
LayerCount: 2
Fore
SplineSet
248 0 m 0,0,1
 191 0 191 0 149 24 c 0,2,3
 108 47 108 47 83 90 c 0,4,5
 66 121 66 121 59 155 c 1,6,-1
 118 173 l 1,7,8
 124 143 124 143 138 119 c 0,9,10
 155 88 155 88 184 72 c 0,11,12
 211 56 211 56 248 56 c 256,13,14
 285 56 285 56 312 72 c 0,15,16
 340 88 340 88 358 119 c 0,17,18
 382 159 382 159 382 221 c 0,19,20
 382 282 382 282 358 323 c 0,21,22
 341 354 341 354 313.5 369.5 c 128,-1,23
 286 385 286 385 250 385 c 2,24,-1
 157 385 l 1,25,-1
 157 441 l 1,26,-1
 352 679 l 1,27,-1
 64 679 l 1,28,-1
 64 735 l 1,29,-1
 427 735 l 1,30,-1
 427 679 l 1,31,-1
 232 441 l 1,32,-1
 250 441 l 2,33,34
 307 441 307 441 349 417 c 0,35,36
 389 394 389 394 413 351 c 0,37,38
 444 298 444 298 444 221 c 0,39,40
 444 143 444 143 413 91 c 1,41,42
 389 48 389 48 348 24 c 0,43,44
 306 0 306 0 248 0 c 0,0,1
EndSplineSet
Substitution2: "'ss10' Style Set 10 lookup 133 subtable" three.ss10
Substitution2: "'ss11' Style Set 11 lookup 132 subtable" three.ss11
EndChar

StartChar: four
Encoding: 52 52 23
Width: 500
GlyphClass: 2
Flags: W
FFAnchorPoint: "Anchor-5" 436 0 basechar 0
FFAnchorPoint: "Anchor-4" 436 735 basechar 0
FFAnchorPoint: "Anchor-3" 250 367 basechar 0
FFAnchorPoint: "Anchor-2" 250 382 basechar 0
FFAnchorPoint: "Anchor-1" 250 0 basechar 0
FFAnchorPoint: "Anchor-0" 250 735 basechar 0
LayerCount: 2
Fore
SplineSet
309 0 m 1,0,-1
 309 238 l 1,1,-1
 56 238 l 1,2,-1
 56 294 l 1,3,-1
 295 735 l 1,4,-1
 371 735 l 1,5,-1
 371 294 l 1,6,-1
 436 294 l 1,7,-1
 436 238 l 1,8,-1
 371 238 l 1,9,-1
 371 0 l 1,10,-1
 309 0 l 1,0,-1
118 294 m 1,11,-1
 309 294 l 1,12,-1
 309 645 l 1,13,-1
 118 294 l 1,11,-1
EndSplineSet
EndChar

StartChar: five
Encoding: 53 53 24
Width: 500
GlyphClass: 2
Flags: W
FFAnchorPoint: "Anchor-5" 436 0 basechar 0
FFAnchorPoint: "Anchor-4" 436 735 basechar 0
FFAnchorPoint: "Anchor-3" 250 367 basechar 0
FFAnchorPoint: "Anchor-2" 250 382 basechar 0
FFAnchorPoint: "Anchor-1" 250 0 basechar 0
FFAnchorPoint: "Anchor-0" 250 735 basechar 0
LayerCount: 2
Fore
SplineSet
248 -8 m 0,0,1
 194 -8 194 -8 153 15.5 c 128,-1,2
 112 39 112 39 86 84 c 0,3,4
 67 116 67 116 59 155 c 1,5,-1
 117 176 l 1,6,7
 123 141 123 141 140 113 c 1,8,9
 158 80 158 80 187 63 c 0,10,11
 214 48 214 48 248 48 c 0,12,13
 281 48 281 48 307 63 c 0,14,15
 335 79 335 79 354 112 c 0,16,17
 382 160 382 160 382 236 c 128,-1,18
 382 312 382 312 354 361 c 0,19,20
 335 393 335 393 308 408 c 0,21,22
 283 422 283 422 251 422 c 256,23,24
 219 422 219 422 194 408 c 0,25,26
 166 392 166 392 147 360 c 0,27,28
 135 339 135 339 129 315 c 1,29,-1
 73 340 l 1,30,-1
 73 735 l 1,31,-1
 417 735 l 1,32,-1
 417 679 l 1,33,-1
 136 679 l 1,34,-1
 136 439 l 1,35,36
 147 448 147 448 160 456 c 0,37,38
 200 478 200 478 251 478 c 0,39,40
 304 478 304 478 342 456 c 0,41,42
 383 433 383 433 409 388 c 0,43,44
 444 327 444 327 444 236 c 128,-1,45
 444 145 444 145 409 84 c 0,46,47
 383 39 383 39 342 15.5 c 128,-1,48
 301 -8 301 -8 248 -8 c 0,0,1
EndSplineSet
EndChar

StartChar: six
Encoding: 54 54 25
Width: 500
GlyphClass: 2
Flags: W
FFAnchorPoint: "Anchor-5" 436 0 basechar 0
FFAnchorPoint: "Anchor-4" 436 735 basechar 0
FFAnchorPoint: "Anchor-3" 250 367 basechar 0
FFAnchorPoint: "Anchor-2" 250 382 basechar 0
FFAnchorPoint: "Anchor-1" 250 0 basechar 0
FFAnchorPoint: "Anchor-0" 250 735 basechar 0
LayerCount: 2
Fore
SplineSet
250 -8 m 256,0,1
 195 -8 195 -8 154.5 15.5 c 128,-1,2
 114 39 114 39 88 82 c 1,3,4
 56 139 56 139 56 220 c 0,5,6
 56 428 56 428 129 555 c 0,7,8
 183 649 183 649 275 702 c 0,9,10
 310 722 310 722 349 735 c 1,11,-1
 368 682 l 1,12,13
 338 671 338 671 312 656 c 0,14,15
 232 610 232 610 184 528 c 0,16,17
 151 470 151 470 134 392 c 1,18,19
 154 417 154 417 179 431 c 0,20,21
 209 449 209 449 252 449 c 0,22,23
 305 449 305 449 345.5 425.5 c 128,-1,24
 386 402 386 402 412 359 c 1,25,26
 444 302 444 302 444 220.5 c 128,-1,27
 444 139 444 139 412 82 c 1,28,29
 386 39 386 39 345.5 15.5 c 128,-1,30
 305 -8 305 -8 250 -8 c 256,0,1
250 48 m 256,31,32
 285 48 285 48 311 63 c 0,33,34
 339 79 339 79 356 110 c 1,35,36
 382 153 382 153 382 220.5 c 128,-1,37
 382 288 382 288 356 331 c 1,38,39
 339 362 339 362 311 378 c 0,40,41
 285 393 285 393 251 393 c 0,42,43
 216 393 216 393 189 378 c 1,44,45
 161 361 161 361 144 331 c 0,46,47
 118 287 118 287 118 220 c 128,-1,48
 118 153 118 153 144 110 c 1,49,50
 161 79 161 79 189 63 c 0,51,52
 215 48 215 48 250 48 c 256,31,32
EndSplineSet
EndChar

StartChar: seven
Encoding: 55 55 26
Width: 500
GlyphClass: 2
Flags: W
FFAnchorPoint: "Anchor-5" 436 0 basechar 0
FFAnchorPoint: "Anchor-4" 436 735 basechar 0
FFAnchorPoint: "Anchor-3" 250 367 basechar 0
FFAnchorPoint: "Anchor-2" 250 382 basechar 0
FFAnchorPoint: "Anchor-1" 250 0 basechar 0
FFAnchorPoint: "Anchor-0" 250 735 basechar 0
LayerCount: 2
Fore
SplineSet
135 0 m 1,0,-1
 370 679 l 1,1,-1
 64 679 l 1,2,-1
 64 735 l 1,3,-1
 436 735 l 1,4,-1
 436 679 l 1,5,-1
 201 0 l 1,6,-1
 135 0 l 1,0,-1
EndSplineSet
EndChar

StartChar: eight
Encoding: 56 56 27
Width: 500
GlyphClass: 2
Flags: W
FFAnchorPoint: "Anchor-5" 436 0 basechar 0
FFAnchorPoint: "Anchor-4" 436 735 basechar 0
FFAnchorPoint: "Anchor-3" 250 367 basechar 0
FFAnchorPoint: "Anchor-2" 250 382 basechar 0
FFAnchorPoint: "Anchor-1" 250 0 basechar 0
FFAnchorPoint: "Anchor-0" 250 735 basechar 0
LayerCount: 2
Fore
SplineSet
250 -8 m 256,0,1
 185 -8 185 -8 140 18 c 0,2,3
 101 41 101 41 80 78 c 0,4,5
 56 119 56 119 56 170 c 128,-1,6
 56 221 56 221 84 269 c 0,7,8
 113 319 113 319 198 376 c 1,9,10
 126 427 126 427 99 473 c 0,11,12
 72 521 72 521 71 573 c 1,13,14
 72 624 72 624 95 663 c 0,15,16
 115 698 115 698 151 719 c 0,17,18
 192 743 192 743 250 743 c 256,19,20
 308 743 308 743 349 719 c 0,21,22
 385 698 385 698 405 663 c 0,23,24
 428 624 428 624 429 573 c 1,25,26
 428 521 428 521 401 473 c 0,27,28
 374 427 374 427 302 376 c 1,29,30
 387 319 387 319 416 269 c 0,31,32
 444 221 444 221 444 170 c 128,-1,33
 444 119 444 119 420 78 c 0,34,35
 399 41 399 41 360 18 c 0,36,37
 315 -8 315 -8 250 -8 c 256,0,1
250 48 m 256,38,39
 294 48 294 48 325 66 c 0,40,41
 351 81 351 81 366 106 c 0,42,43
 382 134 382 134 382 169 c 0,44,45
 382 207 382 207 361 243 c 0,46,47
 334 290 334 290 250 342 c 1,48,49
 166 290 166 290 139 243 c 0,50,51
 118 207 118 207 118 169 c 0,52,53
 118 134 118 134 134 106 c 0,54,55
 149 81 149 81 175 66 c 0,56,57
 206 48 206 48 250 48 c 256,38,39
250 410 m 1,58,59
 321 457 321 457 345 499 c 1,60,61
 367 535 367 535 366 573 c 1,62,63
 367 607 367 607 351 634 c 0,64,65
 337 658 337 658 313 672 c 0,66,67
 287 687 287 687 250 687 c 256,68,69
 213 687 213 687 187 672 c 0,70,71
 163 658 163 658 149 634 c 0,72,73
 133 607 133 607 134 573 c 1,74,75
 133 535 133 535 155 499 c 1,76,77
 179 457 179 457 250 410 c 1,58,59
EndSplineSet
EndChar

StartChar: nine
Encoding: 57 57 28
Width: 500
GlyphClass: 2
Flags: W
FFAnchorPoint: "Anchor-5" 436 0 basechar 0
FFAnchorPoint: "Anchor-4" 436 735 basechar 0
FFAnchorPoint: "Anchor-3" 250 367 basechar 0
FFAnchorPoint: "Anchor-2" 250 382 basechar 0
FFAnchorPoint: "Anchor-1" 250 0 basechar 0
FFAnchorPoint: "Anchor-0" 250 735 basechar 0
LayerCount: 2
Fore
SplineSet
246 -8 m 0,0,1
 194 -8 194 -8 156 14 c 0,2,3
 114 39 114 39 87 86 c 0,4,5
 69 117 69 117 59 155 c 1,6,-1
 115 180 l 1,7,8
 123 143 123 143 140 114 c 1,9,10
 159 79 159 79 189 62 c 0,11,12
 213 48 213 48 246 48 c 0,13,14
 277 48 277 48 302 62 c 1,15,16
 330 79 330 79 350 112 c 0,17,18
 382 168 382 168 382 257 c 2,19,-1
 382 359 l 1,20,21
 381 358 381 358 380.5 356.5 c 128,-1,22
 380 355 380 355 379 354 c 0,23,24
 356 314 356 314 322 294 c 0,25,26
 291 276 291 276 248 276 c 0,27,28
 195 276 195 276 154 299.5 c 128,-1,29
 113 323 113 323 88 367 c 0,30,31
 56 423 56 423 56 504 c 2,32,-1
 56 515 l 2,33,34
 56 597 56 597 88 653 c 0,35,36
 113 696 113 696 154 719.5 c 128,-1,37
 195 743 195 743 250 743 c 0,38,39
 304 743 304 743 344.5 719.5 c 128,-1,40
 385 696 385 696 411 652 c 0,41,42
 444 595 444 595 444 510 c 2,43,-1
 444 257 l 2,44,45
 444 154 444 154 405 86 c 0,46,47
 378 39 378 39 336 14 c 1,48,49
 297 -8 297 -8 246 -8 c 0,0,1
249 332 m 0,50,51
 284 332 284 332 311.5 348 c 128,-1,52
 339 364 339 364 357 395 c 0,53,54
 382 438 382 438 382 504 c 2,55,-1
 382 510 l 2,56,57
 382 579 382 579 356 625 c 1,58,59
 337 656 337 656 310 672 c 0,60,61
 284 687 284 687 250 687 c 0,62,63
 215 687 215 687 189 672 c 0,64,65
 162 656 162 656 143 625 c 1,66,67
 118 581 118 581 118 515 c 2,68,-1
 118 504 l 2,69,70
 118 438 118 438 143 394 c 1,71,72
 162 363 162 363 189 347 c 0,73,74
 215 332 215 332 249 332 c 0,50,51
EndSplineSet
EndChar

StartChar: colon
Encoding: 58 58 29
Width: 500
GlyphClass: 2
Flags: W
LayerCount: 2
Fore
SplineSet
250 407 m 256,0,1
 229 407 229 407 214 416 c 0,2,3
 201 423 201 423 193 437 c 0,4,5
 184 452 184 452 185 473 c 1,6,7
 184 493 184 493 193 508 c 0,8,9
 201 522 201 522 214 529 c 0,10,11
 229 538 229 538 250 538 c 256,12,13
 271 538 271 538 286 529 c 0,14,15
 299 522 299 522 307 508 c 256,16,17
 315 494 315 494 316 473 c 1,18,19
 315 451 315 451 307 437 c 256,20,21
 299 423 299 423 286 416 c 0,22,23
 271 407 271 407 250 407 c 256,0,1
250 -8 m 256,24,25
 229 -8 229 -8 214 1 c 0,26,27
 201 8 201 8 193 22 c 0,28,29
 184 37 184 37 185 58 c 1,30,31
 184 78 184 78 193 93 c 0,32,33
 201 107 201 107 214 114 c 0,34,35
 229 123 229 123 250 123 c 256,36,37
 271 123 271 123 286 114 c 0,38,39
 299 107 299 107 307 93 c 256,40,41
 315 79 315 79 316 58 c 1,42,43
 315 36 315 36 307 22 c 256,44,45
 299 8 299 8 286 1 c 0,46,47
 271 -8 271 -8 250 -8 c 256,24,25
EndSplineSet
Substitution2: "Single Substitution lookup 85 subtable" glyph3085
Substitution2: "Single Substitution lookup 49 subtable" glyph3086
Substitution2: "Single Substitution lookup 48 subtable" glyph3087
Substitution2: "Single Substitution lookup 47 subtable" glyph3084
Substitution2: "Single Substitution lookup 45 subtable" glyph3085
Substitution2: "Single Substitution lookup 41 subtable" glyph3085
EndChar

StartChar: semicolon
Encoding: 59 59 30
Width: 500
GlyphClass: 2
Flags: W
LayerCount: 2
Fore
SplineSet
250 407 m 256,0,1
 229 407 229 407 214 416 c 0,2,3
 201 423 201 423 193 437 c 0,4,5
 184 452 184 452 185 473 c 1,6,7
 184 493 184 493 193 508 c 0,8,9
 201 522 201 522 214 529 c 0,10,11
 229 538 229 538 250 538 c 256,12,13
 271 538 271 538 286 529 c 0,14,15
 299 522 299 522 307 508 c 256,16,17
 315 494 315 494 316 473 c 1,18,19
 315 451 315 451 307 437 c 256,20,21
 299 423 299 423 286 416 c 0,22,23
 271 407 271 407 250 407 c 256,0,1
233 -205 m 1,24,-1
 180 -175 l 1,25,26
 183 -171 183 -171 187 -164 c 0,27,28
 190 -159 190 -159 192 -156 c 0,29,30
 235 -82 235 -82 247 -8 c 1,31,32
 228 -7 228 -7 214.5 0.5 c 128,-1,33
 201 8 201 8 193 22 c 0,34,35
 184 37 184 37 185 58 c 1,36,37
 184 78 184 78 193 93 c 0,38,39
 201 107 201 107 214 114 c 0,40,41
 229 123 229 123 250 123 c 256,42,43
 271 123 271 123 286 114 c 0,44,45
 299 107 299 107 307 93 c 256,46,47
 315 79 315 79 316 57 c 1,48,49
 315 -63 315 -63 246 -183 c 0,50,51
 242 -189 242 -189 235 -202 c 0,52,53
 234 -204 234 -204 233 -205 c 1,24,-1
EndSplineSet
EndChar

StartChar: less
Encoding: 60 60 31
Width: 500
GlyphClass: 2
Flags: W
FFAnchorPoint: "Anchor-5" 436 0 basechar 0
FFAnchorPoint: "Anchor-4" 436 530 basechar 0
FFAnchorPoint: "Anchor-3" 250 365 basechar 0
FFAnchorPoint: "Anchor-2" 250 373 basechar 0
FFAnchorPoint: "Anchor-1" 250 160 basechar 0
FFAnchorPoint: "Anchor-0" 250 569 basechar 0
LayerCount: 2
Fore
SplineSet
421 128 m 1,0,-1
 64 333 l 1,1,-1
 64 397 l 1,2,-1
 421 602 l 1,3,-1
 451 554 l 1,4,-1
 120 365 l 1,5,-1
 451 176 l 1,6,-1
 421 128 l 1,0,-1
EndSplineSet
Substitution2: "Single Substitution lookup 98 subtable" glyph3185
Substitution2: "Single Substitution lookup 97 subtable" glyph3190
Substitution2: "Single Substitution lookup 96 subtable" glyph3192
Substitution2: "Single Substitution lookup 86 subtable" glyph3187
Substitution2: "Single Substitution lookup 56 subtable" glyph3164
EndChar

StartChar: equal
Encoding: 61 61 32
Width: 500
GlyphClass: 2
Flags: W
FFAnchorPoint: "Anchor-5" 436 0 basechar 0
FFAnchorPoint: "Anchor-4" 436 530 basechar 0
FFAnchorPoint: "Anchor-3" 250 365 basechar 0
FFAnchorPoint: "Anchor-2" 250 373 basechar 0
FFAnchorPoint: "Anchor-1" 250 160 basechar 0
FFAnchorPoint: "Anchor-0" 250 569 basechar 0
LayerCount: 2
Fore
SplineSet
64 444 m 1,0,-1
 64 500 l 1,1,-1
 436 500 l 1,2,-1
 436 444 l 1,3,-1
 64 444 l 1,0,-1
64 230 m 1,4,-1
 64 286 l 1,5,-1
 436 286 l 1,6,-1
 436 230 l 1,7,-1
 64 230 l 1,4,-1
EndSplineSet
Substitution2: "Single Substitution lookup 95 subtable" glyph3246
Substitution2: "Single Substitution lookup 94 subtable" glyph3240
Substitution2: "Single Substitution lookup 92 subtable" glyph3229
Substitution2: "Single Substitution lookup 91 subtable" glyph3239
Substitution2: "Single Substitution lookup 89 subtable" glyph3245
Substitution2: "Single Substitution lookup 87 subtable" glyph3230
Substitution2: "Single Substitution lookup 79 subtable" glyph3249
Substitution2: "Single Substitution lookup 72 subtable" glyph3224
Substitution2: "Single Substitution lookup 71 subtable" glyph3238
Substitution2: "Single Substitution lookup 70 subtable" glyph3241
Substitution2: "Single Substitution lookup 69 subtable" glyph3242
Substitution2: "Single Substitution lookup 66 subtable" glyph3225
Substitution2: "Single Substitution lookup 65 subtable" glyph3237
Substitution2: "Single Substitution lookup 64 subtable" glyph3243
Substitution2: "Single Substitution lookup 63 subtable" glyph3244
Substitution2: "Single Substitution lookup 62 subtable" glyph3247
Substitution2: "Single Substitution lookup 61 subtable" glyph3226
Substitution2: "Single Substitution lookup 60 subtable" glyph3248
Substitution2: "Single Substitution lookup 59 subtable" glyph3227
EndChar

StartChar: greater
Encoding: 62 62 33
Width: 500
GlyphClass: 2
Flags: W
FFAnchorPoint: "Anchor-5" 436 0 basechar 0
FFAnchorPoint: "Anchor-4" 436 530 basechar 0
FFAnchorPoint: "Anchor-3" 250 365 basechar 0
FFAnchorPoint: "Anchor-2" 250 373 basechar 0
FFAnchorPoint: "Anchor-1" 250 160 basechar 0
FFAnchorPoint: "Anchor-0" 250 569 basechar 0
LayerCount: 2
Fore
SplineSet
79 128 m 1,0,-1
 49 176 l 1,1,-1
 380 365 l 1,2,-1
 49 554 l 1,3,-1
 79 602 l 1,4,-1
 436 397 l 1,5,-1
 436 333 l 1,6,-1
 79 128 l 1,0,-1
EndSplineSet
Substitution2: "Single Substitution lookup 100 subtable" glyph3180
Substitution2: "Single Substitution lookup 99 subtable" glyph3175
Substitution2: "Single Substitution lookup 93 subtable" glyph3177
Substitution2: "Single Substitution lookup 88 subtable" glyph3182
Substitution2: "Single Substitution lookup 58 subtable" glyph3166
EndChar

StartChar: question
Encoding: 63 63 34
Width: 500
GlyphClass: 2
Flags: W
LayerCount: 2
Fore
SplineSet
219 221 m 1,0,1
 219 305 219 305 248 356 c 0,2,3
 264 383 264 383 306 430 c 0,4,5
 338 467 338 467 352 491 c 0,6,7
 374 529 374 529 374 567 c 0,8,9
 374 602 374 602 358 630 c 0,10,11
 343 655 343 655 318 670 c 0,12,13
 288 687 288 687 247 687 c 0,14,15
 203 687 203 687 173 669 c 0,16,17
 148 655 148 655 134 631 c 0,18,19
 121 608 121 608 120 581 c 0,20,21
 120 580 120 580 120.5 577.5 c 128,-1,22
 121 575 121 575 121 573 c 1,23,-1
 59 580 l 1,24,25
 59 583 59 583 59 586 c 0,26,27
 59 625 59 625 79 660 c 0,28,29
 99 696 99 696 137 717 c 1,30,31
 181 743 181 743 247 743 c 0,32,33
 309 743 309 743 353 718 c 0,34,35
 391 696 391 696 412 659 c 0,36,37
 436 617 436 617 436 566 c 0,38,39
 436 510 436 510 406 458 c 0,40,41
 389 429 389 429 347 381 c 0,42,43
 317 347 317 347 304 325 c 0,44,45
 281 285 281 285 281 221 c 1,46,-1
 219 221 l 1,0,1
250 -8 m 256,47,48
 223 -8 223 -8 207.5 7.5 c 128,-1,49
 192 23 192 23 192 50 c 128,-1,50
 192 77 192 77 207.5 92.5 c 128,-1,51
 223 108 223 108 250 108 c 256,52,53
 277 108 277 108 292.5 92.5 c 128,-1,54
 308 77 308 77 308 50 c 128,-1,55
 308 23 308 23 292.5 7.5 c 128,-1,56
 277 -8 277 -8 250 -8 c 256,47,48
EndSplineSet
EndChar

StartChar: at
Encoding: 64 64 35
Width: 500
GlyphClass: 2
Flags: W
LayerCount: 2
Fore
SplineSet
250 -176 m 2,0,1
 194 -176 194 -176 153 -152 c 0,2,3
 115 -130 115 -130 92 -91 c 0,4,5
 64 -42 64 -42 64 27 c 2,6,-1
 64 703 l 2,7,8
 64 772 64 772 92 821 c 0,9,10
 115 860 115 860 153 883 c 1,11,12
 194 906 194 906 250 906 c 256,13,14
 306 906 306 906 347 883 c 1,15,16
 385 860 385 860 408 821 c 0,17,18
 436 772 436 772 436 703 c 2,19,-1
 436 173 l 2,20,21
 436 121 436 121 416 87 c 0,22,23
 402 62 402 62 379 50 c 1,24,25
 358 37 358 37 329 37 c 0,26,27
 297 37 297 37 272 51 c 0,28,29
 248 65 248 65 233 91 c 0,30,31
 214 124 214 124 214 173 c 2,32,-1
 214 504 l 2,33,34
 214 552 214 552 233 586 c 1,35,36
 249 612 249 612 272 625 c 0,37,38
 297 640 297 640 330 640 c 2,39,-1
 374 640 l 1,40,-1
 374 703 l 2,41,42
 374 756 374 756 353 792 c 0,43,44
 337 820 337 820 311 835 c 128,-1,45
 285 850 285 850 250 850 c 256,46,47
 215 850 215 850 189 835 c 128,-1,48
 163 820 163 820 147 792 c 0,49,50
 126 756 126 756 126 703 c 2,51,-1
 126 27 l 2,52,53
 126 -26 126 -26 147 -62 c 0,54,55
 163 -90 163 -90 189 -105 c 128,-1,56
 215 -120 215 -120 250 -120 c 2,57,-1
 408 -120 l 1,58,-1
 408 -176 l 1,59,-1
 250 -176 l 2,0,1
329 93 m 0,60,61
 343 93 343 93 353 103 c 0,62,63
 374 124 374 124 374 173 c 2,64,-1
 374 584 l 1,65,-1
 330 584 l 2,66,67
 311 584 311 584 298 571 c 0,68,69
 277 550 277 550 276 504 c 1,70,-1
 276 173 l 1,71,72
 277 127 277 127 298 106 c 0,73,74
 311 93 311 93 329 93 c 0,60,61
EndSplineSet
Substitution2: "'ss05' Style Set 5 lookup 138 subtable" at.ss05
Substitution2: "'ss07' Style Set 7 lookup 137 subtable" at.ss07
Substitution2: "'ss11' Style Set 11 lookup 136 subtable" at.ss11
EndChar

StartChar: A
Encoding: 65 65 36
Width: 500
GlyphClass: 2
Flags: W
FFAnchorPoint: "Anchor-6" 408 0 basechar 0
FFAnchorPoint: "Anchor-5" 436 0 basechar 0
FFAnchorPoint: "Anchor-4" 436 735 basechar 0
FFAnchorPoint: "Anchor-3" 250 367 basechar 0
FFAnchorPoint: "Anchor-2" 250 382 basechar 0
FFAnchorPoint: "Anchor-1" 250 0 basechar 0
FFAnchorPoint: "Anchor-0" 250 735 basechar 0
LayerCount: 2
Fore
SplineSet
64 0 m 1,0,-1
 64 74 l 2,1,2
 64 273 64 273 219 735 c 1,3,-1
 281 735 l 1,4,5
 436 273 436 273 436 74 c 2,6,-1
 436 0 l 1,7,-1
 374 0 l 1,8,-1
 374 74 l 2,9,10
 374 130 374 130 361 209 c 1,11,-1
 139 209 l 1,12,13
 126 130 126 130 126 74 c 2,14,-1
 126 0 l 1,15,-1
 64 0 l 1,0,-1
148 265 m 1,16,-1
 352 265 l 1,17,18
 321 421 321 421 250 650 c 1,19,20
 179 421 179 421 148 265 c 1,16,-1
EndSplineSet
EndChar

StartChar: B
Encoding: 66 66 37
Width: 500
GlyphClass: 2
Flags: W
FFAnchorPoint: "Anchor-5" 436 0 basechar 0
FFAnchorPoint: "Anchor-4" 436 735 basechar 0
FFAnchorPoint: "Anchor-3" 250 367 basechar 0
FFAnchorPoint: "Anchor-2" 250 382 basechar 0
FFAnchorPoint: "Anchor-1" 250 0 basechar 0
FFAnchorPoint: "Anchor-0" 250 735 basechar 0
LayerCount: 2
Fore
SplineSet
64 0 m 1,0,-1
 64 735 l 1,1,-1
 233 735 l 2,2,3
 288 735 288 735 328 712 c 0,4,5
 365 691 365 691 386 653 c 0,6,7
 412 608 412 608 412 546 c 0,8,9
 412 489 412 489 389 449 c 0,10,11
 368 413 368 413 332 392 c 0,12,13
 325 388 325 388 317 384 c 1,14,15
 338 378 338 378 356 367 c 0,16,17
 397 343 397 343 420 303 c 0,18,19
 444 262 444 262 444 204 c 0,20,21
 444 140 444 140 417 95 c 1,22,23
 393 53 393 53 351 28 c 0,24,25
 302 0 302 0 233 0 c 2,26,-1
 64 0 l 1,0,-1
233 410 m 2,27,28
 267 410 267 410 292 425 c 0,29,30
 316 439 316 439 331 465 c 0,31,32
 350 497 350 497 350 544.5 c 128,-1,33
 350 592 350 592 331 625 c 0,34,35
 316 650 316 650 292 664 c 0,36,37
 267 679 267 679 233 679 c 2,38,-1
 126 679 l 1,39,-1
 126 410 l 1,40,-1
 233 410 l 2,27,28
126 56 m 1,41,-1
 233 56 l 2,42,43
 301 56 301 56 341 96 c 0,44,45
 382 136 382 136 382 205 c 0,46,47
 382 253 382 253 362 287 c 0,48,49
 345 317 345 317 315 334 c 0,50,51
 280 354 280 354 233 354 c 2,52,-1
 126 354 l 1,53,-1
 126 56 l 1,41,-1
EndSplineSet
EndChar

StartChar: C
Encoding: 67 67 38
Width: 500
GlyphClass: 2
Flags: W
FFAnchorPoint: "Anchor-5" 436 0 basechar 0
FFAnchorPoint: "Anchor-4" 436 735 basechar 0
FFAnchorPoint: "Anchor-3" 250 367 basechar 0
FFAnchorPoint: "Anchor-2" 250 382 basechar 0
FFAnchorPoint: "Anchor-1" 250 0 basechar 0
FFAnchorPoint: "Anchor-0" 250 735 basechar 0
LayerCount: 2
Fore
SplineSet
250 -8 m 256,0,1
 190 -8 190 -8 146 17 c 0,2,3
 106 40 106 40 84 80 c 1,4,5
 56 127 56 127 56 195 c 2,6,-1
 56 540 l 2,7,8
 56 608 56 608 84 655 c 1,9,10
 106 695 106 695 146 718 c 0,11,12
 190 743 190 743 250 743 c 256,13,14
 310 743 310 743 353 718 c 0,15,16
 393 695 393 695 416 655 c 0,17,18
 436 621 436 621 441 580 c 1,19,-1
 380 569 l 1,20,21
 376 600 376 600 361 626 c 0,22,23
 345 655 345 655 317 671 c 128,-1,24
 289 687 289 687 250 687 c 256,25,26
 211 687 211 687 182 671 c 0,27,28
 155 655 155 655 139 626 c 1,29,30
 118 591 118 591 118 540 c 2,31,-1
 118 195 l 2,32,33
 118 144 118 144 139 109 c 1,34,35
 155 80 155 80 182 64 c 0,36,37
 211 48 211 48 250 48 c 256,38,39
 289 48 289 48 317 64 c 128,-1,40
 345 80 345 80 361 109 c 0,41,42
 376 135 376 135 380 166 c 1,43,-1
 441 155 l 1,44,45
 436 114 436 114 416 80 c 0,46,47
 393 40 393 40 353 17 c 0,48,49
 310 -8 310 -8 250 -8 c 256,0,1
EndSplineSet
EndChar

StartChar: D
Encoding: 68 68 39
Width: 500
GlyphClass: 2
Flags: W
FFAnchorPoint: "Anchor-5" 436 0 basechar 0
FFAnchorPoint: "Anchor-4" 436 735 basechar 0
FFAnchorPoint: "Anchor-3" 250 367 basechar 0
FFAnchorPoint: "Anchor-2" 250 382 basechar 0
FFAnchorPoint: "Anchor-1" 250 0 basechar 0
FFAnchorPoint: "Anchor-0" 250 735 basechar 0
LayerCount: 2
Fore
SplineSet
64 0 m 1,0,-1
 64 735 l 1,1,-1
 221 735 l 2,2,3
 285 735 285 735 332 708 c 0,4,5
 378 681 378 681 407 631 c 0,6,7
 444 566 444 566 444 472 c 2,8,-1
 444 263 l 2,9,10
 444 169 444 169 407 104 c 0,11,12
 378 54 378 54 332 27 c 0,13,14
 285 0 285 0 221 0 c 2,15,-1
 64 0 l 1,0,-1
126 56 m 1,16,-1
 221 56 l 2,17,18
 264 56 264 56 297 75 c 128,-1,19
 330 94 330 94 352 132 c 0,20,21
 382 184 382 184 382 263 c 2,22,-1
 382 472 l 2,23,24
 382 551 382 551 352 603 c 0,25,26
 330 641 330 641 297 660 c 128,-1,27
 264 679 264 679 221 679 c 2,28,-1
 126 679 l 1,29,-1
 126 56 l 1,16,-1
EndSplineSet
EndChar

StartChar: E
Encoding: 69 69 40
Width: 500
GlyphClass: 2
Flags: W
FFAnchorPoint: "Anchor-5" 436 0 basechar 0
FFAnchorPoint: "Anchor-4" 436 735 basechar 0
FFAnchorPoint: "Anchor-3" 250 367 basechar 0
FFAnchorPoint: "Anchor-2" 250 382 basechar 0
FFAnchorPoint: "Anchor-1" 250 0 basechar 0
FFAnchorPoint: "Anchor-0" 250 735 basechar 0
LayerCount: 2
Fore
SplineSet
96 0 m 1,0,-1
 96 735 l 1,1,-1
 436 735 l 1,2,-1
 436 679 l 1,3,-1
 158 679 l 1,4,-1
 158 425 l 1,5,-1
 380 425 l 1,6,-1
 380 369 l 1,7,-1
 158 369 l 1,8,-1
 158 56 l 1,9,-1
 436 56 l 1,10,-1
 436 0 l 1,11,-1
 96 0 l 1,0,-1
EndSplineSet
EndChar

StartChar: F
Encoding: 70 70 41
Width: 500
GlyphClass: 2
Flags: W
FFAnchorPoint: "Anchor-5" 436 0 basechar 0
FFAnchorPoint: "Anchor-4" 436 735 basechar 0
FFAnchorPoint: "Anchor-3" 250 367 basechar 0
FFAnchorPoint: "Anchor-2" 250 382 basechar 0
FFAnchorPoint: "Anchor-1" 250 0 basechar 0
FFAnchorPoint: "Anchor-0" 250 735 basechar 0
LayerCount: 2
Fore
SplineSet
96 0 m 1,0,-1
 96 735 l 1,1,-1
 436 735 l 1,2,-1
 436 679 l 1,3,-1
 158 679 l 1,4,-1
 158 425 l 1,5,-1
 380 425 l 1,6,-1
 380 369 l 1,7,-1
 158 369 l 1,8,-1
 158 0 l 1,9,-1
 96 0 l 1,0,-1
EndSplineSet
EndChar

StartChar: G
Encoding: 71 71 42
Width: 500
GlyphClass: 2
Flags: W
FFAnchorPoint: "Anchor-5" 436 0 basechar 0
FFAnchorPoint: "Anchor-4" 436 735 basechar 0
FFAnchorPoint: "Anchor-3" 250 367 basechar 0
FFAnchorPoint: "Anchor-2" 250 382 basechar 0
FFAnchorPoint: "Anchor-1" 250 0 basechar 0
FFAnchorPoint: "Anchor-0" 250 735 basechar 0
LayerCount: 2
Fore
SplineSet
249 -8 m 0,0,1
 190 -8 190 -8 147 17 c 0,2,3
 107 40 107 40 83 80 c 1,4,5
 56 128 56 128 56 195 c 2,6,-1
 56 540 l 2,7,8
 56 608 56 608 84 655 c 1,9,10
 106 695 106 695 146 718 c 0,11,12
 190 743 190 743 250 743 c 256,13,14
 310 743 310 743 353 718 c 0,15,16
 393 695 393 695 416 655 c 0,17,18
 436 621 436 621 441 580 c 1,19,-1
 380 569 l 1,20,21
 376 600 376 600 361 626 c 0,22,23
 345 655 345 655 317 671 c 128,-1,24
 289 687 289 687 250 687 c 256,25,26
 211 687 211 687 182 671 c 0,27,28
 155 655 155 655 139 626 c 1,29,30
 118 591 118 591 118 540 c 2,31,-1
 118 195 l 2,32,33
 118 144 118 144 139 109 c 0,34,35
 155 81 155 81 182 64 c 1,36,37
 211 48 211 48 249 48 c 0,38,39
 285 48 285 48 311 63 c 128,-1,40
 337 78 337 78 353 106 c 0,41,42
 374 142 374 142 374 195 c 2,43,-1
 374 340 l 1,44,-1
 250 340 l 1,45,-1
 250 396 l 1,46,-1
 436 396 l 1,47,-1
 436 195 l 2,48,49
 436 126 436 126 408 77 c 0,50,51
 385 38 385 38 347 15 c 1,52,53
 306 -8 306 -8 249 -8 c 0,0,1
EndSplineSet
EndChar

StartChar: H
Encoding: 72 72 43
Width: 500
GlyphClass: 2
Flags: W
FFAnchorPoint: "Anchor-5" 436 0 basechar 0
FFAnchorPoint: "Anchor-4" 436 735 basechar 0
FFAnchorPoint: "Anchor-3" 250 367 basechar 0
FFAnchorPoint: "Anchor-2" 250 382 basechar 0
FFAnchorPoint: "Anchor-1" 250 0 basechar 0
FFAnchorPoint: "Anchor-0" 250 735 basechar 0
LayerCount: 2
Fore
SplineSet
64 0 m 1,0,-1
 64 735 l 1,1,-1
 126 735 l 1,2,-1
 126 414 l 1,3,-1
 374 414 l 1,4,-1
 374 735 l 1,5,-1
 436 735 l 1,6,-1
 436 0 l 1,7,-1
 374 0 l 1,8,-1
 374 358 l 1,9,-1
 126 358 l 1,10,-1
 126 0 l 1,11,-1
 64 0 l 1,0,-1
EndSplineSet
EndChar

StartChar: I
Encoding: 73 73 44
Width: 500
GlyphClass: 2
Flags: W
FFAnchorPoint: "Anchor-5" 436 0 basechar 0
FFAnchorPoint: "Anchor-4" 436 735 basechar 0
FFAnchorPoint: "Anchor-3" 250 367 basechar 0
FFAnchorPoint: "Anchor-2" 250 382 basechar 0
FFAnchorPoint: "Anchor-1" 250 0 basechar 0
FFAnchorPoint: "Anchor-0" 250 735 basechar 0
LayerCount: 2
Fore
SplineSet
110 0 m 1,0,-1
 110 56 l 1,1,-1
 219 56 l 1,2,-1
 219 679 l 1,3,-1
 110 679 l 1,4,-1
 110 735 l 1,5,-1
 390 735 l 1,6,-1
 390 679 l 1,7,-1
 281 679 l 1,8,-1
 281 56 l 1,9,-1
 390 56 l 1,10,-1
 390 0 l 1,11,-1
 110 0 l 1,0,-1
EndSplineSet
EndChar

StartChar: J
Encoding: 74 74 45
Width: 500
GlyphClass: 2
Flags: W
FFAnchorPoint: "Anchor-5" 436 0 basechar 0
FFAnchorPoint: "Anchor-4" 436 735 basechar 0
FFAnchorPoint: "Anchor-3" 250 367 basechar 0
FFAnchorPoint: "Anchor-2" 368 382 basechar 0
FFAnchorPoint: "Anchor-1" 250 0 basechar 0
FFAnchorPoint: "Anchor-0" 368 735 basechar 0
LayerCount: 2
Fore
SplineSet
228 -8 m 0,0,1
 171 -8 171 -8 130 16 c 0,2,3
 92 38 92 38 68 78 c 0,4,5
 48 113 48 113 43 155 c 1,6,-1
 104 167 l 1,7,8
 108 134 108 134 123 106 c 1,9,10
 140 78 140 78 166 63 c 128,-1,11
 192 48 192 48 228 48 c 0,12,13
 263 48 263 48 289.5 63 c 128,-1,14
 316 78 316 78 332 106 c 0,15,16
 353 142 353 142 353 195 c 2,17,-1
 353 679 l 1,18,-1
 209 679 l 1,19,-1
 209 735 l 1,20,-1
 415 735 l 1,21,-1
 415 195 l 2,22,23
 415 126 415 126 387 78 c 0,24,25
 364 38 364 38 326 16 c 0,26,27
 284 -8 284 -8 228 -8 c 0,0,1
EndSplineSet
EndChar

StartChar: K
Encoding: 75 75 46
Width: 500
GlyphClass: 2
Flags: W
FFAnchorPoint: "Anchor-5" 436 0 basechar 0
FFAnchorPoint: "Anchor-4" 436 735 basechar 0
FFAnchorPoint: "Anchor-3" 250 367 basechar 0
FFAnchorPoint: "Anchor-2" 250 382 basechar 0
FFAnchorPoint: "Anchor-1" 250 0 basechar 0
FFAnchorPoint: "Anchor-0" 250 735 basechar 0
LayerCount: 2
Fore
SplineSet
64 0 m 1,0,-1
 64 735 l 1,1,-1
 126 735 l 1,2,-1
 126 366 l 1,3,4
 264 511 264 511 331 629 c 0,5,6
 370 696 370 696 371 735 c 1,7,-1
 436 735 l 1,8,9
 436 692 436 692 391 614 c 0,10,11
 348 539 348 539 281 455 c 1,12,13
 444 115 444 115 444 0 c 1,14,-1
 382 0 l 1,15,16
 382 105 382 105 238 403 c 1,17,18
 187 345 187 345 126 282 c 1,19,-1
 126 0 l 1,20,-1
 64 0 l 1,0,-1
EndSplineSet
EndChar

StartChar: L
Encoding: 76 76 47
Width: 500
GlyphClass: 2
Flags: W
FFAnchorPoint: "Anchor-5" 436 0 basechar 0
FFAnchorPoint: "Anchor-4" 436 735 basechar 0
FFAnchorPoint: "Anchor-3" 250 367 basechar 0
FFAnchorPoint: "Anchor-2" 250 382 basechar 0
FFAnchorPoint: "Anchor-1" 250 0 basechar 0
FFAnchorPoint: "Anchor-0" 250 735 basechar 0
LayerCount: 2
Fore
SplineSet
96 0 m 1,0,-1
 96 735 l 1,1,-1
 158 735 l 1,2,-1
 158 56 l 1,3,-1
 444 56 l 1,4,-1
 444 0 l 1,5,-1
 96 0 l 1,0,-1
EndSplineSet
EndChar

StartChar: M
Encoding: 77 77 48
Width: 500
GlyphClass: 2
Flags: W
FFAnchorPoint: "Anchor-5" 436 0 basechar 0
FFAnchorPoint: "Anchor-4" 436 735 basechar 0
FFAnchorPoint: "Anchor-3" 250 367 basechar 0
FFAnchorPoint: "Anchor-2" 250 382 basechar 0
FFAnchorPoint: "Anchor-1" 250 0 basechar 0
FFAnchorPoint: "Anchor-0" 250 735 basechar 0
LayerCount: 2
Fore
SplineSet
64 0 m 1,0,-1
 64 735 l 1,1,-1
 147 735 l 1,2,-1
 250 334 l 1,3,-1
 353 735 l 1,4,-1
 436 735 l 1,5,-1
 436 0 l 1,6,-1
 374 0 l 1,7,-1
 374 147 l 2,8,9
 374 257 374 257 376 394 c 0,10,11
 377 517 377 517 378 609 c 1,12,-1
 279 221 l 1,13,-1
 221 221 l 1,14,-1
 122 610 l 1,15,16
 122 591 122 591 122 555 c 0,17,18
 123 510 123 510 123 488 c 0,19,20
 126 241 126 241 126 147 c 2,21,-1
 126 0 l 1,22,-1
 64 0 l 1,0,-1
EndSplineSet
EndChar

StartChar: N
Encoding: 78 78 49
Width: 500
GlyphClass: 2
Flags: W
FFAnchorPoint: "Anchor-5" 436 0 basechar 0
FFAnchorPoint: "Anchor-4" 436 735 basechar 0
FFAnchorPoint: "Anchor-3" 250 367 basechar 0
FFAnchorPoint: "Anchor-2" 250 382 basechar 0
FFAnchorPoint: "Anchor-1" 250 0 basechar 0
FFAnchorPoint: "Anchor-0" 250 735 basechar 0
LayerCount: 2
Fore
SplineSet
64 0 m 1,0,-1
 64 735 l 1,1,-1
 154 735 l 1,2,-1
 374 98 l 1,3,-1
 374 735 l 1,4,-1
 436 735 l 1,5,-1
 436 0 l 1,6,-1
 346 0 l 1,7,-1
 126 637 l 1,8,-1
 126 0 l 1,9,-1
 64 0 l 1,0,-1
EndSplineSet
EndChar

StartChar: O
Encoding: 79 79 50
Width: 500
GlyphClass: 2
Flags: W
FFAnchorPoint: "Anchor-5" 436 0 basechar 0
FFAnchorPoint: "Anchor-4" 436 735 basechar 0
FFAnchorPoint: "Anchor-3" 250 367 basechar 0
FFAnchorPoint: "Anchor-2" 250 382 basechar 0
FFAnchorPoint: "Anchor-1" 250 0 basechar 0
FFAnchorPoint: "Anchor-0" 250 735 basechar 0
LayerCount: 2
Fore
SplineSet
250 -8 m 256,0,1
 190 -8 190 -8 147 17 c 0,2,3
 107 40 107 40 83 80 c 1,4,5
 56 128 56 128 56 195 c 2,6,-1
 56 540 l 2,7,8
 56 607 56 607 83 655 c 1,9,10
 107 695 107 695 147 718 c 0,11,12
 190 743 190 743 250 743 c 256,13,14
 310 743 310 743 353 718 c 0,15,16
 393 695 393 695 417 655 c 1,17,18
 444 607 444 607 444 540 c 2,19,-1
 444 195 l 2,20,21
 444 128 444 128 417 80 c 1,22,23
 393 40 393 40 353 17 c 0,24,25
 310 -8 310 -8 250 -8 c 256,0,1
250 48 m 256,26,27
 289 48 289 48 318 64 c 1,28,29
 345 81 345 81 361 109 c 0,30,31
 382 144 382 144 382 195 c 2,32,-1
 382 540 l 2,33,34
 382 591 382 591 361 626 c 0,35,36
 345 654 345 654 318 671 c 1,37,38
 289 687 289 687 250 687 c 256,39,40
 211 687 211 687 182 671 c 1,41,42
 155 654 155 654 139 626 c 0,43,44
 118 591 118 591 118 540 c 2,45,-1
 118 195 l 2,46,47
 118 144 118 144 139 109 c 0,48,49
 155 81 155 81 182 64 c 1,50,51
 211 48 211 48 250 48 c 256,26,27
EndSplineSet
EndChar

StartChar: P
Encoding: 80 80 51
Width: 500
GlyphClass: 2
Flags: W
FFAnchorPoint: "Anchor-5" 436 0 basechar 0
FFAnchorPoint: "Anchor-4" 436 735 basechar 0
FFAnchorPoint: "Anchor-3" 250 367 basechar 0
FFAnchorPoint: "Anchor-2" 250 382 basechar 0
FFAnchorPoint: "Anchor-1" 250 0 basechar 0
FFAnchorPoint: "Anchor-0" 250 735 basechar 0
LayerCount: 2
Fore
SplineSet
80 0 m 1,0,-1
 80 735 l 1,1,-1
 248 735 l 2,2,3
 308 735 308 735 352 710 c 0,4,5
 392 687 392 687 416 645 c 0,6,7
 444 596 444 596 444 526.5 c 128,-1,8
 444 457 444 457 416 408 c 0,9,10
 392 366 392 366 352 344 c 1,11,12
 308 318 308 318 248 318 c 2,13,-1
 142 318 l 1,14,-1
 142 0 l 1,15,-1
 80 0 l 1,0,-1
248 374 m 2,16,17
 287 374 287 374 316 391 c 0,18,19
 343 406 343 406 361 436 c 0,20,21
 382 473 382 473 382 526.5 c 128,-1,22
 382 580 382 580 361 617 c 0,23,24
 343 647 343 647 316 662 c 0,25,26
 287 679 287 679 248 679 c 2,27,-1
 142 679 l 1,28,-1
 142 374 l 1,29,-1
 248 374 l 2,16,17
EndSplineSet
EndChar

StartChar: Q
Encoding: 81 81 52
Width: 500
GlyphClass: 2
Flags: W
FFAnchorPoint: "Anchor-5" 436 0 basechar 0
FFAnchorPoint: "Anchor-4" 436 735 basechar 0
FFAnchorPoint: "Anchor-3" 250 367 basechar 0
FFAnchorPoint: "Anchor-2" 250 382 basechar 0
FFAnchorPoint: "Anchor-1" 250 0 basechar 0
FFAnchorPoint: "Anchor-0" 250 735 basechar 0
LayerCount: 2
Fore
SplineSet
382 -155 m 2,0,1
 329 -155 329 -155 292 -133 c 0,2,3
 260 -115 260 -115 241 -83 c 0,4,5
 222 -50 222 -50 221 -6 c 1,6,7
 179 -2 179 -2 147 17 c 0,8,9
 107 40 107 40 83 80 c 1,10,11
 56 128 56 128 56 195 c 2,12,-1
 56 540 l 2,13,14
 56 607 56 607 83 655 c 1,15,16
 107 695 107 695 147 718 c 0,17,18
 190 743 190 743 250 743 c 256,19,20
 310 743 310 743 353 718 c 0,21,22
 393 695 393 695 417 655 c 1,23,24
 444 607 444 607 444 540 c 2,25,-1
 444 195 l 2,26,27
 444 128 444 128 417 80 c 1,28,29
 393 40 393 40 353 17 c 0,30,31
 323 -1 323 -1 283 -6 c 1,32,33
 285 -34 285 -34 296.5 -54.5 c 128,-1,34
 308 -75 308 -75 328 -86 c 0,35,36
 350 -99 350 -99 382 -99 c 2,37,-1
 420 -99 l 1,38,-1
 420 -155 l 1,39,-1
 382 -155 l 2,0,1
250 48 m 256,40,41
 289 48 289 48 318 64 c 1,42,43
 345 81 345 81 361 109 c 0,44,45
 382 144 382 144 382 195 c 2,46,-1
 382 540 l 2,47,48
 382 591 382 591 361 626 c 0,49,50
 345 654 345 654 318 671 c 1,51,52
 289 687 289 687 250 687 c 256,53,54
 211 687 211 687 182 671 c 1,55,56
 155 654 155 654 139 626 c 0,57,58
 118 591 118 591 118 540 c 2,59,-1
 118 195 l 2,60,61
 118 144 118 144 139 109 c 0,62,63
 155 81 155 81 182 64 c 1,64,65
 211 48 211 48 250 48 c 256,40,41
EndSplineSet
Substitution2: "Single Substitution lookup 122 subtable" Q.cv43
Substitution2: "'ss11' Style Set 11 lookup 121 subtable" Q.ss11
EndChar

StartChar: R
Encoding: 82 82 53
Width: 500
GlyphClass: 2
Flags: W
FFAnchorPoint: "Anchor-5" 436 0 basechar 0
FFAnchorPoint: "Anchor-4" 436 735 basechar 0
FFAnchorPoint: "Anchor-3" 250 367 basechar 0
FFAnchorPoint: "Anchor-2" 126 346 basechar 0
FFAnchorPoint: "Anchor-1" 250 0 basechar 0
FFAnchorPoint: "Anchor-0" 250 735 basechar 0
LayerCount: 2
Fore
SplineSet
64 0 m 1,0,-1
 64 735 l 1,1,-1
 248 735 l 2,2,3
 308 735 308 735 352 710 c 0,4,5
 392 687 392 687 416 645 c 0,6,7
 444 596 444 596 444 526.5 c 128,-1,8
 444 457 444 457 416 408 c 0,9,10
 392 366 392 366 352 344 c 0,11,12
 330 331 330 331 304 325 c 1,13,14
 342 272 342 272 370 223 c 0,15,16
 444 96 444 96 444 0 c 1,17,-1
 382 0 l 1,18,19
 382 85 382 85 317 196 c 0,20,21
 284 253 284 253 234 318 c 1,22,-1
 126 318 l 1,23,-1
 126 0 l 1,24,-1
 64 0 l 1,0,-1
248 374 m 2,25,26
 287 374 287 374 316 391 c 0,27,28
 343 406 343 406 361 436 c 0,29,30
 382 473 382 473 382 526.5 c 128,-1,31
 382 580 382 580 361 617 c 0,32,33
 343 647 343 647 316 662 c 0,34,35
 287 679 287 679 248 679 c 2,36,-1
 126 679 l 1,37,-1
 126 374 l 1,38,-1
 248 374 l 2,25,26
EndSplineSet
EndChar

StartChar: S
Encoding: 83 83 54
Width: 500
GlyphClass: 2
Flags: W
FFAnchorPoint: "Anchor-5" 436 0 basechar 0
FFAnchorPoint: "Anchor-4" 436 735 basechar 0
FFAnchorPoint: "Anchor-3" 250 367 basechar 0
FFAnchorPoint: "Anchor-2" 250 382 basechar 0
FFAnchorPoint: "Anchor-1" 250 0 basechar 0
FFAnchorPoint: "Anchor-0" 250 735 basechar 0
LayerCount: 2
Fore
SplineSet
247 -8 m 0,0,1
 182 -8 182 -8 137 18 c 0,2,3
 101 39 101 39 79 75 c 1,4,5
 59 111 59 111 59 150 c 0,6,7
 59 152 59 152 59 155 c 1,8,-1
 121 162 l 2,9,10
 121 161 121 161 120 157 c 1,11,-1
 120 154 l 1,12,13
 121 127 121 127 134 104 c 0,14,15
 148 80 148 80 173 66 c 0,16,17
 203 48 203 48 247 48 c 0,18,19
 287 48 287 48 316 65 c 1,20,21
 342 79 342 79 357 105 c 0,22,23
 374 135 374 135 374 171.5 c 128,-1,24
 374 208 374 208 354 241 c 1,25,26
 329 285 329 285 258 327 c 0,27,28
 246 334 246 334 238 338 c 128,-1,29
 230 342 230 342 216 350 c 0,30,31
 126 403 126 403 92 461 c 0,32,33
 64 510 64 510 64 562.5 c 128,-1,34
 64 615 64 615 89 658 c 0,35,36
 111 696 111 696 149 718 c 0,37,38
 192 743 192 743 253 743 c 0,39,40
 318 743 318 743 363 717 c 0,41,42
 399 696 399 696 421 660 c 1,43,44
 441 624 441 624 441 585 c 0,45,46
 441 583 441 583 441 580 c 1,47,-1
 379 573 l 2,48,49
 379 574 379 574 380 578 c 1,50,-1
 380 581 l 1,51,52
 379 608 379 608 366 631 c 0,53,54
 352 655 352 655 327 669 c 0,55,56
 297 687 297 687 253 687 c 0,57,58
 213 687 213 687 184 670 c 1,59,60
 158 656 158 656 143 630 c 0,61,62
 126 600 126 600 126 563.5 c 128,-1,63
 126 527 126 527 146 494 c 1,64,65
 171 450 171 450 242 408 c 0,66,67
 254 401 254 401 262 397 c 128,-1,68
 270 393 270 393 284 385 c 0,69,70
 374 332 374 332 408 274 c 0,71,72
 436 225 436 225 436 172.5 c 128,-1,73
 436 120 436 120 411 77 c 0,74,75
 389 39 389 39 351 17 c 0,76,77
 308 -8 308 -8 247 -8 c 0,0,1
EndSplineSet
EndChar

StartChar: T
Encoding: 84 84 55
Width: 500
GlyphClass: 2
Flags: W
FFAnchorPoint: "Anchor-5" 281 0 basechar 0
FFAnchorPoint: "Anchor-4" 436 735 basechar 0
FFAnchorPoint: "Anchor-3" 250 367 basechar 0
FFAnchorPoint: "Anchor-2" 250 382 basechar 0
FFAnchorPoint: "Anchor-1" 250 0 basechar 0
FFAnchorPoint: "Anchor-0" 250 735 basechar 0
LayerCount: 2
Fore
SplineSet
219 0 m 1,0,-1
 219 679 l 1,1,-1
 64 679 l 1,2,-1
 64 735 l 1,3,-1
 436 735 l 1,4,-1
 436 679 l 1,5,-1
 281 679 l 1,6,-1
 281 0 l 1,7,-1
 219 0 l 1,0,-1
EndSplineSet
EndChar

StartChar: U
Encoding: 85 85 56
Width: 500
GlyphClass: 2
Flags: W
FFAnchorPoint: "Anchor-5" 436 0 basechar 0
FFAnchorPoint: "Anchor-4" 436 735 basechar 0
FFAnchorPoint: "Anchor-3" 250 367 basechar 0
FFAnchorPoint: "Anchor-2" 250 382 basechar 0
FFAnchorPoint: "Anchor-1" 250 0 basechar 0
FFAnchorPoint: "Anchor-0" 250 735 basechar 0
LayerCount: 2
Fore
SplineSet
250 -8 m 256,0,1
 194 -8 194 -8 153 15 c 1,2,3
 115 38 115 38 92 77 c 0,4,5
 64 126 64 126 64 195 c 2,6,-1
 64 735 l 1,7,-1
 126 735 l 1,8,-1
 126 195 l 2,9,10
 126 142 126 142 147 106 c 0,11,12
 163 78 163 78 189 63 c 128,-1,13
 215 48 215 48 250 48 c 256,14,15
 285 48 285 48 311 63 c 128,-1,16
 337 78 337 78 353 106 c 0,17,18
 374 142 374 142 374 195 c 2,19,-1
 374 735 l 1,20,-1
 436 735 l 1,21,-1
 436 195 l 2,22,23
 436 126 436 126 408 77 c 0,24,25
 385 38 385 38 347 15 c 1,26,27
 306 -8 306 -8 250 -8 c 256,0,1
EndSplineSet
EndChar

StartChar: V
Encoding: 86 86 57
Width: 500
GlyphClass: 2
Flags: W
FFAnchorPoint: "Anchor-5" 436 0 basechar 0
FFAnchorPoint: "Anchor-4" 436 735 basechar 0
FFAnchorPoint: "Anchor-3" 250 367 basechar 0
FFAnchorPoint: "Anchor-2" 250 382 basechar 0
FFAnchorPoint: "Anchor-1" 250 0 basechar 0
FFAnchorPoint: "Anchor-0" 250 735 basechar 0
LayerCount: 2
Fore
SplineSet
219 0 m 1,0,1
 64 462 64 462 64 662 c 2,2,-1
 64 735 l 1,3,-1
 126 735 l 1,4,-1
 126 662 l 2,5,6
 126 482 126 482 250 85 c 1,7,8
 374 482 374 482 374 662 c 2,9,-1
 374 735 l 1,10,-1
 436 735 l 1,11,-1
 436 662 l 2,12,13
 436 462 436 462 281 0 c 1,14,-1
 219 0 l 1,0,1
EndSplineSet
EndChar

StartChar: W
Encoding: 87 87 58
Width: 500
GlyphClass: 2
Flags: W
FFAnchorPoint: "Anchor-5" 436 0 basechar 0
FFAnchorPoint: "Anchor-4" 436 735 basechar 0
FFAnchorPoint: "Anchor-3" 250 367 basechar 0
FFAnchorPoint: "Anchor-2" 250 382 basechar 0
FFAnchorPoint: "Anchor-1" 250 0 basechar 0
FFAnchorPoint: "Anchor-0" 250 735 basechar 0
LayerCount: 2
Fore
SplineSet
139 0 m 1,0,1
 64 383 64 383 64 551 c 2,2,-1
 64 735 l 1,3,-1
 126 735 l 1,4,-1
 126 551 l 2,5,6
 126 412 126 412 162 121 c 1,7,-1
 226 441 l 1,8,-1
 274 441 l 1,9,-1
 338 121 l 1,10,11
 374 412 374 412 374 551 c 2,12,-1
 374 735 l 1,13,-1
 436 735 l 1,14,-1
 436 551 l 2,15,16
 436 383 436 383 361 0 c 1,17,-1
 314 0 l 1,18,-1
 250 321 l 1,19,-1
 186 0 l 1,20,-1
 139 0 l 1,0,1
EndSplineSet
EndChar

StartChar: X
Encoding: 88 88 59
Width: 500
GlyphClass: 2
Flags: W
FFAnchorPoint: "Anchor-5" 436 0 basechar 0
FFAnchorPoint: "Anchor-4" 436 735 basechar 0
FFAnchorPoint: "Anchor-3" 250 367 basechar 0
FFAnchorPoint: "Anchor-2" 250 382 basechar 0
FFAnchorPoint: "Anchor-1" 250 0 basechar 0
FFAnchorPoint: "Anchor-0" 250 735 basechar 0
LayerCount: 2
Fore
SplineSet
64 0 m 1,0,-1
 64 37 l 2,1,2
 64 125 64 125 116 216 c 0,3,4
 118 219 118 219 122 226 c 0,5,6
 128 235 128 235 131 240 c 2,7,-1
 214 368 l 1,8,-1
 131 495 l 2,9,10
 128 500 128 500 122 509 c 0,11,12
 118 516 118 516 116 519 c 0,13,14
 64 610 64 610 64 698 c 2,15,-1
 64 735 l 1,16,-1
 126 735 l 1,17,-1
 126 698 l 2,18,19
 126 613 126 613 183 526 c 2,20,-1
 250 423 l 1,21,-1
 317 526 l 2,22,23
 374 613 374 613 374 698 c 2,24,-1
 374 735 l 1,25,-1
 436 735 l 1,26,-1
 436 698 l 2,27,28
 436 610 436 610 384 519 c 0,29,30
 382 516 382 516 378 509 c 0,31,32
 372 500 372 500 369 495 c 2,33,-1
 286 368 l 1,34,-1
 369 240 l 2,35,36
 372 235 372 235 378 226 c 0,37,38
 382 219 382 219 384 216 c 0,39,40
 436 125 436 125 436 37 c 2,41,-1
 436 0 l 1,42,-1
 374 0 l 1,43,-1
 374 37 l 2,44,45
 374 122 374 122 317 209 c 2,46,-1
 250 312 l 1,47,-1
 183 209 l 2,48,49
 126 122 126 122 126 37 c 2,50,-1
 126 0 l 1,51,-1
 64 0 l 1,0,-1
EndSplineSet
EndChar

StartChar: Y
Encoding: 89 89 60
Width: 500
GlyphClass: 2
Flags: W
FFAnchorPoint: "Anchor-5" 436 0 basechar 0
FFAnchorPoint: "Anchor-4" 436 735 basechar 0
FFAnchorPoint: "Anchor-3" 250 367 basechar 0
FFAnchorPoint: "Anchor-2" 250 294 basechar 0
FFAnchorPoint: "Anchor-1" 250 0 basechar 0
FFAnchorPoint: "Anchor-0" 250 735 basechar 0
LayerCount: 2
Fore
SplineSet
219 0 m 1,0,-1
 219 288 l 1,1,-1
 130 452 l 2,2,3
 64 573 64 573 64 691 c 2,4,-1
 64 735 l 1,5,-1
 126 735 l 1,6,-1
 126 691 l 2,7,8
 126 586 126 586 184 479 c 2,9,-1
 250 357 l 1,10,-1
 316 479 l 2,11,12
 374 586 374 586 374 691 c 2,13,-1
 374 735 l 1,14,-1
 436 735 l 1,15,-1
 436 691 l 2,16,17
 436 573 436 573 370 452 c 2,18,-1
 281 288 l 1,19,-1
 281 0 l 1,20,-1
 219 0 l 1,0,-1
EndSplineSet
EndChar

StartChar: Z
Encoding: 90 90 61
Width: 500
GlyphClass: 2
Flags: W
FFAnchorPoint: "Anchor-5" 436 0 basechar 0
FFAnchorPoint: "Anchor-4" 436 735 basechar 0
FFAnchorPoint: "Anchor-3" 250 367 basechar 0
FFAnchorPoint: "Anchor-2" 250 382 basechar 0
FFAnchorPoint: "Anchor-1" 250 0 basechar 0
FFAnchorPoint: "Anchor-0" 250 735 basechar 0
LayerCount: 2
Fore
SplineSet
64 0 m 1,0,-1
 64 56 l 1,1,-1
 364 679 l 1,2,-1
 64 679 l 1,3,-1
 64 735 l 1,4,-1
 436 735 l 1,5,-1
 436 679 l 1,6,-1
 136 56 l 1,7,-1
 436 56 l 1,8,-1
 436 0 l 1,9,-1
 64 0 l 1,0,-1
EndSplineSet
EndChar

StartChar: bracketleft
Encoding: 91 91 62
Width: 500
GlyphClass: 2
Flags: W
LayerCount: 2
Fore
SplineSet
101 -168 m 1,0,-1
 101 898 l 1,1,-1
 417 898 l 1,2,-1
 417 842 l 1,3,-1
 163 842 l 1,4,-1
 163 -112 l 1,5,-1
 417 -112 l 1,6,-1
 417 -168 l 1,7,-1
 101 -168 l 1,0,-1
EndSplineSet
EndChar

StartChar: backslash
Encoding: 92 92 63
Width: 500
GlyphClass: 2
Flags: W
LayerCount: 2
Fore
SplineSet
376 -168 m 1,0,-1
 60 898 l 1,1,-1
 124 898 l 1,2,-1
 440 -168 l 1,3,-1
 376 -168 l 1,0,-1
EndSplineSet
Substitution2: "Single Substitution lookup 82 subtable" glyph3103
Substitution2: "Single Substitution lookup 81 subtable" glyph3104
EndChar

StartChar: bracketright
Encoding: 93 93 64
Width: 500
GlyphClass: 2
Flags: W
LayerCount: 2
Fore
SplineSet
83 -168 m 1,0,-1
 83 -112 l 1,1,-1
 337 -112 l 1,2,-1
 337 842 l 1,3,-1
 83 842 l 1,4,-1
 83 898 l 1,5,-1
 399 898 l 1,6,-1
 399 -168 l 1,7,-1
 83 -168 l 1,0,-1
EndSplineSet
EndChar

StartChar: asciicircum
Encoding: 94 94 65
Width: 500
GlyphClass: 2
Flags: W
LayerCount: 2
Fore
SplineSet
124 546 m 1,0,-1
 72 580 l 1,1,-1
 217 772 l 1,2,-1
 283 772 l 1,3,-1
 428 580 l 1,4,-1
 376 546 l 1,5,-1
 250 725 l 1,6,-1
 124 546 l 1,0,-1
EndSplineSet
Substitution2: "Single Substitution lookup 150 subtable" asciicircum.cv30
Substitution2: "'ss11' Style Set 11 lookup 149 subtable" asciicircum.ss11
Substitution2: "Single Substitution lookup 85 subtable" asciicircum.cv30
Substitution2: "Single Substitution lookup 45 subtable" asciicircum.cv30
Substitution2: "Single Substitution lookup 43 subtable" asciicircum.cv30
EndChar

StartChar: underscore
Encoding: 95 95 66
Width: 500
GlyphClass: 2
Flags: W
LayerCount: 2
Fore
SplineSet
64 0 m 1,0,-1
 64 56 l 1,1,-1
 436 56 l 1,2,-1
 436 0 l 1,3,-1
 64 0 l 1,0,-1
EndSplineSet
Substitution2: "'ss10' Style Set 10 lookup 146 subtable" underscore.ss10
Substitution2: "'ss11' Style Set 11 lookup 145 subtable" underscore.ss11
EndChar

StartChar: grave
Encoding: 96 96 67
Width: 500
GlyphClass: 2
Flags: W
LayerCount: 2
Fore
SplineSet
267 544 m 1,0,-1
 100 739 l 1,1,-1
 152 778 l 1,2,-1
 310 576 l 1,3,-1
 267 544 l 1,0,-1
EndSplineSet
EndChar

StartChar: a
Encoding: 97 97 68
Width: 500
GlyphClass: 2
Flags: W
FFAnchorPoint: "Anchor-6" 408 0 basechar 0
FFAnchorPoint: "Anchor-5" 436 0 basechar 0
FFAnchorPoint: "Anchor-4" 436 530 basechar 0
FFAnchorPoint: "Anchor-3" 250 265 basechar 0
FFAnchorPoint: "Anchor-2" 250 275 basechar 0
FFAnchorPoint: "Anchor-1" 250 0 basechar 0
FFAnchorPoint: "Anchor-0" 250 530 basechar 0
LayerCount: 2
Fore
SplineSet
212 -8 m 0,0,1
 161 -8 161 -8 126 12 c 0,2,3
 95 30 95 30 76 62 c 0,4,5
 56 97 56 97 56 145 c 0,6,7
 56 189 56 189 74 222 c 1,8,9
 95 256 95 256 133 278 c 0,10,11
 186 309 186 309 269 309 c 2,12,-1
 374 309 l 1,13,-1
 374 361 l 2,14,15
 374 399 374 399 358 426 c 0,16,17
 344 450 344 450 319 465 c 0,18,19
 289 482 289 482 247 482 c 0,20,21
 204 482 204 482 173 464 c 0,22,23
 149 450 149 450 135 426 c 0,24,25
 124 407 124 407 122 386 c 1,26,-1
 62 400 l 1,27,28
 65 428 65 428 80 455 c 1,29,30
 102 491 102 491 137 512 c 0,31,32
 182 538 182 538 247 538 c 0,33,34
 310 538 310 538 355 512 c 0,35,36
 392 491 392 491 413 455 c 0,37,38
 436 415 436 415 436 361 c 2,39,-1
 436 0 l 1,40,-1
 374 0 l 1,41,-1
 374 80 l 1,42,43
 351 40 351 40 311 17 c 0,44,45
 269 -8 269 -8 212 -8 c 0,0,1
228 48 m 0,46,47
 273 48 273 48 307 67 c 1,48,49
 336 85 336 85 354 115 c 0,50,51
 374 149 374 149 374 198 c 2,52,-1
 374 253 l 1,53,-1
 269 253 l 2,54,55
 208 253 208 253 169 231 c 0,56,57
 143 216 143 216 130 193 c 0,58,59
 118 173 118 173 118 146 c 0,60,61
 118 116 118 116 131 96 c 1,62,63
 142 75 142 75 164 63 c 1,64,65
 189 48 189 48 228 48 c 0,46,47
EndSplineSet
Substitution2: "'ss11' Style Set 11 lookup 117 subtable" a.ss11
Substitution2: "'ss07' Style Set 7 lookup 116 subtable" a.ss07
EndChar

StartChar: b
Encoding: 98 98 69
Width: 500
GlyphClass: 2
Flags: W
FFAnchorPoint: "Anchor-5" 436 0 basechar 0
FFAnchorPoint: "Anchor-4" 436 735 basechar 0
FFAnchorPoint: "Anchor-3" 250 367 basechar 0
FFAnchorPoint: "Anchor-2" 250 382 basechar 0
FFAnchorPoint: "Anchor-1" 250 0 basechar 0
FFAnchorPoint: "Anchor-0" 250 735 basechar 0
LayerCount: 2
Fore
SplineSet
267 -8 m 0,0,1
 223 -8 223 -8 190 11 c 0,2,3
 155 32 155 32 131 72 c 0,4,5
 128 77 128 77 126 81 c 1,6,-1
 126 0 l 1,7,-1
 64 0 l 1,8,-1
 64 735 l 1,9,-1
 126 735 l 1,10,-1
 126 449 l 1,11,12
 128 453 128 453 131 458 c 0,13,14
 155 498 155 498 190 519 c 0,15,16
 223 538 223 538 267 538 c 0,17,18
 314 538 314 538 349 518 c 0,19,20
 387 496 387 496 411 455 c 0,21,22
 444 397 444 397 444 310 c 2,23,-1
 444 220 l 2,24,25
 444 133 444 133 411 75 c 0,26,27
 387 34 387 34 349 12 c 0,28,29
 314 -8 314 -8 267 -8 c 0,0,1
251 48 m 0,30,31
 285 48 285 48 311 63 c 0,32,33
 338 79 338 79 357 110 c 1,34,35
 382 154 382 154 382 220 c 2,36,-1
 382 310 l 2,37,38
 382 376 382 376 357 420 c 1,39,40
 338 451 338 451 311 467 c 0,41,42
 285 482 285 482 251 482 c 0,43,44
 219 482 219 482 195 468 c 0,45,46
 169 453 169 453 152 423 c 0,47,48
 126 379 126 379 126 310 c 2,49,-1
 126 220 l 2,50,51
 126 151 126 151 152 107 c 0,52,53
 169 77 169 77 195 62 c 0,54,55
 219 48 219 48 251 48 c 0,30,31
EndSplineSet
EndChar

StartChar: c
Encoding: 99 99 70
Width: 500
GlyphClass: 2
Flags: W
FFAnchorPoint: "Anchor-5" 436 0 basechar 0
FFAnchorPoint: "Anchor-4" 436 530 basechar 0
FFAnchorPoint: "Anchor-3" 250 265 basechar 0
FFAnchorPoint: "Anchor-2" 250 275 basechar 0
FFAnchorPoint: "Anchor-1" 250 0 basechar 0
FFAnchorPoint: "Anchor-0" 250 530 basechar 0
LayerCount: 2
Fore
SplineSet
251 -8 m 256,0,1
 195 -8 195 -8 154 15.5 c 128,-1,2
 113 39 113 39 88 83 c 0,3,4
 56 139 56 139 56 220 c 2,5,-1
 56 310 l 2,6,7
 56 391 56 391 88 447 c 0,8,9
 113 491 113 491 154 514.5 c 128,-1,10
 195 538 195 538 251 538 c 256,11,12
 307 538 307 538 349 514 c 0,13,14
 389 491 389 491 415 447 c 0,15,16
 434 414 434 414 441 375 c 1,17,-1
 382 357 l 1,18,19
 376 392 376 392 360 419 c 1,20,21
 343 450 343 450 314 467 c 0,22,23
 287 482 287 482 251 482 c 0,24,25
 216 482 216 482 188.5 466 c 128,-1,26
 161 450 161 450 143 419 c 0,27,28
 118 376 118 376 118 310 c 2,29,-1
 118 220 l 2,30,31
 118 154 118 154 143 111 c 0,32,33
 161 80 161 80 188.5 64 c 128,-1,34
 216 48 216 48 251 48 c 0,35,36
 287 48 287 48 314 63 c 0,37,38
 343 80 343 80 360 111 c 1,39,40
 376 138 376 138 382 173 c 1,41,-1
 441 155 l 1,42,43
 434 116 434 116 415 83 c 0,44,45
 389 39 389 39 349 16 c 0,46,47
 307 -8 307 -8 251 -8 c 256,0,1
EndSplineSet
EndChar

StartChar: d
Encoding: 100 100 71
Width: 500
GlyphClass: 2
Flags: W
FFAnchorPoint: "Anchor-5" 436 0 basechar 0
FFAnchorPoint: "Anchor-4" 436 735 basechar 0
FFAnchorPoint: "Anchor-3" 250 367 basechar 0
FFAnchorPoint: "Anchor-2" 250 382 basechar 0
FFAnchorPoint: "Anchor-1" 250 0 basechar 0
FFAnchorPoint: "Anchor-0" 250 735 basechar 0
LayerCount: 2
Fore
SplineSet
233 -8 m 0,0,1
 186 -8 186 -8 151 12 c 0,2,3
 113 34 113 34 89 75 c 0,4,5
 56 133 56 133 56 220 c 2,6,-1
 56 310 l 2,7,8
 56 397 56 397 89 455 c 0,9,10
 113 496 113 496 151 518 c 0,11,12
 186 538 186 538 233 538 c 0,13,14
 277 538 277 538 310 519 c 0,15,16
 345 498 345 498 369 458 c 0,17,18
 372 453 372 453 374 449 c 1,19,-1
 374 735 l 1,20,-1
 436 735 l 1,21,-1
 436 0 l 1,22,-1
 374 0 l 1,23,-1
 374 81 l 1,24,25
 372 77 372 77 369 72 c 0,26,27
 345 32 345 32 310 11 c 0,28,29
 277 -8 277 -8 233 -8 c 0,0,1
249 48 m 0,30,31
 281 48 281 48 305 62 c 0,32,33
 331 77 331 77 348 107 c 0,34,35
 374 151 374 151 374 220 c 2,36,-1
 374 310 l 2,37,38
 374 379 374 379 348 423 c 0,39,40
 331 453 331 453 305 468 c 0,41,42
 281 482 281 482 249 482 c 0,43,44
 215 482 215 482 189 467 c 0,45,46
 162 451 162 451 143 420 c 1,47,48
 118 376 118 376 118 310 c 2,49,-1
 118 220 l 2,50,51
 118 154 118 154 143 110 c 1,52,53
 162 79 162 79 189 63 c 0,54,55
 215 48 215 48 249 48 c 0,30,31
EndSplineSet
EndChar

StartChar: e
Encoding: 101 101 72
Width: 500
GlyphClass: 2
Flags: W
FFAnchorPoint: "Anchor-5" 436 0 basechar 0
FFAnchorPoint: "Anchor-4" 436 530 basechar 0
FFAnchorPoint: "Anchor-3" 250 265 basechar 0
FFAnchorPoint: "Anchor-2" 250 275 basechar 0
FFAnchorPoint: "Anchor-1" 250 0 basechar 0
FFAnchorPoint: "Anchor-0" 250 530 basechar 0
LayerCount: 2
Fore
SplineSet
257 -8 m 0,0,1
 198 -8 198 -8 155 17 c 0,2,3
 113 41 113 41 88 85 c 0,4,5
 56 140 56 140 56 220 c 2,6,-1
 56 310 l 2,7,8
 56 392 56 392 88 448 c 0,9,10
 113 491 113 491 154 514.5 c 128,-1,11
 195 538 195 538 250 538 c 256,12,13
 305 538 305 538 346 514.5 c 128,-1,14
 387 491 387 491 412 448 c 0,15,16
 444 392 444 392 444 310 c 2,17,-1
 444 237 l 1,18,-1
 118 237 l 1,19,-1
 118 220 l 2,20,21
 118 156 118 156 143 113 c 0,22,23
 161 81 161 81 190 64.5 c 128,-1,24
 219 48 219 48 257 48 c 256,25,26
 295 48 295 48 324 65 c 128,-1,27
 353 82 353 82 372 114 c 0,28,29
 383 133 383 133 388 153 c 1,30,-1
 445 130 l 1,31,32
 437 105 437 105 425 85 c 0,33,34
 400 41 400 41 357.5 16.5 c 128,-1,35
 315 -8 315 -8 257 -8 c 0,0,1
118 293 m 1,36,-1
 382 293 l 1,37,-1
 382 310 l 2,38,39
 382 376 382 376 357 420 c 1,40,41
 338 451 338 451 311 467 c 0,42,43
 285 482 285 482 250 482 c 256,44,45
 215 482 215 482 189 467 c 0,46,47
 162 451 162 451 143 420 c 1,48,49
 118 376 118 376 118 310 c 2,50,-1
 118 293 l 1,36,-1
EndSplineSet
EndChar

StartChar: f
Encoding: 102 102 73
Width: 500
GlyphClass: 2
Flags: W
FFAnchorPoint: "Anchor-5" 436 0 basechar 0
FFAnchorPoint: "Anchor-4" 436 735 basechar 0
FFAnchorPoint: "Anchor-3" 250 367 basechar 0
FFAnchorPoint: "Anchor-2" 250 382 basechar 0
FFAnchorPoint: "Anchor-1" 250 0 basechar 0
FFAnchorPoint: "Anchor-0" 250 735 basechar 0
LayerCount: 2
Fore
SplineSet
179 0 m 1,0,-1
 179 440 l 1,1,-1
 64 440 l 1,2,-1
 64 496 l 1,3,-1
 179 496 l 1,4,-1
 179 595 l 1,5,6
 178 653 178 653 202 694 c 0,7,8
 220 725 220 725 249.5 742 c 128,-1,9
 279 759 279 759 319 759 c 256,10,11
 359 759 359 759 388 742 c 128,-1,12
 417 725 417 725 436 694 c 1,13,14
 451 667 451 667 456 635 c 1,15,-1
 396 619 l 1,16,17
 393 646 393 646 381 666 c 0,18,19
 371 684 371 684 354 694 c 0,20,21
 338 703 338 703 319 703 c 0,22,23
 299 703 299 703 284 694 c 0,24,25
 268 685 268 685 257 666 c 0,26,27
 241 638 241 638 241 595 c 2,28,-1
 241 496 l 1,29,-1
 417 496 l 1,30,-1
 417 440 l 1,31,-1
 241 440 l 1,32,-1
 241 0 l 1,33,-1
 179 0 l 1,0,-1
EndSplineSet
EndChar

StartChar: g
Encoding: 103 103 74
Width: 500
GlyphClass: 2
Flags: W
FFAnchorPoint: "Anchor-5" 436 -205 basechar 0
FFAnchorPoint: "Anchor-4" 436 530 basechar 0
FFAnchorPoint: "Anchor-3" 250 162 basechar 0
FFAnchorPoint: "Anchor-2" 250 177 basechar 0
FFAnchorPoint: "Anchor-1" 250 -205 basechar 0
FFAnchorPoint: "Anchor-0" 250 530 basechar 0
LayerCount: 2
Fore
SplineSet
238 -213 m 256,0,1
 181 -213 181 -213 138 -189 c 1,2,3
 97 -164 97 -164 72 -121 c 0,4,5
 65 -109 65 -109 59 -95 c 1,6,-1
 115 -70 l 1,7,8
 119 -82 119 -82 126 -93 c 0,9,10
 143 -124 143 -124 171.5 -140.5 c 128,-1,11
 200 -157 200 -157 238 -157 c 0,12,13
 275 -157 275 -157 302 -141 c 0,14,15
 330 -125 330 -125 349 -93 c 0,16,17
 374 -50 374 -50 374 15 c 2,18,-1
 374 81 l 1,19,20
 372 77 372 77 369 72 c 0,21,22
 345 32 345 32 310 11 c 0,23,24
 277 -8 277 -8 233 -8 c 0,25,26
 186 -8 186 -8 151 12 c 0,27,28
 113 34 113 34 89 75 c 0,29,30
 56 133 56 133 56 220 c 2,31,-1
 56 310 l 2,32,33
 56 397 56 397 89 455 c 0,34,35
 113 496 113 496 151 518 c 0,36,37
 186 538 186 538 233 538 c 0,38,39
 277 538 277 538 310 519 c 0,40,41
 345 498 345 498 369 458 c 0,42,43
 372 453 372 453 374 449 c 1,44,-1
 374 530 l 1,45,-1
 436 530 l 1,46,-1
 436 15 l 2,47,48
 436 -66 436 -66 404 -121 c 0,49,50
 379 -165 379 -165 337 -189 c 128,-1,51
 295 -213 295 -213 238 -213 c 256,0,1
249 48 m 0,52,53
 281 48 281 48 305 62 c 0,54,55
 331 77 331 77 348 107 c 0,56,57
 374 151 374 151 374 220 c 2,58,-1
 374 310 l 2,59,60
 374 379 374 379 348 423 c 0,61,62
 331 453 331 453 305 468 c 0,63,64
 281 482 281 482 249 482 c 0,65,66
 215 482 215 482 189 467 c 0,67,68
 162 451 162 451 143 420 c 1,69,70
 118 376 118 376 118 310 c 2,71,-1
 118 220 l 2,72,73
 118 154 118 154 143 110 c 1,74,75
 162 79 162 79 189 63 c 0,76,77
 215 48 215 48 249 48 c 0,52,53
EndSplineSet
Substitution2: "'ss05' Style Set 5 lookup 120 subtable" g.ss05
Substitution2: "'ss09' Style Set 9 lookup 119 subtable" g.ss09
Substitution2: "'ss11' Style Set 11 lookup 118 subtable" g.ss11
EndChar

StartChar: h
Encoding: 104 104 75
Width: 500
GlyphClass: 2
Flags: W
FFAnchorPoint: "Anchor-5" 436 0 basechar 0
FFAnchorPoint: "Anchor-4" 436 735 basechar 0
FFAnchorPoint: "Anchor-3" 250 367 basechar 0
FFAnchorPoint: "Anchor-2" 250 382 basechar 0
FFAnchorPoint: "Anchor-1" 250 0 basechar 0
FFAnchorPoint: "Anchor-0" 250 735 basechar 0
LayerCount: 2
Fore
SplineSet
64 0 m 1,0,-1
 64 735 l 1,1,-1
 126 735 l 1,2,-1
 126 449 l 1,3,4
 128 453 128 453 131 458 c 0,5,6
 155 498 155 498 190 519 c 0,7,8
 223 538 223 538 267 538 c 0,9,10
 310 538 310 538 343 519 c 0,11,12
 379 498 379 498 402 458 c 0,13,14
 436 400 436 400 436 310 c 2,15,-1
 436 0 l 1,16,-1
 374 0 l 1,17,-1
 374 310 l 2,18,19
 374 379 374 379 348 423 c 0,20,21
 331 453 331 453 305 468 c 0,22,23
 281 482 281 482 250 482 c 256,24,25
 219 482 219 482 195 468 c 0,26,27
 169 453 169 453 152 423 c 0,28,29
 126 379 126 379 126 310 c 2,30,-1
 126 0 l 1,31,-1
 64 0 l 1,0,-1
EndSplineSet
EndChar

StartChar: i
Encoding: 105 105 76
Width: 500
GlyphClass: 2
Flags: W
FFAnchorPoint: "Anchor-5" 436 0 basechar 0
FFAnchorPoint: "Anchor-4" 436 530 basechar 0
FFAnchorPoint: "Anchor-3" 250 265 basechar 0
FFAnchorPoint: "Anchor-2" 250 275 basechar 0
FFAnchorPoint: "Anchor-1" 250 0 basechar 0
FFAnchorPoint: "Anchor-0" 250 743 basechar 0
LayerCount: 2
Fore
SplineSet
250 635 m 256,0,1
 227 635 227 635 214 649 c 1,2,3
 200 662 200 662 200 685 c 128,-1,4
 200 708 200 708 214 721 c 1,5,6
 227 735 227 735 250 735 c 256,7,8
 273 735 273 735 286 721 c 1,9,10
 300 708 300 708 300 685 c 128,-1,11
 300 662 300 662 286 649 c 1,12,13
 273 635 273 635 250 635 c 256,0,1
75 0 m 1,14,-1
 75 56 l 1,15,-1
 226 56 l 1,16,-1
 226 474 l 1,17,-1
 89 474 l 1,18,-1
 89 530 l 1,19,-1
 288 530 l 1,20,-1
 288 56 l 1,21,-1
 425 56 l 1,22,-1
 425 0 l 1,23,-1
 75 0 l 1,14,-1
EndSplineSet
Substitution2: "'cv04' Character Variants 04 lookup 109 subtable" i.cv04
Substitution2: "'ss11' Style Set 11 lookup 108 subtable" i.ss11
Substitution2: "'ss07' Style Set 7 lookup 107 subtable" i.ss07
Substitution2: "'ss10' Style Set 10 lookup 106 subtable" i.ss10
Substitution2: "Single Substitution lookup 35 subtable" dotlessi
EndChar

StartChar: j
Encoding: 106 106 77
Width: 500
GlyphClass: 2
Flags: W
FFAnchorPoint: "Anchor-5" 436 -205 basechar 0
FFAnchorPoint: "Anchor-4" 436 530 basechar 0
FFAnchorPoint: "Anchor-3" 250 162 basechar 0
FFAnchorPoint: "Anchor-2" 302 265 basechar 0
FFAnchorPoint: "Anchor-1" 250 -205 basechar 0
FFAnchorPoint: "Anchor-0" 302 743 basechar 0
LayerCount: 2
Fore
SplineSet
303 635 m 256,0,1
 280 635 280 635 266.5 648.5 c 128,-1,2
 253 662 253 662 253 685 c 128,-1,3
 253 708 253 708 266.5 721.5 c 128,-1,4
 280 735 280 735 303 735 c 256,5,6
 326 735 326 735 339.5 721.5 c 128,-1,7
 353 708 353 708 353 685 c 128,-1,8
 353 662 353 662 339.5 648.5 c 128,-1,9
 326 635 326 635 303 635 c 256,0,1
180 -213 m 0,10,11
 136 -213 136 -213 102 -193.5 c 128,-1,12
 68 -174 68 -174 46 -136 c 0,13,14
 29 -106 29 -106 22 -70 c 1,15,-1
 80 -51 l 1,16,17
 86 -84 86 -84 100 -108.5 c 128,-1,18
 114 -133 114 -133 136 -146 c 0,19,20
 155 -157 155 -157 180 -157 c 256,21,22
 205 -157 205 -157 224 -146 c 0,23,24
 245 -134 245 -134 260 -109 c 0,25,26
 282 -70 282 -70 282 -10 c 2,27,-1
 282 474 l 1,28,-1
 138 474 l 1,29,-1
 138 530 l 1,30,-1
 344 530 l 1,31,-1
 344 -10 l 2,32,33
 344 -85 344 -85 315 -136 c 0,34,35
 293 -174 293 -174 259 -193.5 c 128,-1,36
 225 -213 225 -213 180 -213 c 0,10,11
EndSplineSet
Substitution2: "Single Substitution lookup 35 subtable" uni0237
EndChar

StartChar: k
Encoding: 107 107 78
Width: 500
GlyphClass: 2
Flags: W
FFAnchorPoint: "Anchor-5" 436 0 basechar 0
FFAnchorPoint: "Anchor-4" 436 735 basechar 0
FFAnchorPoint: "Anchor-3" 250 367 basechar 0
FFAnchorPoint: "Anchor-2" 250 382 basechar 0
FFAnchorPoint: "Anchor-1" 250 0 basechar 0
FFAnchorPoint: "Anchor-0" 250 735 basechar 0
LayerCount: 2
Fore
SplineSet
64 0 m 1,0,-1
 64 735 l 1,1,-1
 126 735 l 1,2,-1
 126 274 l 1,3,4
 308 406 308 406 358 494 c 0,5,6
 370 515 370 515 371 530 c 1,7,-1
 436 530 l 1,8,9
 436 512 436 512 420 484 c 0,10,11
 381 417 381 417 283 329 c 1,12,13
 328 260 328 260 363 200 c 0,14,15
 444 59 444 59 444 0 c 1,16,-1
 382 0 l 1,17,18
 382 50 382 50 316 164 c 0,19,20
 283 221 283 221 237 289 c 1,21,22
 187 248 187 248 126 203 c 1,23,-1
 126 0 l 1,24,-1
 64 0 l 1,0,-1
EndSplineSet
EndChar

StartChar: l
Encoding: 108 108 79
Width: 500
GlyphClass: 2
Flags: W
FFAnchorPoint: "Anchor-5" 436 0 basechar 0
FFAnchorPoint: "Anchor-4" 436 735 basechar 0
FFAnchorPoint: "Anchor-3" 250 367 basechar 0
FFAnchorPoint: "Anchor-2" 253 382 basechar 0
FFAnchorPoint: "Anchor-1" 250 0 basechar 0
FFAnchorPoint: "Anchor-0" 250 735 basechar 0
LayerCount: 2
Fore
SplineSet
75 0 m 1,0,-1
 75 56 l 1,1,-1
 226 56 l 1,2,-1
 226 679 l 1,3,-1
 89 679 l 1,4,-1
 89 735 l 1,5,-1
 288 735 l 1,6,-1
 288 56 l 1,7,-1
 425 56 l 1,8,-1
 425 0 l 1,9,-1
 75 0 l 1,0,-1
EndSplineSet
Substitution2: "Single Substitution lookup 115 subtable" l.cv28
Substitution2: "Single Substitution lookup 114 subtable" l.cv27
Substitution2: "'ss09' Style Set 9 lookup 113 subtable" l.ss09
Substitution2: "'ss11' Style Set 11 lookup 112 subtable" l.ss11
Substitution2: "'ss07' Style Set 7 lookup 111 subtable" l.ss07
Substitution2: "'ss10' Style Set 10 lookup 110 subtable" l.ss10
EndChar

StartChar: m
Encoding: 109 109 80
Width: 500
GlyphClass: 2
Flags: W
FFAnchorPoint: "Anchor-5" 436 0 basechar 0
FFAnchorPoint: "Anchor-4" 436 530 basechar 0
FFAnchorPoint: "Anchor-3" 250 265 basechar 0
FFAnchorPoint: "Anchor-2" 250 275 basechar 0
FFAnchorPoint: "Anchor-1" 250 0 basechar 0
FFAnchorPoint: "Anchor-0" 250 530 basechar 0
LayerCount: 2
Fore
SplineSet
56 0 m 1,0,-1
 56 530 l 1,1,-1
 118 530 l 1,2,-1
 118 495 l 1,3,4
 131 518 131 518 150 529 c 0,5,6
 166 538 166 538 185 538 c 0,7,8
 206 538 206 538 222 529 c 0,9,10
 242 517 242 517 256 493 c 0,11,12
 263 481 263 481 268 466 c 1,13,14
 273 482 273 482 281 495 c 0,15,16
 294 518 294 518 313 529 c 0,17,18
 329 538 329 538 348 538 c 0,19,20
 369 538 369 538 385 529 c 0,21,22
 405 517 405 517 419 493 c 0,23,24
 444 449 444 449 444 376 c 2,25,-1
 444 0 l 1,26,-1
 382 0 l 1,27,-1
 382 376 l 2,28,29
 382 446 382 446 356 472 c 0,30,31
 345 482 345 482 331 482 c 256,32,33
 317 482 317 482 307 472 c 0,34,35
 281 446 281 446 281 376 c 2,36,-1
 281 0 l 1,37,-1
 219 0 l 1,38,-1
 219 376 l 2,39,40
 219 446 219 446 193 472 c 0,41,42
 183 482 183 482 169 482 c 256,43,44
 155 482 155 482 144 472 c 0,45,46
 118 446 118 446 118 376 c 2,47,-1
 118 0 l 1,48,-1
 56 0 l 1,0,-1
EndSplineSet
Substitution2: "Single Substitution lookup 124 subtable" m.cv26
Substitution2: "'ss11' Style Set 11 lookup 123 subtable" m.ss11
EndChar

StartChar: n
Encoding: 110 110 81
Width: 500
GlyphClass: 2
Flags: W
FFAnchorPoint: "Anchor-5" 436 0 basechar 0
FFAnchorPoint: "Anchor-4" 436 530 basechar 0
FFAnchorPoint: "Anchor-3" 250 265 basechar 0
FFAnchorPoint: "Anchor-2" 250 275 basechar 0
FFAnchorPoint: "Anchor-1" 250 0 basechar 0
FFAnchorPoint: "Anchor-0" 250 530 basechar 0
LayerCount: 2
Fore
SplineSet
64 0 m 1,0,-1
 64 530 l 1,1,-1
 126 530 l 1,2,-1
 126 449 l 1,3,4
 128 453 128 453 131 458 c 0,5,6
 155 498 155 498 190 519 c 0,7,8
 223 538 223 538 267 538 c 0,9,10
 310 538 310 538 343 519 c 0,11,12
 379 498 379 498 402 458 c 0,13,14
 436 400 436 400 436 310 c 2,15,-1
 436 0 l 1,16,-1
 374 0 l 1,17,-1
 374 310 l 2,18,19
 374 379 374 379 348 423 c 0,20,21
 331 453 331 453 305 468 c 0,22,23
 281 482 281 482 250 482 c 256,24,25
 219 482 219 482 195 468 c 0,26,27
 169 453 169 453 152 423 c 0,28,29
 126 379 126 379 126 310 c 2,30,-1
 126 0 l 1,31,-1
 64 0 l 1,0,-1
EndSplineSet
EndChar

StartChar: o
Encoding: 111 111 82
Width: 500
GlyphClass: 2
Flags: W
FFAnchorPoint: "Anchor-5" 436 0 basechar 0
FFAnchorPoint: "Anchor-4" 436 530 basechar 0
FFAnchorPoint: "Anchor-3" 250 265 basechar 0
FFAnchorPoint: "Anchor-2" 250 275 basechar 0
FFAnchorPoint: "Anchor-1" 250 0 basechar 0
FFAnchorPoint: "Anchor-0" 250 530 basechar 0
LayerCount: 2
Fore
SplineSet
250 -8 m 256,0,1
 195 -8 195 -8 154 15.5 c 128,-1,2
 113 39 113 39 88 82 c 0,3,4
 56 138 56 138 56 220 c 2,5,-1
 56 310 l 2,6,7
 56 392 56 392 88 448 c 0,8,9
 113 491 113 491 154 514.5 c 128,-1,10
 195 538 195 538 250 538 c 256,11,12
 305 538 305 538 346 514.5 c 128,-1,13
 387 491 387 491 412 448 c 0,14,15
 444 392 444 392 444 310 c 2,16,-1
 444 220 l 2,17,18
 444 138 444 138 412 82 c 0,19,20
 387 39 387 39 346 15.5 c 128,-1,21
 305 -8 305 -8 250 -8 c 256,0,1
250 48 m 256,22,23
 285 48 285 48 311 63 c 0,24,25
 338 79 338 79 357 110 c 1,26,27
 382 154 382 154 382 220 c 2,28,-1
 382 310 l 2,29,30
 382 376 382 376 357 420 c 1,31,32
 338 451 338 451 311 467 c 0,33,34
 285 482 285 482 250 482 c 256,35,36
 215 482 215 482 189 467 c 0,37,38
 162 451 162 451 143 420 c 1,39,40
 118 376 118 376 118 310 c 2,41,-1
 118 220 l 2,42,43
 118 154 118 154 143 110 c 1,44,45
 162 79 162 79 189 63 c 0,46,47
 215 48 215 48 250 48 c 256,22,23
EndSplineSet
EndChar

StartChar: p
Encoding: 112 112 83
Width: 500
GlyphClass: 2
Flags: W
FFAnchorPoint: "Anchor-5" 436 -205 basechar 0
FFAnchorPoint: "Anchor-4" 436 530 basechar 0
FFAnchorPoint: "Anchor-3" 250 162 basechar 0
FFAnchorPoint: "Anchor-2" 250 177 basechar 0
FFAnchorPoint: "Anchor-1" 250 -205 basechar 0
FFAnchorPoint: "Anchor-0" 250 530 basechar 0
LayerCount: 2
Fore
SplineSet
64 -205 m 1,0,-1
 64 530 l 1,1,-1
 126 530 l 1,2,-1
 126 449 l 1,3,4
 128 453 128 453 131 458 c 0,5,6
 155 498 155 498 190 519 c 0,7,8
 223 538 223 538 267 538 c 0,9,10
 314 538 314 538 349 518 c 0,11,12
 387 496 387 496 411 455 c 0,13,14
 444 397 444 397 444 310 c 2,15,-1
 444 220 l 2,16,17
 444 133 444 133 411 75 c 0,18,19
 387 34 387 34 349 12 c 0,20,21
 314 -8 314 -8 267 -8 c 0,22,23
 223 -8 223 -8 190 11 c 0,24,25
 155 32 155 32 131 72 c 0,26,27
 128 77 128 77 126 81 c 1,28,-1
 126 -205 l 1,29,-1
 64 -205 l 1,0,-1
251 48 m 0,30,31
 285 48 285 48 311 63 c 0,32,33
 338 79 338 79 357 110 c 1,34,35
 382 154 382 154 382 220 c 2,36,-1
 382 310 l 2,37,38
 382 376 382 376 357 420 c 1,39,40
 338 451 338 451 311 467 c 0,41,42
 285 482 285 482 251 482 c 0,43,44
 219 482 219 482 195 468 c 0,45,46
 169 453 169 453 152 423 c 0,47,48
 126 379 126 379 126 310 c 2,49,-1
 126 220 l 2,50,51
 126 151 126 151 152 107 c 0,52,53
 169 77 169 77 195 62 c 0,54,55
 219 48 219 48 251 48 c 0,30,31
EndSplineSet
EndChar

StartChar: q
Encoding: 113 113 84
Width: 500
GlyphClass: 2
Flags: W
FFAnchorPoint: "Anchor-5" 436 -205 basechar 0
FFAnchorPoint: "Anchor-4" 436 530 basechar 0
FFAnchorPoint: "Anchor-3" 250 162 basechar 0
FFAnchorPoint: "Anchor-2" 250 177 basechar 0
FFAnchorPoint: "Anchor-1" 250 -205 basechar 0
FFAnchorPoint: "Anchor-0" 250 530 basechar 0
LayerCount: 2
Fore
SplineSet
374 -205 m 1,0,-1
 374 81 l 1,1,2
 372 77 372 77 369 72 c 0,3,4
 345 32 345 32 310 11 c 0,5,6
 277 -8 277 -8 233 -8 c 0,7,8
 186 -8 186 -8 151 12 c 0,9,10
 113 34 113 34 89 75 c 0,11,12
 56 133 56 133 56 220 c 2,13,-1
 56 310 l 2,14,15
 56 397 56 397 89 455 c 0,16,17
 113 496 113 496 151 518 c 0,18,19
 186 538 186 538 233 538 c 0,20,21
 277 538 277 538 310 519 c 0,22,23
 345 498 345 498 369 458 c 0,24,25
 372 453 372 453 374 449 c 1,26,-1
 374 530 l 1,27,-1
 436 530 l 1,28,-1
 436 -205 l 1,29,-1
 374 -205 l 1,0,-1
249 48 m 0,30,31
 281 48 281 48 305 62 c 0,32,33
 331 77 331 77 348 107 c 0,34,35
 374 151 374 151 374 220 c 2,36,-1
 374 310 l 2,37,38
 374 379 374 379 348 423 c 0,39,40
 331 453 331 453 305 468 c 0,41,42
 281 482 281 482 249 482 c 0,43,44
 215 482 215 482 189 467 c 0,45,46
 162 451 162 451 143 420 c 1,47,48
 118 376 118 376 118 310 c 2,49,-1
 118 220 l 2,50,51
 118 154 118 154 143 110 c 1,52,53
 162 79 162 79 189 63 c 0,54,55
 215 48 215 48 249 48 c 0,30,31
EndSplineSet
EndChar

StartChar: r
Encoding: 114 114 85
Width: 500
GlyphClass: 2
Flags: W
FFAnchorPoint: "Anchor-5" 436 0 basechar 0
FFAnchorPoint: "Anchor-4" 436 530 basechar 0
FFAnchorPoint: "Anchor-3" 250 265 basechar 0
FFAnchorPoint: "Anchor-2" 172 265 basechar 0
FFAnchorPoint: "Anchor-1" 250 0 basechar 0
FFAnchorPoint: "Anchor-0" 250 530 basechar 0
LayerCount: 2
Fore
SplineSet
124 0 m 1,0,-1
 124 530 l 1,1,-1
 186 530 l 1,2,-1
 186 425 l 1,3,4
 194 446 194 446 204 465 c 1,5,6
 227 504 227 504 259 523 c 0,7,8
 286 538 286 538 320 538 c 0,9,10
 357 538 357 538 388.5 520 c 128,-1,11
 420 502 420 502 438 470 c 0,12,13
 446 456 446 456 451 440 c 1,14,-1
 393 414 l 1,15,16
 389 428 389 428 382 441 c 0,17,18
 369 462 369 462 351 473 c 0,19,20
 335 482 335 482 316 482 c 0,21,22
 286 482 286 482 263 469 c 0,23,24
 236 453 236 453 217 421 c 0,25,26
 186 368 186 368 186 281 c 2,27,-1
 186 0 l 1,28,-1
 124 0 l 1,0,-1
EndSplineSet
EndChar

StartChar: s
Encoding: 115 115 86
Width: 500
GlyphClass: 2
Flags: W
FFAnchorPoint: "Anchor-5" 436 0 basechar 0
FFAnchorPoint: "Anchor-4" 436 530 basechar 0
FFAnchorPoint: "Anchor-3" 250 265 basechar 0
FFAnchorPoint: "Anchor-2" 250 275 basechar 0
FFAnchorPoint: "Anchor-1" 250 0 basechar 0
FFAnchorPoint: "Anchor-0" 250 530 basechar 0
LayerCount: 2
Fore
SplineSet
248 -8 m 0,0,1
 179 -8 179 -8 134 18 c 0,2,3
 97 39 97 39 75 77 c 0,4,5
 66 93 66 93 61 110 c 1,6,-1
 120 128 l 1,7,8
 124 116 124 116 130 106 c 0,9,10
 144 81 144 81 169 66 c 0,11,12
 201 48 201 48 248 48 c 0,13,14
 300 48 300 48 333 67 c 0,15,16
 354 80 354 80 365 98 c 0,17,18
 375 115 375 115 375 137 c 128,-1,19
 375 159 375 159 364 178 c 0,20,21
 352 199 352 199 329 212 c 0,22,23
 304 227 304 227 245 234 c 1,24,25
 173 244 173 244 138 264 c 0,26,27
 102 285 102 285 82.5 318.5 c 128,-1,28
 63 352 63 352 63 393 c 0,29,30
 63 432 63 432 80 460 c 0,31,32
 97 490 97 490 131 510 c 0,33,34
 179 538 179 538 252 538 c 0,35,36
 321 538 321 538 366 512 c 0,37,38
 403 491 403 491 425 453 c 0,39,40
 434 437 434 437 439 420 c 1,41,-1
 380 402 l 1,42,43
 373 427 373 427 353 447 c 0,44,45
 343 457 343 457 331 464 c 0,46,47
 299 482 299 482 252 482 c 0,48,49
 200 482 200 482 167 463 c 0,50,51
 146 450 146 450 135 432 c 0,52,53
 125 415 125 415 125 393 c 128,-1,54
 125 371 125 371 136 352 c 0,55,56
 148 331 148 331 171 318 c 0,57,58
 196 303 196 303 255 296 c 1,59,60
 327 286 327 286 362 266 c 0,61,62
 398 245 398 245 417.5 211.5 c 128,-1,63
 437 178 437 178 437 137 c 0,64,65
 437 98 437 98 420 70 c 0,66,67
 403 40 403 40 369 20 c 0,68,69
 321 -8 321 -8 248 -8 c 0,0,1
EndSplineSet
EndChar

StartChar: t
Encoding: 116 116 87
Width: 500
GlyphClass: 2
Flags: W
FFAnchorPoint: "Anchor-5" 487 155 basechar 0
FFAnchorPoint: "Anchor-4" 436 735 basechar 0
FFAnchorPoint: "Anchor-3" 250 367 basechar 0
FFAnchorPoint: "Anchor-2" 250 382 basechar 0
FFAnchorPoint: "Anchor-1" 302 0 basechar 0
FFAnchorPoint: "Anchor-0" 250 735 basechar 0
LayerCount: 2
Fore
SplineSet
329 -8 m 0,0,1
 284 -8 284 -8 252 11 c 0,2,3
 218 30 218 30 197 67 c 0,4,5
 169 116 169 116 169 188 c 2,6,-1
 169 474 l 1,7,-1
 52 474 l 1,8,-1
 52 530 l 1,9,-1
 169 530 l 1,10,-1
 169 735 l 1,11,-1
 231 735 l 1,12,-1
 231 530 l 1,13,-1
 402 530 l 1,14,-1
 402 474 l 1,15,-1
 231 474 l 1,16,-1
 231 188 l 2,17,18
 231 131 231 131 252 94 c 0,19,20
 266 71 266 71 286 59 c 0,21,22
 305 48 305 48 329 48 c 256,23,24
 353 48 353 48 371 59 c 0,25,26
 391 70 391 70 406 95 c 0,27,28
 423 125 423 125 426 166 c 1,29,-1
 487 155 l 1,30,31
 483 105 483 105 460 67 c 1,32,33
 440 31 440 31 406.5 11.5 c 128,-1,34
 373 -8 373 -8 329 -8 c 0,0,1
EndSplineSet
Substitution2: "Single Substitution lookup 126 subtable" t.cv41
Substitution2: "'ss11' Style Set 11 lookup 125 subtable" t.ss11
EndChar

StartChar: u
Encoding: 117 117 88
Width: 500
GlyphClass: 2
Flags: W
FFAnchorPoint: "Anchor-6" 408 0 basechar 0
FFAnchorPoint: "Anchor-5" 436 0 basechar 0
FFAnchorPoint: "Anchor-4" 436 530 basechar 0
FFAnchorPoint: "Anchor-3" 250 265 basechar 0
FFAnchorPoint: "Anchor-2" 250 275 basechar 0
FFAnchorPoint: "Anchor-1" 250 0 basechar 0
FFAnchorPoint: "Anchor-0" 250 530 basechar 0
LayerCount: 2
Fore
SplineSet
233 -8 m 0,0,1
 190 -8 190 -8 157 11 c 0,2,3
 121 32 121 32 98 72 c 0,4,5
 64 130 64 130 64 220 c 2,6,-1
 64 530 l 1,7,-1
 126 530 l 1,8,-1
 126 220 l 2,9,10
 126 151 126 151 152 107 c 0,11,12
 169 77 169 77 195 62 c 0,13,14
 219 48 219 48 250 48 c 256,15,16
 281 48 281 48 305 62 c 0,17,18
 331 77 331 77 348 107 c 0,19,20
 374 151 374 151 374 220 c 2,21,-1
 374 530 l 1,22,-1
 436 530 l 1,23,-1
 436 0 l 1,24,-1
 374 0 l 1,25,-1
 374 81 l 1,26,27
 372 77 372 77 369 72 c 0,28,29
 345 32 345 32 310 11 c 0,30,31
 277 -8 277 -8 233 -8 c 0,0,1
EndSplineSet
EndChar

StartChar: v
Encoding: 118 118 89
Width: 500
GlyphClass: 2
Flags: W
FFAnchorPoint: "Anchor-5" 436 0 basechar 0
FFAnchorPoint: "Anchor-4" 436 530 basechar 0
FFAnchorPoint: "Anchor-3" 250 265 basechar 0
FFAnchorPoint: "Anchor-2" 250 275 basechar 0
FFAnchorPoint: "Anchor-1" 250 0 basechar 0
FFAnchorPoint: "Anchor-0" 250 530 basechar 0
LayerCount: 2
Fore
SplineSet
219 0 m 1,0,1
 64 333 64 333 64 477 c 2,2,-1
 64 530 l 1,3,-1
 126 530 l 1,4,-1
 126 477 l 2,5,6
 126 349 126 349 250 66 c 1,7,8
 374 349 374 349 374 477 c 2,9,-1
 374 530 l 1,10,-1
 436 530 l 1,11,-1
 436 477 l 2,12,13
 436 333 436 333 281 0 c 1,14,-1
 219 0 l 1,0,1
EndSplineSet
EndChar

StartChar: w
Encoding: 119 119 90
Width: 500
GlyphClass: 2
Flags: W
FFAnchorPoint: "Anchor-5" 436 0 basechar 0
FFAnchorPoint: "Anchor-4" 436 530 basechar 0
FFAnchorPoint: "Anchor-3" 250 265 basechar 0
FFAnchorPoint: "Anchor-2" 250 275 basechar 0
FFAnchorPoint: "Anchor-1" 250 0 basechar 0
FFAnchorPoint: "Anchor-0" 250 530 basechar 0
LayerCount: 2
Fore
SplineSet
139 0 m 1,0,1
 64 276 64 276 64 398 c 2,2,-1
 64 530 l 1,3,-1
 126 530 l 1,4,-1
 126 398 l 2,5,6
 126 297 126 297 162 89 c 1,7,-1
 226 318 l 1,8,-1
 274 318 l 1,9,-1
 338 89 l 1,10,11
 374 297 374 297 374 398 c 2,12,-1
 374 530 l 1,13,-1
 436 530 l 1,14,-1
 436 398 l 2,15,16
 436 276 436 276 361 0 c 1,17,-1
 314 0 l 1,18,-1
 250 231 l 1,19,-1
 186 0 l 1,20,-1
 139 0 l 1,0,1
EndSplineSet
EndChar

StartChar: x
Encoding: 120 120 91
Width: 500
GlyphClass: 2
Flags: W
FFAnchorPoint: "Anchor-5" 436 0 basechar 0
FFAnchorPoint: "Anchor-4" 436 530 basechar 0
FFAnchorPoint: "Anchor-3" 250 265 basechar 0
FFAnchorPoint: "Anchor-2" 250 275 basechar 0
FFAnchorPoint: "Anchor-1" 250 0 basechar 0
FFAnchorPoint: "Anchor-0" 250 530 basechar 0
LayerCount: 2
Fore
SplineSet
64 0 m 1,0,-1
 64 5 l 2,1,2
 64 35 64 35 99 95 c 0,3,4
 116 124 116 124 132 147 c 2,5,-1
 213 265 l 1,6,-1
 132 383 l 2,7,8
 116 406 116 406 99 435 c 0,9,10
 64 495 64 495 64 525 c 2,11,-1
 64 530 l 1,12,-1
 126 530 l 1,13,-1
 126 525 l 2,14,15
 126 496 126 496 183 415 c 2,16,-1
 250 318 l 1,17,-1
 317 415 l 2,18,19
 374 496 374 496 374 525 c 2,20,-1
 374 530 l 1,21,-1
 436 530 l 1,22,-1
 436 525 l 2,23,24
 436 495 436 495 401 435 c 0,25,26
 384 406 384 406 368 383 c 2,27,-1
 287 265 l 1,28,-1
 368 147 l 2,29,30
 384 124 384 124 401 95 c 0,31,32
 436 35 436 35 436 5 c 2,33,-1
 436 0 l 1,34,-1
 374 0 l 1,35,-1
 374 5 l 2,36,37
 374 34 374 34 317 115 c 2,38,-1
 250 212 l 1,39,-1
 183 115 l 2,40,41
 126 34 126 34 126 5 c 2,42,-1
 126 0 l 1,43,-1
 64 0 l 1,0,-1
EndSplineSet
EndChar

StartChar: y
Encoding: 121 121 92
Width: 500
GlyphClass: 2
Flags: W
FFAnchorPoint: "Anchor-5" 436 -205 basechar 0
FFAnchorPoint: "Anchor-4" 436 530 basechar 0
FFAnchorPoint: "Anchor-3" 250 162 basechar 0
FFAnchorPoint: "Anchor-2" 250 177 basechar 0
FFAnchorPoint: "Anchor-1" 250 -205 basechar 0
FFAnchorPoint: "Anchor-0" 250 530 basechar 0
LayerCount: 2
Fore
SplineSet
169 -205 m 1,0,-1
 169 -198 l 2,1,2
 169 -140 169 -140 181 -105 c 2,3,-1
 218 0 l 1,4,-1
 99 336 l 2,5,6
 64 432 64 432 64 493 c 2,7,-1
 64 530 l 1,8,-1
 126 530 l 1,9,-1
 126 493 l 2,10,11
 126 444 126 444 157 355 c 2,12,-1
 249 89 l 1,13,-1
 343 355 l 2,14,15
 374 443 374 443 374 493 c 2,16,-1
 374 530 l 1,17,-1
 436 530 l 1,18,-1
 436 493 l 2,19,20
 436 434 436 434 401 336 c 2,21,-1
 240 -124 l 2,22,23
 231 -147 231 -147 231 -198 c 2,24,-1
 231 -205 l 1,25,-1
 169 -205 l 1,0,-1
EndSplineSet
EndChar

StartChar: z
Encoding: 122 122 93
Width: 500
GlyphClass: 2
Flags: W
FFAnchorPoint: "Anchor-5" 436 0 basechar 0
FFAnchorPoint: "Anchor-4" 436 530 basechar 0
FFAnchorPoint: "Anchor-3" 250 265 basechar 0
FFAnchorPoint: "Anchor-2" 250 275 basechar 0
FFAnchorPoint: "Anchor-1" 250 0 basechar 0
FFAnchorPoint: "Anchor-0" 250 530 basechar 0
LayerCount: 2
Fore
SplineSet
64 0 m 1,0,-1
 64 56 l 1,1,-1
 361 474 l 1,2,-1
 64 474 l 1,3,-1
 64 530 l 1,4,-1
 436 530 l 1,5,-1
 436 474 l 1,6,-1
 139 56 l 1,7,-1
 436 56 l 1,8,-1
 436 0 l 1,9,-1
 64 0 l 1,0,-1
EndSplineSet
EndChar

StartChar: braceleft
Encoding: 123 123 94
Width: 500
GlyphClass: 2
Flags: W
LayerCount: 2
Fore
SplineSet
417 -179 m 1,0,1
 346 -179 346 -179 297 -151 c 0,2,3
 259 -129 259 -129 240 -94 c 1,4,5
 219 -59 219 -59 219 -11 c 2,6,-1
 219 198 l 2,7,8
 219 243 219 243 200 275 c 0,9,10
 184 303 184 303 157 319 c 0,11,12
 141 328 141 328 122.5 332.5 c 128,-1,13
 104 337 104 337 83 337 c 1,14,-1
 83 393 l 1,15,16
 104 393 104 393 122.5 397.5 c 128,-1,17
 141 402 141 402 157 411 c 0,18,19
 184 427 184 427 200 455 c 0,20,21
 219 487 219 487 219 532 c 2,22,-1
 219 741 l 2,23,24
 219 789 219 789 240 824 c 1,25,26
 259 859 259 859 297 881 c 0,27,28
 346 909 346 909 417 909 c 1,29,-1
 417 853 l 1,30,31
 367 853 367 853 333 833 c 0,32,33
 308 818 308 818 295 795 c 0,34,35
 281 772 281 772 281 741 c 2,36,-1
 281 532 l 2,37,38
 281 470 281 470 255 426 c 1,39,40
 234 388 234 388 196 365 c 1,41,42
 234 342 234 342 255 304 c 1,43,44
 281 260 281 260 281 198 c 2,45,-1
 281 -11 l 2,46,47
 281 -42 281 -42 295 -65 c 0,48,49
 308 -88 308 -88 333 -103 c 0,50,51
 367 -123 367 -123 417 -123 c 1,52,-1
 417 -179 l 1,0,1
EndSplineSet
Substitution2: "'ss10' Style Set 10 lookup 135 subtable" braceleft.ss10
Substitution2: "'ss11' Style Set 11 lookup 134 subtable" braceleft.ss11
EndChar

StartChar: bar
Encoding: 124 124 95
Width: 500
GlyphClass: 2
Flags: W
FFAnchorPoint: "Anchor-1" 250 -168 basechar 0
FFAnchorPoint: "Anchor-0" 250 898 basechar 0
LayerCount: 2
Fore
SplineSet
219 -168 m 1,0,-1
 219 898 l 1,1,-1
 281 898 l 1,2,-1
 281 -168 l 1,3,-1
 219 -168 l 1,0,-1
EndSplineSet
Substitution2: "Single Substitution lookup 57 subtable" glyph3165
EndChar

StartChar: braceright
Encoding: 125 125 96
Width: 500
GlyphClass: 2
Flags: W
LayerCount: 2
Fore
SplineSet
83 -179 m 1,0,-1
 83 -123 l 1,1,2
 133 -123 133 -123 167 -103 c 0,3,4
 192 -88 192 -88 205 -65 c 0,5,6
 219 -42 219 -42 219 -11 c 2,7,-1
 219 198 l 2,8,9
 219 260 219 260 245 304 c 1,10,11
 266 342 266 342 304 365 c 1,12,13
 266 388 266 388 245 426 c 1,14,15
 219 470 219 470 219 532 c 2,16,-1
 219 741 l 2,17,18
 219 772 219 772 205 795 c 0,19,20
 192 818 192 818 167 833 c 0,21,22
 133 853 133 853 83 853 c 1,23,-1
 83 909 l 1,24,25
 154 909 154 909 203 881 c 0,26,27
 241 859 241 859 260 824 c 1,28,29
 281 789 281 789 281 741 c 2,30,-1
 281 532 l 2,31,32
 281 487 281 487 300 455 c 0,33,34
 316 427 316 427 343 411 c 0,35,36
 359 402 359 402 377.5 397.5 c 128,-1,37
 396 393 396 393 417 393 c 1,38,-1
 417 337 l 1,39,40
 396 337 396 337 377.5 332.5 c 128,-1,41
 359 328 359 328 343 319 c 0,42,43
 316 303 316 303 300 275 c 0,44,45
 281 243 281 243 281 198 c 2,46,-1
 281 -11 l 2,47,48
 281 -59 281 -59 260 -94 c 1,49,50
 241 -129 241 -129 203 -151 c 0,51,52
 154 -179 154 -179 83 -179 c 1,0,-1
EndSplineSet
Substitution2: "'ss10' Style Set 10 lookup 135 subtable" braceright.ss10
Substitution2: "'ss11' Style Set 11 lookup 134 subtable" braceright.ss11
EndChar

StartChar: asciitilde
Encoding: 126 126 97
Width: 500
GlyphClass: 2
Flags: W
LayerCount: 2
Fore
SplineSet
323 563 m 256,0,1
 306 563 306 563 291 572 c 0,2,3
 264 587 264 587 225 655 c 0,4,5
 200 700 200 700 187 713 c 0,6,7
 180 720 180 720 177 720 c 0,8,9
 176 720 176 720 174 719 c 0,10,11
 159 711 159 711 139 676 c 0,12,13
 117 636 117 636 90 567 c 1,14,-1
 38 585 l 1,15,16
 65 657 65 657 90 699 c 1,17,18
 116 746 116 746 144 761 c 1,19,20
 160 771 160 771 177 771 c 256,21,22
 194 771 194 771 209 762 c 0,23,24
 236 746 236 746 275 678 c 0,25,26
 300 634 300 634 313 620 c 0,27,28
 320 613 320 613 323 613 c 0,29,30
 324 613 324 613 326 615 c 0,31,32
 341 623 341 623 361 658 c 0,33,34
 383 697 383 697 410 767 c 1,35,-1
 462 749 l 1,36,37
 435 676 435 676 410 635 c 1,38,39
 384 588 384 588 356 572 c 0,40,41
 340 563 340 563 323 563 c 256,0,1
EndSplineSet
Substitution2: "'ss10' Style Set 10 lookup 148 subtable" asciitilde.ss10
Substitution2: "'ss11' Style Set 11 lookup 147 subtable" asciitilde.ss11
Substitution2: "Single Substitution lookup 85 subtable" asciitilde.ss10
Substitution2: "Single Substitution lookup 45 subtable" asciitilde.ss10
Substitution2: "Single Substitution lookup 44 subtable" asciitilde.ss10
EndChar

StartChar: exclamdown
Encoding: 161 161 99
Width: 500
GlyphClass: 2
Flags: W
LayerCount: 2
Fore
SplineSet
250 422 m 256,0,1
 223 422 223 422 207.5 437.5 c 128,-1,2
 192 453 192 453 192 480 c 128,-1,3
 192 507 192 507 207.5 522.5 c 128,-1,4
 223 538 223 538 250 538 c 256,5,6
 277 538 277 538 292.5 522.5 c 128,-1,7
 308 507 308 507 308 480 c 128,-1,8
 308 453 308 453 292.5 437.5 c 128,-1,9
 277 422 277 422 250 422 c 256,0,1
219 -205 m 1,10,-1
 219 270 l 1,11,-1
 281 270 l 1,12,-1
 281 -205 l 1,13,-1
 219 -205 l 1,10,-1
EndSplineSet
EndChar

StartChar: cent
Encoding: 162 162 100
Width: 500
GlyphClass: 2
Flags: W
FFAnchorPoint: "Anchor-5" 436 0 basechar 0
FFAnchorPoint: "Anchor-4" 436 530 basechar 0
FFAnchorPoint: "Anchor-3" 250 265 basechar 0
FFAnchorPoint: "Anchor-2" 250 275 basechar 0
FFAnchorPoint: "Anchor-1" 250 0 basechar 0
FFAnchorPoint: "Anchor-0" 250 530 basechar 0
LayerCount: 2
Fore
SplineSet
219 -103 m 1,0,-1
 219 -6 l 1,1,2
 183 -1 183 -1 154 16 c 0,3,4
 113 39 113 39 88 83 c 0,5,6
 56 139 56 139 56 220 c 2,7,-1
 56 310 l 2,8,9
 56 391 56 391 88 447 c 0,10,11
 113 491 113 491 154 514 c 0,12,13
 183 531 183 531 219 536 c 1,14,-1
 219 633 l 1,15,-1
 281 633 l 1,16,-1
 281 536 l 1,17,18
 319 531 319 531 349 514 c 0,19,20
 389 491 389 491 415 447 c 0,21,22
 434 414 434 414 441 375 c 1,23,-1
 382 357 l 1,24,25
 376 392 376 392 360 419 c 1,26,27
 343 450 343 450 314 467 c 0,28,29
 287 482 287 482 251 482 c 0,30,31
 216 482 216 482 188.5 466 c 128,-1,32
 161 450 161 450 143 419 c 0,33,34
 118 376 118 376 118 310 c 2,35,-1
 118 220 l 2,36,37
 118 154 118 154 143 111 c 0,38,39
 161 80 161 80 188.5 64 c 128,-1,40
 216 48 216 48 251 48 c 0,41,42
 287 48 287 48 314 63 c 0,43,44
 343 80 343 80 360 111 c 1,45,46
 376 138 376 138 382 173 c 1,47,-1
 441 155 l 1,48,49
 434 116 434 116 415 83 c 0,50,51
 389 39 389 39 349 16 c 0,52,53
 319 -1 319 -1 281 -6 c 1,54,-1
 281 -103 l 1,55,-1
 219 -103 l 1,0,-1
EndSplineSet
EndChar

StartChar: sterling
Encoding: 163 163 101
Width: 500
GlyphClass: 2
Flags: W
LayerCount: 2
Fore
SplineSet
64 0 m 1,0,-1
 64 56 l 1,1,2
 90 78 90 78 108 109 c 0,3,4
 139 161 139 161 138 260 c 1,5,-1
 138 362 l 1,6,-1
 83 362 l 1,7,-1
 83 418 l 1,8,-1
 138 418 l 1,9,-1
 138 540 l 1,10,11
 139 623 139 623 169 675 c 0,12,13
 189 709 189 709 219 727 c 0,14,15
 247 743 247 743 283 743 c 256,16,17
 319 743 319 743 347 727 c 0,18,19
 377 709 377 709 397 675 c 0,20,21
 416 643 416 643 422 603 c 1,22,-1
 365 581 l 1,23,24
 360 620 360 620 344 647 c 0,25,26
 332 669 332 669 314 679 c 0,27,28
 301 687 301 687 283 687 c 0,29,30
 266 687 266 687 253 679 c 0,31,32
 236 670 236 670 224 649 c 0,33,34
 200 609 200 609 201 540 c 1,35,-1
 201 418 l 1,36,-1
 324 418 l 1,37,-1
 324 362 l 1,38,-1
 201 362 l 1,39,-1
 201 260 l 1,40,41
 200 143 200 143 165 82 c 0,42,43
 157 68 157 68 148 56 c 1,44,-1
 436 56 l 1,45,-1
 436 0 l 1,46,-1
 64 0 l 1,0,-1
EndSplineSet
EndChar

StartChar: currency
Encoding: 164 164 102
Width: 500
GlyphClass: 2
Flags: W
LayerCount: 2
Fore
SplineSet
86 159 m 1,0,-1
 42 199 l 1,1,-1
 103 260 l 1,2,3
 101 264 101 264 98 269 c 0,4,5
 74 309 74 309 75 365 c 1,6,7
 74 421 74 421 98 461 c 0,8,9
 101 466 101 466 103 470 c 1,10,-1
 42 531 l 1,11,-1
 86 571 l 1,12,-1
 145 512 l 1,13,14
 149 515 149 515 154 517 c 0,15,16
 194 540 194 540 250 540 c 256,17,18
 306 540 306 540 346 517 c 0,19,20
 351 515 351 515 355 512 c 1,21,-1
 414 571 l 1,22,-1
 458 531 l 1,23,-1
 397 470 l 1,24,25
 399 466 399 466 402 461 c 0,26,27
 426 421 426 421 425 365 c 1,28,29
 426 309 426 309 402 269 c 0,30,31
 399 264 399 264 397 260 c 1,32,-1
 458 199 l 1,33,-1
 414 159 l 1,34,-1
 355 218 l 1,35,36
 351 215 351 215 346 213 c 0,37,38
 306 190 306 190 250 190 c 256,39,40
 194 190 194 190 154 213 c 0,41,42
 149 215 149 215 145 218 c 1,43,-1
 86 159 l 1,0,-1
250 246 m 256,44,45
 285 246 285 246 310 260 c 0,46,47
 333 274 333 274 347 297 c 0,48,49
 363 325 363 325 363 365 c 128,-1,50
 363 405 363 405 347 433 c 0,51,52
 333 456 333 456 310 470 c 0,53,54
 285 484 285 484 250 484 c 256,55,56
 215 484 215 484 190 470 c 0,57,58
 167 456 167 456 153 433 c 0,59,60
 137 405 137 405 137 365 c 128,-1,61
 137 325 137 325 153 297 c 0,62,63
 167 274 167 274 190 260 c 0,64,65
 215 246 215 246 250 246 c 256,44,45
EndSplineSet
EndChar

StartChar: brokenbar
Encoding: 166 166 104
Width: 500
GlyphClass: 2
Flags: W
LayerCount: 2
Fore
SplineSet
219 411 m 1,0,-1
 219 898 l 1,1,-1
 281 898 l 1,2,-1
 281 411 l 1,3,-1
 219 411 l 1,0,-1
219 -168 m 1,4,-1
 219 319 l 1,5,-1
 281 319 l 1,6,-1
 281 -168 l 1,7,-1
 219 -168 l 1,4,-1
EndSplineSet
EndChar

StartChar: section
Encoding: 167 167 105
Width: 500
GlyphClass: 2
Flags: W
LayerCount: 2
Fore
SplineSet
246 -168 m 256,0,1
 186 -168 186 -168 144 -143 c 1,2,3
 105 -121 105 -121 82 -82 c 0,4,5
 64 -50 64 -50 59 -13 c 1,6,-1
 120 -1 l 1,7,8
 123 -29 123 -29 137 -53 c 0,9,10
 153 -80 153 -80 179 -96 c 1,11,12
 208 -112 208 -112 246 -112 c 0,13,14
 285 -112 285 -112 314 -96 c 1,15,16
 340 -80 340 -80 355 -54 c 0,17,18
 374 -22 374 -22 374 17 c 0,19,20
 374 51 374 51 356 83 c 0,21,22
 335 119 335 119 290 145 c 0,23,24
 271 156 271 156 234 172 c 0,25,26
 188 192 188 192 166 205 c 0,27,28
 112 236 112 236 86 280 c 0,29,30
 64 319 64 319 64 364 c 0,31,32
 64 415 64 415 91 463 c 1,33,34
 120 512 120 512 169 542 c 1,35,36
 116 572 116 572 89 618 c 1,37,38
 64 663 64 663 64 712 c 0,39,40
 64 766 64 766 90 811 c 0,41,42
 113 850 113 850 152 873 c 0,43,44
 195 898 195 898 256 898 c 256,45,46
 317 898 317 898 361 873 c 0,47,48
 400 850 400 850 423 811 c 0,49,50
 441 780 441 780 446 743 c 1,51,-1
 385 732 l 1,52,53
 381 759 381 759 368 782 c 0,54,55
 352 810 352 810 325 825 c 1,56,57
 297 842 297 842 256 842 c 256,58,59
 215 842 215 842 187 825 c 1,60,61
 160 810 160 810 144 783 c 0,62,63
 126 751 126 751 126 713 c 0,64,65
 126 679 126 679 144 647 c 0,66,67
 165 611 165 611 210 585 c 0,68,69
 229 574 229 574 265 558 c 0,70,71
 312 538 312 538 334 525 c 0,72,73
 388 494 388 494 414 450 c 1,74,75
 436 410 436 410 436 366 c 0,76,77
 436 315 436 315 409 267 c 1,78,79
 380 218 380 218 331 188 c 1,80,81
 384 158 384 158 411 112 c 1,82,83
 436 67 436 67 436 18 c 0,84,85
 436 -36 436 -36 410 -82 c 0,86,87
 387 -121 387 -121 349 -143 c 0,88,89
 306 -168 306 -168 246 -168 c 256,0,1
265 220 m 0,90,91
 279 225 279 225 291 232 c 0,92,93
 331 255 331 255 354 294 c 0,94,95
 374 329 374 329 374 366 c 0,96,97
 374 398 374 398 358 425 c 0,98,99
 339 458 339 458 299 481 c 0,100,101
 279 492 279 492 242 507 c 0,102,103
 240 508 240 508 238 509 c 128,-1,104
 236 510 236 510 235 510 c 0,105,106
 221 505 221 505 209 498 c 0,107,108
 169 475 169 475 146 436 c 0,109,110
 126 401 126 401 126 364 c 0,111,112
 126 332 126 332 142 305 c 0,113,114
 161 272 161 272 201 249 c 0,115,116
 221 238 221 238 258 223 c 0,117,118
 260 222 260 222 262 221 c 128,-1,119
 264 220 264 220 265 220 c 0,90,91
EndSplineSet
EndChar

StartChar: copyright
Encoding: 169 169 107
Width: 500
GlyphClass: 2
Flags: W
LayerCount: 2
Fore
SplineSet
250 0 m 256,0,1
 182 0 182 0 134 28 c 0,2,3
 89 54 89 54 63 99 c 0,4,5
 32 152 32 152 32 228 c 2,6,-1
 32 502 l 2,7,8
 32 578 32 578 63 631 c 0,9,10
 89 676 89 676 134 702 c 0,11,12
 182 730 182 730 250 730 c 256,13,14
 318 730 318 730 366 702 c 0,15,16
 411 676 411 676 437 631 c 0,17,18
 468 578 468 578 468 502 c 2,19,-1
 468 228 l 2,20,21
 468 152 468 152 437 99 c 0,22,23
 411 54 411 54 366 28 c 0,24,25
 318 0 318 0 250 0 c 256,0,1
250 158 m 256,26,27
 207 158 207 158 177 176 c 0,28,29
 153 190 153 190 140 213 c 0,30,31
 126 237 126 237 126 270 c 2,32,-1
 126 460 l 2,33,34
 126 493 126 493 140 517 c 0,35,36
 153 540 153 540 177 554 c 0,37,38
 207 572 207 572 250 572 c 256,39,40
 293 572 293 572 323 554 c 1,41,42
 347 541 347 541 360 517 c 1,43,44
 370 501 370 501 373 482 c 1,45,-1
 322 470 l 1,46,47
 319 490 319 490 305 505 c 1,48,49
 285 524 285 524 250 524 c 0,50,51
 225 524 225 524 208 514 c 0,52,53
 194 506 194 506 186.5 492.5 c 128,-1,54
 179 479 179 479 178 460 c 1,55,-1
 178 270 l 1,56,57
 179 251 179 251 186.5 237.5 c 128,-1,58
 194 224 194 224 208 216 c 0,59,60
 225 206 225 206 250 206 c 0,61,62
 285 206 285 206 305 225 c 1,63,64
 319 240 319 240 322 260 c 1,65,-1
 373 248 l 1,66,67
 370 229 370 229 360 213 c 1,68,69
 347 189 347 189 323 176 c 1,70,71
 293 158 293 158 250 158 c 256,26,27
250 51 m 256,72,73
 298 51 298 51 333 72 c 1,74,75
 367 91 367 91 386 125 c 0,76,77
 410 167 410 167 411 228 c 1,78,-1
 411 502 l 1,79,80
 410 563 410 563 386 605 c 0,81,82
 367 639 367 639 333 658 c 1,83,84
 298 679 298 679 250 679 c 256,85,86
 202 679 202 679 167 658 c 1,87,88
 133 639 133 639 114 605 c 0,89,90
 90 563 90 563 89 502 c 1,91,-1
 89 228 l 1,92,93
 90 167 90 167 114 125 c 0,94,95
 133 91 133 91 167 72 c 1,96,97
 202 51 202 51 250 51 c 256,72,73
EndSplineSet
EndChar

StartChar: ordfeminine
Encoding: 170 170 108
Width: 500
GlyphClass: 2
Flags: W
LayerCount: 2
Fore
SplineSet
220 358 m 256,0,1
 174 358 174 358 144 376 c 0,2,3
 119 390 119 390 106 414 c 0,4,5
 92 438 92 438 92 470 c 0,6,7
 92 499 92 499 104 521 c 1,8,9
 119 546 119 546 148 563 c 0,10,11
 193 589 193 589 265 589 c 2,12,-1
 340 589 l 1,13,-1
 340 619 l 1,14,15
 341 635 341 635 334 647 c 0,16,17
 325 662 325 662 309 671 c 0,18,19
 286 685 286 685 248 685 c 0,20,21
 213 685 213 685 191 672 c 0,22,23
 172 661 172 661 162 642 c 0,24,25
 157 634 157 634 155 626 c 1,26,-1
 96 644 l 1,27,28
 99 657 99 657 107 671 c 0,29,30
 125 702 125 702 155 719 c 0,31,32
 192 741 192 741 248 741 c 0,33,34
 306 741 306 741 346 718 c 0,35,36
 374 702 374 702 389 676 c 0,37,38
 402 652 402 652 403 619 c 1,39,-1
 403 364 l 1,40,-1
 340 364 l 1,41,-1
 340 415 l 1,42,43
 325 392 325 392 300 378 c 0,44,45
 266 358 266 358 220 358 c 256,0,1
180 427 m 0,46,47
 203 414 203 414 238.5 414 c 128,-1,48
 274 414 274 414 299 429 c 0,49,50
 319 440 319 440 330 459 c 128,-1,51
 341 478 341 478 340 503 c 1,52,-1
 340 533 l 1,53,-1
 265 533 l 2,54,55
 213 533 213 533 183 515 c 0,56,57
 167 506 167 506 160 493 c 0,58,59
 154 483 154 483 154 470 c 128,-1,60
 154 457 154 457 160 447 c 0,61,62
 167 435 167 435 180 427 c 0,46,47
120 221 m 1,63,-1
 120 260 l 1,64,-1
 380 260 l 1,65,-1
 380 221 l 1,66,-1
 120 221 l 1,63,-1
EndSplineSet
EndChar

StartChar: logicalnot
Encoding: 172 172 110
Width: 500
GlyphClass: 2
Flags: W
LayerCount: 2
Fore
SplineSet
374 160 m 1,0,-1
 374 337 l 1,1,-1
 64 337 l 1,2,-1
 64 393 l 1,3,-1
 436 393 l 1,4,-1
 436 160 l 1,5,-1
 374 160 l 1,0,-1
EndSplineSet
EndChar

StartChar: registered
Encoding: 174 174 112
Width: 500
GlyphClass: 2
Flags: W
LayerCount: 2
Fore
SplineSet
250 0 m 256,0,1
 182 0 182 0 134 28 c 0,2,3
 89 54 89 54 63 99 c 0,4,5
 32 152 32 152 32 228 c 2,6,-1
 32 502 l 2,7,8
 32 578 32 578 63 631 c 0,9,10
 89 676 89 676 134 702 c 0,11,12
 182 730 182 730 250 730 c 256,13,14
 318 730 318 730 366 702 c 0,15,16
 411 676 411 676 437 631 c 0,17,18
 468 578 468 578 468 502 c 2,19,-1
 468 228 l 2,20,21
 468 152 468 152 437 99 c 0,22,23
 411 54 411 54 366 28 c 0,24,25
 318 0 318 0 250 0 c 256,0,1
130 163 m 1,26,-1
 130 567 l 1,27,-1
 259 567 l 2,28,29
 294 567 294 567 320 552 c 0,30,31
 343 539 343 539 358 514 c 1,32,33
 374 485 374 485 374 444 c 128,-1,34
 374 403 374 403 358 374 c 1,35,36
 343 349 343 349 320 336 c 0,37,38
 310 330 310 330 298 327 c 1,39,40
 324 294 324 294 342 264 c 1,41,42
 374 207 374 207 374 163 c 1,43,-1
 322 163 l 1,44,45
 321 198 321 198 296 243 c 1,46,47
 274 280 274 280 237 321 c 1,48,-1
 183 321 l 1,49,-1
 183 163 l 1,50,-1
 130 163 l 1,26,-1
259 369 m 2,51,52
 277 369 277 369 290 376.5 c 128,-1,53
 303 384 303 384 311 398 c 0,54,55
 321 416 321 416 322 444 c 1,56,57
 321 472 321 472 311 491 c 0,58,59
 303 505 303 505 290 512.5 c 128,-1,60
 277 520 277 520 259 520 c 2,61,-1
 183 520 l 1,62,-1
 183 369 l 1,63,-1
 259 369 l 2,51,52
250 51 m 256,64,65
 298 51 298 51 333 72 c 1,66,67
 367 91 367 91 386 125 c 0,68,69
 410 167 410 167 411 228 c 1,70,-1
 411 502 l 1,71,72
 410 563 410 563 386 605 c 0,73,74
 367 639 367 639 333 658 c 1,75,76
 298 679 298 679 250 679 c 256,77,78
 202 679 202 679 167 658 c 1,79,80
 133 639 133 639 114 605 c 0,81,82
 90 563 90 563 89 502 c 1,83,-1
 89 228 l 1,84,85
 90 167 90 167 114 125 c 0,86,87
 133 91 133 91 167 72 c 1,88,89
 202 51 202 51 250 51 c 256,64,65
EndSplineSet
EndChar

StartChar: macron
Encoding: 175 175 113
Width: 500
GlyphClass: 2
Flags: W
FFAnchorPoint: "Anchor-5" 436 0 basechar 0
FFAnchorPoint: "Anchor-4" 436 530 basechar 0
FFAnchorPoint: "Anchor-3" 250 265 basechar 0
FFAnchorPoint: "Anchor-2" 250 275 basechar 0
FFAnchorPoint: "Anchor-1" 250 0 basechar 0
FFAnchorPoint: "Anchor-0" 250 743 basechar 0
LayerCount: 2
Fore
SplineSet
100 657 m 1,0,-1
 100 713 l 1,1,-1
 400 713 l 1,2,-1
 400 657 l 1,3,-1
 100 657 l 1,0,-1
EndSplineSet
EndChar

StartChar: degree
Encoding: 176 176 114
Width: 500
GlyphClass: 2
Flags: W
FFAnchorPoint: "Anchor-5" 436 0 basechar 0
FFAnchorPoint: "Anchor-4" 436 530 basechar 0
FFAnchorPoint: "Anchor-3" 250 265 basechar 0
FFAnchorPoint: "Anchor-2" 250 275 basechar 0
FFAnchorPoint: "Anchor-1" 250 0 basechar 0
FFAnchorPoint: "Anchor-0" 250 743 basechar 0
LayerCount: 2
Fore
SplineSet
250 557 m 256,0,1
 216 557 216 557 193 571 c 0,2,3
 172 583 172 583 159 604 c 1,4,5
 145 629 145 629 146 662 c 1,6,7
 145 694 145 694 159 719 c 1,8,9
 172 740 172 740 193 752 c 0,10,11
 216 766 216 766 250 766 c 256,12,13
 284 766 284 766 307 752 c 0,14,15
 328 740 328 740 341 719 c 1,16,17
 355 694 355 694 354 662 c 1,18,19
 355 629 355 629 341 604 c 1,20,21
 328 583 328 583 307 571 c 0,22,23
 284 557 284 557 250 557 c 256,0,1
250 615 m 256,24,25
 271 615 271 615 283.5 628 c 128,-1,26
 296 641 296 641 296 662 c 128,-1,27
 296 683 296 683 283.5 695.5 c 128,-1,28
 271 708 271 708 250 708 c 256,29,30
 229 708 229 708 216.5 695.5 c 128,-1,31
 204 683 204 683 204 662 c 128,-1,32
 204 641 204 641 216.5 628 c 128,-1,33
 229 615 229 615 250 615 c 256,24,25
EndSplineSet
EndChar

StartChar: uni00B2
Encoding: 178 178 116
Width: 500
GlyphClass: 2
Flags: W
FFAnchorPoint: "Anchor-5" 402 298 basechar 0
FFAnchorPoint: "Anchor-4" 402 812 basechar 0
FFAnchorPoint: "Anchor-3" 250 555 basechar 0
FFAnchorPoint: "Anchor-2" 250 565 basechar 0
FFAnchorPoint: "Anchor-1" 250 298 basechar 0
FFAnchorPoint: "Anchor-0" 250 812 basechar 0
LayerCount: 2
Fore
SplineSet
403 298 m 1,0,-1
 97 299 l 1,1,2
 98 392 98 392 127 443 c 0,3,4
 155 491 155 491 238 545 c 0,5,6
 307 591 307 591 328 627 c 0,7,8
 343 654 343 654 343 680 c 0,9,10
 343 702 343 702 333 721 c 1,11,12
 322 739 322 739 304 749 c 0,13,14
 281 762 281 762 249 762 c 0,15,16
 216 762 216 762 192 749 c 1,17,18
 174 738 174 738 164 720 c 0,19,20
 156 706 156 706 154 690 c 1,21,-1
 94 704 l 1,22,23
 97 728 97 728 110 749 c 0,24,25
 127 779 127 779 157 797 c 0,26,27
 194 818 194 818 249 818 c 0,28,29
 302 818 302 818 339 797 c 0,30,31
 370 779 370 779 387 749 c 0,32,33
 406 717 406 717 405 680 c 1,34,35
 406 641 406 641 384 603 c 0,36,37
 359 561 359 561 282 507 c 1,38,39
 208 457 208 457 184 415 c 0,40,41
 169 390 169 390 164 354 c 1,42,-1
 403 354 l 1,43,-1
 403 298 l 1,0,-1
EndSplineSet
EndChar

StartChar: uni00B3
Encoding: 179 179 117
Width: 500
GlyphClass: 2
Flags: W
FFAnchorPoint: "Anchor-5" 402 298 basechar 0
FFAnchorPoint: "Anchor-4" 402 812 basechar 0
FFAnchorPoint: "Anchor-3" 250 555 basechar 0
FFAnchorPoint: "Anchor-2" 250 565 basechar 0
FFAnchorPoint: "Anchor-1" 250 298 basechar 0
FFAnchorPoint: "Anchor-0" 250 812 basechar 0
LayerCount: 2
Fore
SplineSet
248 298 m 0,0,1
 194 298 194 298 157 320 c 0,2,3
 127 337 127 337 108 368 c 1,4,5
 98 387 98 387 94 407 c 1,6,-1
 153 423 l 1,7,8
 156 409 156 409 163 397 c 0,9,10
 173 378 173 378 192 367 c 0,11,12
 216 354 216 354 248 354 c 0,13,14
 279 354 279 354 302 367 c 0,15,16
 322 378 322 378 333 398 c 0,17,18
 346 421 346 421 346 452.5 c 128,-1,19
 346 484 346 484 333 507 c 0,20,21
 321 527 321 527 302 538 c 0,22,23
 280 551 280 551 250 551 c 2,24,-1
 174 551 l 1,25,-1
 174 607 l 1,26,-1
 320 757 l 1,27,-1
 97 757 l 1,28,-1
 97 813 l 1,29,-1
 395 813 l 1,30,-1
 395 757 l 1,31,-1
 248 607 l 1,32,-1
 250 607 l 2,33,34
 302 607 302 607 338 585 c 1,35,36
 370 567 370 567 388 536 c 0,37,38
 408 501 408 501 408 453 c 0,39,40
 408 404 408 404 388 369 c 0,41,42
 370 338 370 338 338 319 c 0,43,44
 301 298 301 298 248 298 c 0,0,1
EndSplineSet
EndChar

StartChar: acute
Encoding: 180 180 118
Width: 500
GlyphClass: 2
Flags: W
LayerCount: 2
Fore
SplineSet
233 544 m 1,0,-1
 190 576 l 1,1,-1
 348 778 l 1,2,-1
 400 739 l 1,3,-1
 233 544 l 1,0,-1
EndSplineSet
EndChar

StartChar: uni00B5
Encoding: 181 181 119
Width: 500
GlyphClass: 2
Flags: W
FFAnchorPoint: "Anchor-5" 436 -205 basechar 0
FFAnchorPoint: "Anchor-4" 436 530 basechar 0
FFAnchorPoint: "Anchor-3" 250 162 basechar 0
FFAnchorPoint: "Anchor-2" 250 177 basechar 0
FFAnchorPoint: "Anchor-1" 250 -205 basechar 0
FFAnchorPoint: "Anchor-0" 250 530 basechar 0
LayerCount: 2
Fore
SplineSet
64 -205 m 1,0,-1
 64 530 l 1,1,-1
 126 530 l 1,2,-1
 126 216 l 2,3,4
 126 215 126 215 126 213.5 c 128,-1,5
 126 212 126 212 126 210 c 0,6,7
 128 147 128 147 152 107 c 0,8,9
 169 77 169 77 195 62 c 0,10,11
 219 48 219 48 250 48 c 256,12,13
 281 48 281 48 305 62 c 0,14,15
 331 77 331 77 348 107 c 0,16,17
 374 151 374 151 374 220 c 2,18,-1
 374 530 l 1,19,-1
 436 530 l 1,20,-1
 436 0 l 1,21,-1
 374 0 l 1,22,-1
 374 81 l 1,23,24
 372 77 372 77 369 72 c 0,25,26
 345 32 345 32 310 11 c 0,27,28
 277 -8 277 -8 233 -8 c 0,29,30
 190 -8 190 -8 157 11 c 0,31,32
 140 21 140 21 126 35 c 1,33,-1
 126 -205 l 1,34,-1
 64 -205 l 1,0,-1
EndSplineSet
EndChar

StartChar: paragraph
Encoding: 182 182 120
Width: 500
GlyphClass: 2
Flags: W
LayerCount: 2
Fore
SplineSet
377 0 m 1,0,-1
 377 735 l 1,1,-1
 439 735 l 1,2,-1
 439 0 l 1,3,-1
 377 0 l 1,0,-1
233 0 m 1,4,-1
 233 340 l 1,5,6
 184 340 184 340 146 362 c 0,7,8
 111 382 111 382 88 421 c 0,9,10
 61 469 61 469 61 537.5 c 128,-1,11
 61 606 61 606 88 654 c 1,12,13
 111 692 111 692 146 713 c 1,14,15
 184 734 184 734 233 735 c 1,16,-1
 295 735 l 1,17,-1
 295 0 l 1,18,-1
 233 0 l 1,4,-1
233 396 m 1,19,-1
 233 679 l 1,20,21
 204 678 204 678 182 665 c 0,22,23
 158 652 158 652 144 626 c 1,24,25
 123 591 123 591 123 537.5 c 128,-1,26
 123 484 123 484 144 449 c 1,27,28
 158 423 158 423 182 409 c 0,29,30
 204 396 204 396 233 396 c 1,19,-1
EndSplineSet
Substitution2: "Single Substitution lookup 140 subtable" paragraph.cv23
Substitution2: "'ss11' Style Set 11 lookup 139 subtable" paragraph.ss11
EndChar

StartChar: cedilla
Encoding: 184 184 122
Width: 500
GlyphClass: 2
Flags: W
FFAnchorPoint: "Anchor-5" 436 0 basechar 0
FFAnchorPoint: "Anchor-4" 436 530 basechar 0
FFAnchorPoint: "Anchor-3" 250 265 basechar 0
FFAnchorPoint: "Anchor-2" 250 275 basechar 0
FFAnchorPoint: "Anchor-1" 250 -213 basechar 0
FFAnchorPoint: "Anchor-0" 250 530 basechar 0
LayerCount: 2
Fore
SplineSet
150 -214 m 1,0,-1
 150 -158 l 1,1,-1
 250 -158 l 2,2,3
 274 -158 274 -158 287 -145 c 0,4,5
 296 -136 296 -136 296 -122 c 128,-1,6
 296 -108 296 -108 287 -99 c 0,7,8
 274 -86 274 -86 250 -86 c 2,9,-1
 219 -86 l 1,10,-1
 219 0 l 1,11,-1
 281 0 l 1,12,-1
 281 -33 l 1,13,14
 300 -37 300 -37 315 -46 c 1,15,16
 336 -57 336 -57 347 -76.5 c 128,-1,17
 358 -96 358 -96 358 -122 c 128,-1,18
 358 -148 358 -148 347 -167.5 c 128,-1,19
 336 -187 336 -187 315 -199 c 0,20,21
 289 -214 289 -214 250 -214 c 2,22,-1
 150 -214 l 1,0,-1
EndSplineSet
EndChar

StartChar: uni00B9
Encoding: 185 185 123
Width: 500
GlyphClass: 2
Flags: W
FFAnchorPoint: "Anchor-5" 402 298 basechar 0
FFAnchorPoint: "Anchor-4" 402 812 basechar 0
FFAnchorPoint: "Anchor-3" 250 555 basechar 0
FFAnchorPoint: "Anchor-2" 250 565 basechar 0
FFAnchorPoint: "Anchor-1" 250 298 basechar 0
FFAnchorPoint: "Anchor-0" 250 812 basechar 0
LayerCount: 2
Fore
SplineSet
240 298 m 1,0,-1
 240 742 l 1,1,-1
 158 685 l 1,2,-1
 122 731 l 1,3,-1
 240 813 l 1,4,-1
 302 813 l 1,5,-1
 302 298 l 1,6,-1
 240 298 l 1,0,-1
EndSplineSet
EndChar

StartChar: ordmasculine
Encoding: 186 186 124
Width: 500
GlyphClass: 2
Flags: W
LayerCount: 2
Fore
SplineSet
250 358 m 256,0,1
 199 358 199 358 164 379 c 0,2,3
 132 398 132 398 113 430 c 0,4,5
 92 467 92 467 92 518 c 2,6,-1
 92 581 l 2,7,8
 92 632 92 632 113 669 c 0,9,10
 132 701 132 701 164 720 c 0,11,12
 199 741 199 741 250 741 c 256,13,14
 301 741 301 741 336 720 c 0,15,16
 368 701 368 701 387 669 c 0,17,18
 408 632 408 632 408 581 c 2,19,-1
 408 518 l 2,20,21
 408 467 408 467 387 430 c 0,22,23
 368 398 368 398 336 379 c 0,24,25
 301 358 301 358 250 358 c 256,0,1
120 221 m 1,26,-1
 120 260 l 1,27,-1
 380 260 l 1,28,-1
 380 221 l 1,29,-1
 120 221 l 1,26,-1
250 414 m 256,30,31
 279 414 279 414 299.5 426 c 128,-1,32
 320 438 320 438 332 458 c 0,33,34
 346 483 346 483 346 518 c 2,35,-1
 346 581 l 2,36,37
 346 616 346 616 332 641 c 0,38,39
 320 661 320 661 299.5 673 c 128,-1,40
 279 685 279 685 250 685 c 256,41,42
 221 685 221 685 200.5 673 c 128,-1,43
 180 661 180 661 168 641 c 0,44,45
 154 616 154 616 154 581 c 2,46,-1
 154 518 l 2,47,48
 154 483 154 483 168 458 c 0,49,50
 180 438 180 438 200.5 426 c 128,-1,51
 221 414 221 414 250 414 c 256,30,31
EndSplineSet
EndChar

StartChar: questiondown
Encoding: 191 191 129
Width: 500
GlyphClass: 2
Flags: W
LayerCount: 2
Fore
SplineSet
250 422 m 256,0,1
 223 422 223 422 207.5 437.5 c 128,-1,2
 192 453 192 453 192 480 c 128,-1,3
 192 507 192 507 207.5 522.5 c 128,-1,4
 223 538 223 538 250 538 c 256,5,6
 277 538 277 538 292.5 522.5 c 128,-1,7
 308 507 308 507 308 480 c 128,-1,8
 308 453 308 453 292.5 437.5 c 128,-1,9
 277 422 277 422 250 422 c 256,0,1
253 -213 m 0,10,11
 191 -213 191 -213 147 -188 c 0,12,13
 109 -166 109 -166 88 -129 c 0,14,15
 64 -87 64 -87 64 -36 c 0,16,17
 64 20 64 20 94 72 c 0,18,19
 111 101 111 101 153 149 c 0,20,21
 183 183 183 183 196 205 c 0,22,23
 219 245 219 245 219 310 c 1,24,-1
 281 309 l 1,25,26
 281 225 281 225 252 174 c 0,27,28
 236 147 236 147 194 100 c 0,29,30
 162 63 162 63 148 39 c 0,31,32
 126 1 126 1 126 -37 c 0,33,34
 126 -72 126 -72 142 -100 c 0,35,36
 157 -125 157 -125 182 -140 c 0,37,38
 212 -157 212 -157 253 -157 c 0,39,40
 297 -157 297 -157 327 -139 c 0,41,42
 352 -125 352 -125 366 -101 c 0,43,44
 379 -78 379 -78 380 -51 c 0,45,46
 380 -50 380 -50 379.5 -47.5 c 128,-1,47
 379 -45 379 -45 379 -43 c 1,48,-1
 441 -50 l 1,49,50
 441 -53 441 -53 441 -56 c 0,51,52
 441 -95 441 -95 421 -130 c 0,53,54
 401 -166 401 -166 363 -187 c 1,55,56
 319 -213 319 -213 253 -213 c 0,10,11
EndSplineSet
EndChar

StartChar: AE
Encoding: 198 198 136
Width: 500
GlyphClass: 2
Flags: W
FFAnchorPoint: "Anchor-5" 436 0 basechar 0
FFAnchorPoint: "Anchor-4" 436 735 basechar 0
FFAnchorPoint: "Anchor-3" 250 367 basechar 0
FFAnchorPoint: "Anchor-2" 250 382 basechar 0
FFAnchorPoint: "Anchor-1" 250 0 basechar 0
FFAnchorPoint: "Anchor-0" 250 735 basechar 0
LayerCount: 2
Fore
SplineSet
64 0 m 1,0,-1
 64 74 l 2,1,2
 64 274 64 274 208 735 c 1,3,-1
 436 735 l 1,4,-1
 436 679 l 1,5,-1
 298 679 l 1,6,-1
 298 425 l 1,7,-1
 422 425 l 1,8,-1
 422 369 l 1,9,-1
 298 369 l 1,10,-1
 298 56 l 1,11,-1
 436 56 l 1,12,-1
 436 0 l 1,13,-1
 236 0 l 1,14,-1
 236 209 l 1,15,-1
 137 209 l 1,16,17
 126 131 126 131 126 74 c 2,18,-1
 126 0 l 1,19,-1
 64 0 l 1,0,-1
146 265 m 1,20,-1
 236 265 l 1,21,-1
 236 651 l 1,22,23
 173 423 173 423 146 265 c 1,20,-1
EndSplineSet
EndChar

StartChar: Eth
Encoding: 208 208 146
Width: 500
GlyphClass: 2
Flags: W
FFAnchorPoint: "Anchor-5" 436 0 basechar 0
FFAnchorPoint: "Anchor-4" 436 735 basechar 0
FFAnchorPoint: "Anchor-3" 250 367 basechar 0
FFAnchorPoint: "Anchor-2" 250 382 basechar 0
FFAnchorPoint: "Anchor-1" 250 0 basechar 0
FFAnchorPoint: "Anchor-0" 250 735 basechar 0
LayerCount: 2
Fore
SplineSet
64 0 m 1,0,-1
 64 354 l 1,1,-1
 19 354 l 1,2,-1
 19 410 l 1,3,-1
 64 410 l 1,4,-1
 64 735 l 1,5,-1
 221 735 l 2,6,7
 285 735 285 735 332 708 c 0,8,9
 378 681 378 681 407 631 c 0,10,11
 444 566 444 566 444 472 c 2,12,-1
 444 263 l 2,13,14
 444 169 444 169 407 104 c 0,15,16
 378 54 378 54 332 27 c 0,17,18
 285 0 285 0 221 0 c 2,19,-1
 64 0 l 1,0,-1
126 56 m 1,20,-1
 221 56 l 2,21,22
 264 56 264 56 297 75 c 128,-1,23
 330 94 330 94 352 132 c 0,24,25
 382 184 382 184 382 263 c 2,26,-1
 382 472 l 2,27,28
 382 551 382 551 352 603 c 0,29,30
 330 641 330 641 297 660 c 128,-1,31
 264 679 264 679 221 679 c 2,32,-1
 126 679 l 1,33,-1
 126 410 l 1,34,-1
 263 410 l 1,35,-1
 263 354 l 1,36,-1
 126 354 l 1,37,-1
 126 56 l 1,20,-1
EndSplineSet
EndChar

StartChar: Oslash
Encoding: 216 216 154
Width: 500
GlyphClass: 2
Flags: W
FFAnchorPoint: "Anchor-5" 436 0 basechar 0
FFAnchorPoint: "Anchor-4" 436 735 basechar 0
FFAnchorPoint: "Anchor-3" 250 367 basechar 0
FFAnchorPoint: "Anchor-2" 250 382 basechar 0
FFAnchorPoint: "Anchor-1" 250 0 basechar 0
FFAnchorPoint: "Anchor-0" 250 735 basechar 0
LayerCount: 2
Fore
SplineSet
113 -47 m 1,0,-1
 55 -26 l 1,1,-1
 93 66 l 1,2,3
 88 72 88 72 83 80 c 0,4,5
 56 128 56 128 56 195 c 2,6,-1
 56 540 l 2,7,8
 56 607 56 607 83 655 c 1,9,10
 107 695 107 695 147 718 c 0,11,12
 190 743 190 743 250 743 c 256,13,14
 310 743 310 743 353 718 c 0,15,16
 356 716 356 716 359 714 c 1,17,-1
 387 782 l 1,18,-1
 445 761 l 1,19,-1
 407 669 l 1,20,21
 412 663 412 663 417 655 c 0,22,23
 444 607 444 607 444 540 c 2,24,-1
 444 195 l 2,25,26
 444 128 444 128 417 80 c 1,27,28
 393 40 393 40 353 17 c 0,29,30
 310 -8 310 -8 250 -8 c 256,31,32
 190 -8 190 -8 147 17 c 0,33,34
 144 19 144 19 141 21 c 1,35,-1
 113 -47 l 1,0,-1
250 48 m 256,36,37
 289 48 289 48 318 64 c 1,38,39
 345 81 345 81 361 109 c 0,40,41
 382 144 382 144 382 195 c 2,42,-1
 382 540 l 2,43,44
 382 568 382 568 375 592 c 1,45,-1
 164 77 l 1,46,47
 172 70 172 70 182 64 c 0,48,49
 211 48 211 48 250 48 c 256,36,37
125 143 m 1,50,-1
 336 658 l 1,51,52
 328 665 328 665 318 671 c 0,53,54
 289 687 289 687 250 687 c 256,55,56
 211 687 211 687 182 671 c 1,57,58
 155 654 155 654 139 626 c 0,59,60
 118 591 118 591 118 540 c 2,61,-1
 118 195 l 2,62,63
 118 167 118 167 125 143 c 1,50,-1
EndSplineSet
EndChar

StartChar: Thorn
Encoding: 222 222 160
Width: 500
GlyphClass: 2
Flags: W
FFAnchorPoint: "Anchor-5" 436 0 basechar 0
FFAnchorPoint: "Anchor-4" 436 735 basechar 0
FFAnchorPoint: "Anchor-3" 250 367 basechar 0
FFAnchorPoint: "Anchor-2" 250 382 basechar 0
FFAnchorPoint: "Anchor-1" 250 0 basechar 0
FFAnchorPoint: "Anchor-0" 250 735 basechar 0
LayerCount: 2
Fore
SplineSet
80 0 m 1,0,-1
 80 735 l 1,1,-1
 142 735 l 1,2,-1
 142 595 l 1,3,-1
 208 595 l 2,4,5
 285 595 285 595 341 564 c 1,6,7
 387 537 387 537 415 490 c 1,8,9
 444 438 444 438 444 367.5 c 128,-1,10
 444 297 444 297 415 245 c 1,11,12
 387 198 387 198 341 171 c 1,13,14
 285 140 285 140 208 140 c 2,15,-1
 142 140 l 1,16,-1
 142 0 l 1,17,-1
 80 0 l 1,0,-1
142 196 m 1,18,-1
 208 196 l 2,19,20
 264 196 264 196 304 219 c 0,21,22
 339 239 339 239 359 274 c 1,23,24
 382 312 382 312 382 367.5 c 128,-1,25
 382 423 382 423 359 461 c 1,26,27
 339 496 339 496 304 516 c 0,28,29
 264 539 264 539 208 539 c 2,30,-1
 142 539 l 1,31,-1
 142 196 l 1,18,-1
EndSplineSet
EndChar

StartChar: germandbls
Encoding: 223 223 161
Width: 500
GlyphClass: 2
Flags: W
FFAnchorPoint: "Anchor-5" 436 0 basechar 0
FFAnchorPoint: "Anchor-4" 436 735 basechar 0
FFAnchorPoint: "Anchor-3" 250 367 basechar 0
FFAnchorPoint: "Anchor-2" 250 382 basechar 0
FFAnchorPoint: "Anchor-1" 250 0 basechar 0
FFAnchorPoint: "Anchor-0" 250 735 basechar 0
LayerCount: 2
Fore
SplineSet
64 0 m 1,0,-1
 64 530 l 2,1,2
 64 607 64 607 94 660 c 1,3,4
 118 700 118 700 155 721.5 c 128,-1,5
 192 743 192 743 243 743 c 0,6,7
 295 743 295 743 335 721 c 1,8,9
 372 699 372 699 393 661 c 1,10,11
 420 615 420 615 420 555 c 0,12,13
 420 492 420 492 389 439 c 0,14,15
 367 400 367 400 332 375 c 1,16,17
 343 371 343 371 353 365 c 0,18,19
 396 340 396 340 419 299 c 1,20,21
 444 257 444 257 444 198 c 128,-1,22
 444 139 444 139 419 96 c 0,23,24
 396 55 396 55 353 30 c 0,25,26
 300 0 300 0 224 0 c 2,27,-1
 176 0 l 1,28,-1
 176 56 l 1,29,-1
 224 56 l 2,30,31
 279 56 279 56 316 78 c 1,32,33
 347 95 347 95 364.5 125 c 128,-1,34
 382 155 382 155 382 197.5 c 128,-1,35
 382 240 382 240 364.5 270 c 128,-1,36
 347 300 347 300 316 318 c 0,37,38
 279 339 279 339 224 340 c 1,39,-1
 224 396 l 1,40,41
 255 396 255 396 284 412 c 0,42,43
 315 430 315 430 334 464 c 1,44,45
 358 504 358 504 358 554 c 0,46,47
 358 600 358 600 338 633 c 1,48,49
 324 659 324 659 299.5 673 c 128,-1,50
 275 687 275 687 243 687 c 0,51,52
 212 687 212 687 190 674 c 0,53,54
 166 660 166 660 149 632 c 0,55,56
 126 592 126 592 126 530 c 2,57,-1
 126 0 l 1,58,-1
 64 0 l 1,0,-1
EndSplineSet
Substitution2: "'ss11' Style Set 11 lookup 128 subtable" germandbls.ss11
Substitution2: "Single Substitution lookup 127 subtable" germandbls.cv34
EndChar

StartChar: ae
Encoding: 230 230 168
Width: 500
GlyphClass: 2
Flags: W
FFAnchorPoint: "Anchor-5" 436 0 basechar 0
FFAnchorPoint: "Anchor-4" 436 530 basechar 0
FFAnchorPoint: "Anchor-3" 250 265 basechar 0
FFAnchorPoint: "Anchor-2" 250 275 basechar 0
FFAnchorPoint: "Anchor-1" 250 0 basechar 0
FFAnchorPoint: "Anchor-0" 250 530 basechar 0
LayerCount: 2
Fore
SplineSet
165 -8 m 256,0,1
 133 -8 133 -8 109 6 c 128,-1,2
 85 20 85 20 69 47 c 0,3,4
 48 84 48 84 48 139 c 128,-1,5
 48 194 48 194 70 233 c 1,6,7
 91 268 91 268 124 287 c 0,8,9
 163 309 163 309 216 309 c 2,10,-1
 219 309 l 1,11,-1
 219 398 l 2,12,13
 219 447 219 447 197 469 c 0,14,15
 184 482 184 482 166 482 c 256,16,17
 148 482 148 482 136 469 c 1,18,19
 113 447 113 447 113 401 c 0,20,21
 113 400 113 400 113 399 c 2,22,-1
 51 400 l 1,23,24
 51 402 51 402 51 404 c 0,25,26
 51 449 51 449 71 484 c 0,27,28
 86 510 86 510 110 524 c 128,-1,29
 134 538 134 538 166 538 c 256,30,31
 198 538 198 538 222 524 c 0,32,33
 238 515 238 515 250 500 c 1,34,35
 262 515 262 515 279 524 c 0,36,37
 303 538 303 538 335 538 c 0,38,39
 368 538 368 538 392 524 c 0,40,41
 417 510 417 510 432 484 c 0,42,43
 452 449 452 449 452 398 c 2,44,-1
 452 237 l 1,45,-1
 281 237 l 1,46,-1
 281 132 l 2,47,48
 281 84 281 84 304 62 c 0,49,50
 318 48 318 48 338 48 c 256,51,52
 358 48 358 48 372 62 c 0,53,54
 395 84 395 84 395 131 c 1,55,-1
 457 130 l 1,56,57
 457 128 457 128 457 126 c 0,58,59
 457 82 457 82 437 47 c 0,60,61
 422 21 422 21 397 6.5 c 128,-1,62
 372 -8 372 -8 338 -8 c 256,63,64
 304 -8 304 -8 279 6 c 0,65,66
 263 16 263 16 250 31 c 1,67,68
 238 16 238 16 221 6 c 0,69,70
 197 -8 197 -8 165 -8 c 256,0,1
281 293 m 1,71,-1
 390 293 l 1,72,-1
 390 398 l 2,73,74
 390 447 390 447 367 469 c 1,75,76
 355 482 355 482 335 482 c 0,77,78
 316 482 316 482 304 469 c 1,79,80
 281 447 281 447 281 398 c 2,81,-1
 281 293 l 1,71,-1
134 61 m 0,82,83
 147 48 147 48 165.5 48 c 128,-1,84
 184 48 184 48 196 61 c 1,85,86
 219 83 219 83 219 132 c 2,87,-1
 219 253 l 1,88,-1
 216 253 l 2,89,90
 184 253 184 253 160 240 c 1,91,92
 139 227 139 227 126 205 c 0,93,94
 110 178 110 178 110 138 c 0,95,96
 110 84 110 84 134 61 c 0,82,83
EndSplineSet
EndChar

StartChar: eth
Encoding: 240 240 178
Width: 500
GlyphClass: 2
Flags: W
FFAnchorPoint: "Anchor-5" 436 0 basechar 0
FFAnchorPoint: "Anchor-4" 436 735 basechar 0
FFAnchorPoint: "Anchor-3" 250 367 basechar 0
FFAnchorPoint: "Anchor-2" 250 382 basechar 0
FFAnchorPoint: "Anchor-1" 250 0 basechar 0
FFAnchorPoint: "Anchor-0" 250 735 basechar 0
LayerCount: 2
Fore
SplineSet
250 -8 m 256,0,1
 195 -8 195 -8 154 15.5 c 128,-1,2
 113 39 113 39 88 82 c 0,3,4
 56 138 56 138 56 220 c 2,5,-1
 56 221 l 2,6,7
 56 303 56 303 88 359 c 0,8,9
 113 402 113 402 154 425.5 c 128,-1,10
 195 449 195 449 250 449 c 256,11,12
 305 449 305 449 346 425 c 0,13,14
 351 422 351 422 356 419 c 1,15,16
 341 472 341 472 316 515 c 0,17,18
 311 524 311 524 305 533 c 1,19,-1
 109 482 l 1,20,-1
 93 537 l 1,21,-1
 267 582 l 1,22,23
 231 621 231 621 184 649 c 1,24,25
 148 669 148 669 109 681 c 1,26,-1
 126 735 l 1,27,28
 175 721 175 721 219 695 c 0,29,30
 285 657 285 657 333 599 c 1,31,-1
 410 619 l 1,32,-1
 425 564 l 1,33,-1
 367 549 l 1,34,35
 368 548 368 548 369 546 c 128,-1,36
 370 544 370 544 371 542 c 0,37,38
 444 417 444 417 444 221 c 2,39,-1
 444 220 l 2,40,41
 444 138 444 138 412 82 c 0,42,43
 387 39 387 39 346 15.5 c 128,-1,44
 305 -8 305 -8 250 -8 c 256,0,1
250 48 m 256,45,46
 285 48 285 48 311 63 c 0,47,48
 338 79 338 79 357 110 c 1,49,50
 382 154 382 154 382 221 c 0,51,52
 382 287 382 287 357 331 c 1,53,54
 338 362 338 362 311 378 c 0,55,56
 285 393 285 393 250 393 c 256,57,58
 215 393 215 393 189 378 c 0,59,60
 162 362 162 362 143 331 c 1,61,62
 118 287 118 287 118 221 c 2,63,-1
 118 220 l 2,64,65
 118 154 118 154 143 110 c 1,66,67
 162 79 162 79 189 63 c 0,68,69
 215 48 215 48 250 48 c 256,45,46
EndSplineSet
EndChar

StartChar: divide
Encoding: 247 247 185
Width: 500
GlyphClass: 2
Flags: W
FFAnchorPoint: "Anchor-5" 436 0 basechar 0
FFAnchorPoint: "Anchor-4" 436 530 basechar 0
FFAnchorPoint: "Anchor-3" 250 365 basechar 0
FFAnchorPoint: "Anchor-2" 250 373 basechar 0
FFAnchorPoint: "Anchor-1" 250 160 basechar 0
FFAnchorPoint: "Anchor-0" 250 569 basechar 0
LayerCount: 2
Fore
SplineSet
250 501 m 256,0,1
 221 501 221 501 205 517 c 0,2,3
 192 530 192 530 192 551 c 128,-1,4
 192 572 192 572 205 585 c 0,5,6
 221 601 221 601 250 601 c 256,7,8
 279 601 279 601 295 585 c 0,9,10
 308 572 308 572 308 551 c 128,-1,11
 308 530 308 530 295 517 c 0,12,13
 279 501 279 501 250 501 c 256,0,1
64 337 m 1,14,-1
 64 393 l 1,15,-1
 436 393 l 1,16,-1
 436 337 l 1,17,-1
 64 337 l 1,14,-1
250 129 m 256,18,19
 221 129 221 129 205 145 c 0,20,21
 192 158 192 158 192 179 c 128,-1,22
 192 200 192 200 205 213 c 0,23,24
 221 229 221 229 250 229 c 256,25,26
 279 229 279 229 295 213 c 0,27,28
 308 200 308 200 308 179 c 128,-1,29
 308 158 308 158 295 145 c 0,30,31
 279 129 279 129 250 129 c 256,18,19
EndSplineSet
EndChar

StartChar: oslash
Encoding: 248 248 186
Width: 500
GlyphClass: 2
Flags: W
FFAnchorPoint: "Anchor-5" 436 0 basechar 0
FFAnchorPoint: "Anchor-4" 436 530 basechar 0
FFAnchorPoint: "Anchor-3" 250 265 basechar 0
FFAnchorPoint: "Anchor-2" 250 275 basechar 0
FFAnchorPoint: "Anchor-1" 250 0 basechar 0
FFAnchorPoint: "Anchor-0" 250 530 basechar 0
LayerCount: 2
Fore
SplineSet
111 -40 m 1,0,-1
 57 -13 l 1,1,-1
 100 64 l 1,2,3
 94 72 94 72 88 82 c 0,4,5
 56 138 56 138 56 220 c 2,6,-1
 56 310 l 2,7,8
 56 392 56 392 88 448 c 0,9,10
 113 491 113 491 154 514.5 c 128,-1,11
 195 538 195 538 250 538 c 256,12,13
 305 538 305 538 346 514 c 0,14,15
 350 512 350 512 354 509 c 1,16,-1
 389 570 l 1,17,-1
 443 543 l 1,18,-1
 400 466 l 1,19,20
 406 458 406 458 412 448 c 0,21,22
 444 392 444 392 444 310 c 2,23,-1
 444 220 l 2,24,25
 444 138 444 138 412 82 c 0,26,27
 387 39 387 39 346 15.5 c 128,-1,28
 305 -8 305 -8 250 -8 c 256,29,30
 195 -8 195 -8 154 16 c 0,31,32
 150 18 150 18 146 21 c 1,33,-1
 111 -40 l 1,0,-1
250 48 m 256,34,35
 285 48 285 48 311 63 c 0,36,37
 338 79 338 79 357 110 c 1,38,39
 382 154 382 154 382 220 c 2,40,-1
 382 310 l 2,41,42
 382 365 382 365 364 405 c 1,43,-1
 175 72 l 1,44,45
 182 67 182 67 189 63 c 0,46,47
 215 48 215 48 250 48 c 256,34,35
136 125 m 1,48,-1
 325 458 l 1,49,50
 318 463 318 463 311 467 c 0,51,52
 285 482 285 482 250 482 c 256,53,54
 215 482 215 482 189 467 c 0,55,56
 162 451 162 451 143 420 c 1,57,58
 118 376 118 376 118 310 c 2,59,-1
 118 220 l 2,60,61
 118 165 118 165 136 125 c 1,48,-1
EndSplineSet
EndChar

StartChar: thorn
Encoding: 254 254 192
Width: 500
GlyphClass: 2
Flags: W
FFAnchorPoint: "Anchor-5" 436 -205 basechar 0
FFAnchorPoint: "Anchor-4" 436 735 basechar 0
FFAnchorPoint: "Anchor-3" 250 265 basechar 0
FFAnchorPoint: "Anchor-2" 250 283 basechar 0
FFAnchorPoint: "Anchor-1" 250 -205 basechar 0
FFAnchorPoint: "Anchor-0" 250 735 basechar 0
LayerCount: 2
Fore
SplineSet
64 -205 m 1,0,-1
 64 735 l 1,1,-1
 126 735 l 1,2,-1
 126 449 l 1,3,4
 128 453 128 453 131 458 c 0,5,6
 155 498 155 498 190 519 c 0,7,8
 223 538 223 538 267 538 c 0,9,10
 314 538 314 538 349 518 c 0,11,12
 387 496 387 496 411 455 c 0,13,14
 444 397 444 397 444 310 c 2,15,-1
 444 220 l 2,16,17
 444 133 444 133 411 75 c 0,18,19
 387 34 387 34 349 12 c 0,20,21
 314 -8 314 -8 267 -8 c 0,22,23
 223 -8 223 -8 190 11 c 0,24,25
 155 32 155 32 131 72 c 0,26,27
 128 77 128 77 126 81 c 1,28,-1
 126 -205 l 1,29,-1
 64 -205 l 1,0,-1
251 48 m 0,30,31
 285 48 285 48 311 63 c 0,32,33
 338 79 338 79 357 110 c 1,34,35
 382 154 382 154 382 220 c 2,36,-1
 382 310 l 2,37,38
 382 376 382 376 357 420 c 1,39,40
 338 451 338 451 311 467 c 0,41,42
 285 482 285 482 251 482 c 0,43,44
 219 482 219 482 195 468 c 0,45,46
 169 453 169 453 152 423 c 0,47,48
 126 379 126 379 126 310 c 2,49,-1
 126 220 l 2,50,51
 126 151 126 151 152 107 c 0,52,53
 169 77 169 77 195 62 c 0,54,55
 219 48 219 48 251 48 c 0,30,31
EndSplineSet
EndChar

StartChar: dcaron
Encoding: 271 271 209
Width: 500
GlyphClass: 2
Flags: W
FFAnchorPoint: "Anchor-5" 436 0 basechar 0
FFAnchorPoint: "Anchor-4" 436 735 basechar 0
FFAnchorPoint: "Anchor-3" 250 367 basechar 0
FFAnchorPoint: "Anchor-2" 250 382 basechar 0
FFAnchorPoint: "Anchor-1" 250 0 basechar 0
FFAnchorPoint: "Anchor-0" 250 735 basechar 0
LayerCount: 2
Fore
SplineSet
478 556 m 1,0,-1
 440 582 l 1,1,2
 470 623 470 623 478 679 c 1,3,4
 464 681 464 681 455 690 c 0,5,6
 443 701 443 701 444 721 c 1,7,8
 443 740 443 740 454.5 751.5 c 128,-1,9
 466 763 466 763 486 763 c 256,10,11
 506 763 506 763 517 752 c 128,-1,12
 528 741 528 741 529 721 c 1,13,14
 528 622 528 622 478 556 c 1,0,-1
220 -8 m 0,15,16
 179 -8 179 -8 148 10 c 0,17,18
 113 30 113 30 90 70 c 0,19,20
 56 129 56 129 56 220 c 2,21,-1
 56 310 l 2,22,23
 56 401 56 401 90 460 c 0,24,25
 113 500 113 500 148 520 c 0,26,27
 179 538 179 538 220 538 c 0,28,29
 259 538 259 538 288 521 c 0,30,31
 321 502 321 502 343 464 c 0,32,33
 346 458 346 458 349 453 c 1,34,-1
 349 735 l 1,35,-1
 411 735 l 1,36,-1
 411 0 l 1,37,-1
 349 0 l 1,38,-1
 349 77 l 1,39,40
 346 72 346 72 343 66 c 0,41,42
 321 28 321 28 288 9 c 0,43,44
 259 -8 259 -8 220 -8 c 0,15,16
237 48 m 0,45,46
 263 48 263 48 283 59 c 1,47,48
 306 73 306 73 323 101 c 0,49,50
 349 146 349 146 349 220 c 2,51,-1
 349 310 l 2,52,53
 349 384 349 384 323 429 c 0,54,55
 306 457 306 457 283 471 c 1,56,57
 263 482 263 482 237 482 c 0,58,59
 208 482 208 482 186 469 c 0,60,61
 161 455 161 455 144 425 c 0,62,63
 118 381 118 381 118 310 c 2,64,-1
 118 220 l 2,65,66
 118 149 118 149 144 105 c 0,67,68
 161 75 161 75 186 61 c 0,69,70
 208 48 208 48 237 48 c 0,45,46
EndSplineSet
EndChar

StartChar: dcroat
Encoding: 273 273 211
Width: 500
GlyphClass: 2
Flags: W
FFAnchorPoint: "Anchor-5" 436 0 basechar 0
FFAnchorPoint: "Anchor-4" 436 735 basechar 0
FFAnchorPoint: "Anchor-3" 250 367 basechar 0
FFAnchorPoint: "Anchor-2" 250 382 basechar 0
FFAnchorPoint: "Anchor-1" 250 0 basechar 0
FFAnchorPoint: "Anchor-0" 250 735 basechar 0
LayerCount: 2
Fore
SplineSet
233 -8 m 0,0,1
 186 -8 186 -8 151 12 c 0,2,3
 113 34 113 34 89 75 c 0,4,5
 56 133 56 133 56 220 c 2,6,-1
 56 310 l 2,7,8
 56 397 56 397 89 455 c 0,9,10
 113 496 113 496 151 518 c 0,11,12
 186 538 186 538 233 538 c 0,13,14
 277 538 277 538 310 519 c 0,15,16
 345 498 345 498 369 458 c 0,17,18
 372 453 372 453 374 449 c 1,19,-1
 374 594 l 1,20,-1
 250 594 l 1,21,-1
 250 650 l 1,22,-1
 374 650 l 1,23,-1
 374 735 l 1,24,-1
 436 735 l 1,25,-1
 436 650 l 1,26,-1
 481 650 l 1,27,-1
 481 594 l 1,28,-1
 436 594 l 1,29,-1
 436 0 l 1,30,-1
 374 0 l 1,31,-1
 374 81 l 1,32,33
 372 77 372 77 369 72 c 0,34,35
 345 32 345 32 310 11 c 0,36,37
 277 -8 277 -8 233 -8 c 0,0,1
249 48 m 0,38,39
 281 48 281 48 305 62 c 0,40,41
 331 77 331 77 348 107 c 0,42,43
 374 151 374 151 374 220 c 2,44,-1
 374 310 l 2,45,46
 374 379 374 379 348 423 c 0,47,48
 331 453 331 453 305 468 c 0,49,50
 281 482 281 482 249 482 c 0,51,52
 215 482 215 482 189 467 c 0,53,54
 162 451 162 451 143 420 c 1,55,56
 118 376 118 376 118 310 c 2,57,-1
 118 220 l 2,58,59
 118 154 118 154 143 110 c 1,60,61
 162 79 162 79 189 63 c 0,62,63
 215 48 215 48 249 48 c 0,38,39
EndSplineSet
EndChar

StartChar: Hbar
Encoding: 294 294 232
Width: 500
GlyphClass: 2
Flags: W
FFAnchorPoint: "Anchor-5" 436 0 basechar 0
FFAnchorPoint: "Anchor-4" 436 735 basechar 0
FFAnchorPoint: "Anchor-3" 250 367 basechar 0
FFAnchorPoint: "Anchor-2" 250 382 basechar 0
FFAnchorPoint: "Anchor-1" 250 0 basechar 0
FFAnchorPoint: "Anchor-0" 250 735 basechar 0
LayerCount: 2
Fore
SplineSet
64 0 m 1,0,-1
 64 505 l 1,1,-1
 19 505 l 1,2,-1
 19 561 l 1,3,-1
 64 561 l 1,4,-1
 64 735 l 1,5,-1
 126 735 l 1,6,-1
 126 561 l 1,7,-1
 374 561 l 1,8,-1
 374 735 l 1,9,-1
 436 735 l 1,10,-1
 436 561 l 1,11,-1
 481 561 l 1,12,-1
 481 505 l 1,13,-1
 436 505 l 1,14,-1
 436 0 l 1,15,-1
 374 0 l 1,16,-1
 374 358 l 1,17,-1
 126 358 l 1,18,-1
 126 0 l 1,19,-1
 64 0 l 1,0,-1
126 414 m 1,20,-1
 374 414 l 1,21,-1
 374 505 l 1,22,-1
 126 505 l 1,23,-1
 126 414 l 1,20,-1
EndSplineSet
EndChar

StartChar: hbar
Encoding: 295 295 233
Width: 500
GlyphClass: 2
Flags: W
FFAnchorPoint: "Anchor-5" 436 0 basechar 0
FFAnchorPoint: "Anchor-4" 436 735 basechar 0
FFAnchorPoint: "Anchor-3" 250 367 basechar 0
FFAnchorPoint: "Anchor-2" 250 382 basechar 0
FFAnchorPoint: "Anchor-1" 250 0 basechar 0
FFAnchorPoint: "Anchor-0" 250 735 basechar 0
LayerCount: 2
Fore
SplineSet
64 0 m 1,0,-1
 64 594 l 1,1,-1
 19 594 l 1,2,-1
 19 650 l 1,3,-1
 64 650 l 1,4,-1
 64 735 l 1,5,-1
 126 735 l 1,6,-1
 126 650 l 1,7,-1
 250 650 l 1,8,-1
 250 594 l 1,9,-1
 126 594 l 1,10,-1
 126 449 l 1,11,12
 128 453 128 453 131 458 c 0,13,14
 155 498 155 498 190 519 c 0,15,16
 223 538 223 538 267 538 c 0,17,18
 310 538 310 538 343 519 c 0,19,20
 379 498 379 498 402 458 c 0,21,22
 436 400 436 400 436 310 c 2,23,-1
 436 0 l 1,24,-1
 374 0 l 1,25,-1
 374 310 l 2,26,27
 374 379 374 379 348 423 c 0,28,29
 331 453 331 453 305 468 c 0,30,31
 281 482 281 482 250 482 c 256,32,33
 219 482 219 482 195 468 c 0,34,35
 169 453 169 453 152 423 c 0,36,37
 126 379 126 379 126 310 c 2,38,-1
 126 0 l 1,39,-1
 64 0 l 1,0,-1
EndSplineSet
EndChar

StartChar: dotlessi
Encoding: 305 305 243
Width: 500
GlyphClass: 2
Flags: W
FFAnchorPoint: "Anchor-5" 436 0 basechar 0
FFAnchorPoint: "Anchor-4" 436 530 basechar 0
FFAnchorPoint: "Anchor-3" 250 265 basechar 0
FFAnchorPoint: "Anchor-2" 250 275 basechar 0
FFAnchorPoint: "Anchor-1" 250 0 basechar 0
FFAnchorPoint: "Anchor-0" 250 530 basechar 0
LayerCount: 2
Fore
SplineSet
75 0 m 1,0,-1
 75 56 l 1,1,-1
 226 56 l 1,2,-1
 226 474 l 1,3,-1
 89 474 l 1,4,-1
 89 530 l 1,5,-1
 288 530 l 1,6,-1
 288 56 l 1,7,-1
 425 56 l 1,8,-1
 425 0 l 1,9,-1
 75 0 l 1,0,-1
EndSplineSet
Substitution2: "'cv04' Character Variants 04 lookup 109 subtable" dotlessi.cv04
Substitution2: "'ss11' Style Set 11 lookup 108 subtable" dotlessi.ss11
Substitution2: "'ss07' Style Set 7 lookup 107 subtable" dotlessi.ss07
Substitution2: "'ss10' Style Set 10 lookup 106 subtable" dotlessi.ss10
EndChar

StartChar: IJ
Encoding: 306 306 244
Width: 500
GlyphClass: 2
Flags: W
FFAnchorPoint: "Anchor-5" 436 0 basechar 0
FFAnchorPoint: "Anchor-4" 436 735 basechar 0
FFAnchorPoint: "Anchor-3" 250 367 basechar 0
FFAnchorPoint: "Anchor-2" 250 382 basechar 0
FFAnchorPoint: "Anchor-1" 250 0 basechar 0
FFAnchorPoint: "Anchor-0" 250 735 basechar 0
LayerCount: 2
Fore
SplineSet
197 -8 m 1,0,-1
 199 48 l 1,1,2
 279 48 279 48 316 69 c 0,3,4
 342 84 342 84 357 110 c 0,5,6
 374 140 374 140 374 197 c 2,7,-1
 374 735 l 1,8,-1
 436 735 l 1,9,-1
 436 197 l 2,10,11
 436 117 436 117 412 77 c 1,12,13
 392 41 392 41 356 21 c 0,14,15
 331 6 331 6 291.5 -1 c 128,-1,16
 252 -8 252 -8 197 -8 c 1,0,-1
64 0 m 1,17,-1
 64 735 l 1,18,-1
 126 735 l 1,19,-1
 126 0 l 1,20,-1
 64 0 l 1,17,-1
EndSplineSet
EndChar

StartChar: ij
Encoding: 307 307 245
Width: 500
GlyphClass: 2
Flags: W
FFAnchorPoint: "Anchor-5" 436 -205 basechar 0
FFAnchorPoint: "Anchor-4" 436 735 basechar 0
FFAnchorPoint: "Anchor-3" 250 265 basechar 0
FFAnchorPoint: "Anchor-2" 250 283 basechar 0
FFAnchorPoint: "Anchor-1" 250 -205 basechar 0
FFAnchorPoint: "Anchor-0" 250 735 basechar 0
LayerCount: 2
Fore
SplineSet
127 635 m 256,0,1
 104 635 104 635 90.5 648.5 c 128,-1,2
 77 662 77 662 77 685 c 128,-1,3
 77 708 77 708 90.5 721.5 c 128,-1,4
 104 735 104 735 127 735 c 256,5,6
 150 735 150 735 163.5 721.5 c 128,-1,7
 177 708 177 708 177 685 c 128,-1,8
 177 662 177 662 163.5 648.5 c 128,-1,9
 150 635 150 635 127 635 c 256,0,1
373 635 m 256,10,11
 350 635 350 635 336.5 648.5 c 128,-1,12
 323 662 323 662 323 685 c 128,-1,13
 323 708 323 708 336.5 721.5 c 128,-1,14
 350 735 350 735 373 735 c 256,15,16
 396 735 396 735 409.5 721.5 c 128,-1,17
 423 708 423 708 423 685 c 128,-1,18
 423 662 423 662 409.5 648.5 c 128,-1,19
 396 635 396 635 373 635 c 256,10,11
240 -213 m 256,20,21
 195 -213 195 -213 162 -194 c 0,22,23
 127 -174 127 -174 106 -136 c 1,24,25
 88 -106 88 -106 82 -70 c 1,26,-1
 140 -51 l 1,27,28
 146 -84 146 -84 160 -108.5 c 128,-1,29
 174 -133 174 -133 196 -146 c 0,30,31
 215 -157 215 -157 240 -157 c 256,32,33
 265 -157 265 -157 284 -146 c 0,34,35
 305 -134 305 -134 320 -109 c 0,36,37
 342 -70 342 -70 342 -10 c 2,38,-1
 342 530 l 1,39,-1
 404 530 l 1,40,-1
 404 -10 l 2,41,42
 404 -85 404 -85 375 -136 c 0,43,44
 353 -174 353 -174 319 -193.5 c 128,-1,45
 285 -213 285 -213 240 -213 c 256,20,21
96 0 m 1,46,-1
 96 530 l 1,47,-1
 158 530 l 1,48,-1
 158 0 l 1,49,-1
 96 0 l 1,46,-1
EndSplineSet
EndChar

StartChar: kgreenlandic
Encoding: 312 312 250
Width: 500
GlyphClass: 2
Flags: W
FFAnchorPoint: "Anchor-5" 436 0 basechar 0
FFAnchorPoint: "Anchor-4" 436 530 basechar 0
FFAnchorPoint: "Anchor-3" 250 265 basechar 0
FFAnchorPoint: "Anchor-2" 250 275 basechar 0
FFAnchorPoint: "Anchor-1" 250 0 basechar 0
FFAnchorPoint: "Anchor-0" 250 530 basechar 0
LayerCount: 2
Fore
SplineSet
64 0 m 1,0,-1
 64 530 l 1,1,-1
 126 530 l 1,2,-1
 126 274 l 1,3,4
 308 406 308 406 358 494 c 0,5,6
 370 515 370 515 371 530 c 1,7,-1
 436 530 l 1,8,9
 436 512 436 512 420 484 c 0,10,11
 381 417 381 417 283 329 c 1,12,13
 328 260 328 260 363 200 c 0,14,15
 444 59 444 59 444 0 c 1,16,-1
 382 0 l 1,17,18
 382 50 382 50 316 164 c 0,19,20
 283 221 283 221 237 289 c 1,21,22
 187 248 187 248 126 203 c 1,23,-1
 126 0 l 1,24,-1
 64 0 l 1,0,-1
EndSplineSet
EndChar

StartChar: Eng
Encoding: 330 330 268
Width: 500
GlyphClass: 2
Flags: W
FFAnchorPoint: "Anchor-5" 436 0 basechar 0
FFAnchorPoint: "Anchor-4" 436 735 basechar 0
FFAnchorPoint: "Anchor-3" 250 367 basechar 0
FFAnchorPoint: "Anchor-2" 250 382 basechar 0
FFAnchorPoint: "Anchor-1" 250 0 basechar 0
FFAnchorPoint: "Anchor-0" 250 735 basechar 0
LayerCount: 2
Fore
SplineSet
247 -8 m 1,0,-1
 247 48 l 1,1,2
 287 48 287 48 317 65 c 0,3,4
 342 80 342 80 357 105 c 0,5,6
 374 134 374 134 374 175 c 2,7,-1
 374 540 l 2,8,9
 374 593 374 593 353 628 c 0,10,11
 337 656 337 656 310.5 671.5 c 128,-1,12
 284 687 284 687 247 687 c 0,13,14
 211 687 211 687 183 671 c 0,15,16
 157 656 157 656 141 628 c 0,17,18
 131 611 131 611 126 591 c 1,19,-1
 126 0 l 1,20,-1
 64 0 l 1,21,-1
 64 735 l 1,22,-1
 126 735 l 1,23,-1
 126 672 l 1,24,25
 147 704 147 704 178 722 c 0,26,27
 215 743 215 743 264 743 c 256,28,29
 313 743 313 743 349 722 c 128,-1,30
 385 701 385 701 407 663 c 0,31,32
 436 613 436 613 436 540 c 2,33,-1
 436 175 l 2,34,35
 436 118 436 118 412 76 c 0,36,37
 391 39 391 39 353 17 c 0,38,39
 309 -8 309 -8 247 -8 c 1,0,-1
EndSplineSet
EndChar

StartChar: eng
Encoding: 331 331 269
Width: 500
GlyphClass: 2
Flags: W
FFAnchorPoint: "Anchor-5" 436 -205 basechar 0
FFAnchorPoint: "Anchor-4" 436 530 basechar 0
FFAnchorPoint: "Anchor-3" 250 162 basechar 0
FFAnchorPoint: "Anchor-2" 250 177 basechar 0
FFAnchorPoint: "Anchor-1" 250 -205 basechar 0
FFAnchorPoint: "Anchor-0" 250 530 basechar 0
LayerCount: 2
Fore
SplineSet
235 -183 m 1,0,-1
 235 -127 l 1,1,2
 283 -127 283 -127 315 -108 c 0,3,4
 342 -93 342 -93 358 -66 c 0,5,6
 374 -38 374 -38 374 0 c 2,7,-1
 374 310 l 2,8,9
 374 379 374 379 348 423 c 0,10,11
 331 453 331 453 305 468 c 0,12,13
 281 482 281 482 250 482 c 256,14,15
 219 482 219 482 195 468 c 0,16,17
 169 453 169 453 152 423 c 0,18,19
 126 379 126 379 126 310 c 2,20,-1
 126 0 l 1,21,-1
 64 0 l 1,22,-1
 64 530 l 1,23,-1
 126 530 l 1,24,-1
 126 449 l 1,25,26
 128 453 128 453 131 458 c 0,27,28
 155 498 155 498 190 519 c 0,29,30
 223 538 223 538 267 538 c 0,31,32
 310 538 310 538 343 519 c 0,33,34
 379 498 379 498 402 458 c 0,35,36
 436 400 436 400 436 310 c 2,37,-1
 436 0 l 2,38,39
 436 -54 436 -54 413 -95 c 0,40,41
 391 -133 391 -133 352 -155 c 0,42,43
 304 -183 304 -183 235 -183 c 1,0,-1
EndSplineSet
EndChar

StartChar: OE
Encoding: 338 338 276
Width: 500
GlyphClass: 2
Flags: W
FFAnchorPoint: "Anchor-5" 436 0 basechar 0
FFAnchorPoint: "Anchor-4" 436 735 basechar 0
FFAnchorPoint: "Anchor-3" 250 367 basechar 0
FFAnchorPoint: "Anchor-2" 250 382 basechar 0
FFAnchorPoint: "Anchor-1" 250 0 basechar 0
FFAnchorPoint: "Anchor-0" 250 735 basechar 0
LayerCount: 2
Fore
SplineSet
250 56 m 1,0,-1
 250 679 l 1,1,2
 214 679 214 679 186 663 c 0,3,4
 161 648 161 648 146 622 c 0,5,6
 126 589 126 589 126 540 c 2,7,-1
 126 195 l 2,8,9
 126 146 126 146 146 113 c 0,10,11
 161 87 161 87 186 72 c 0,12,13
 214 56 214 56 250 56 c 1,0,-1
250 0 m 2,14,15
 193 0 193 0 150 24 c 1,16,17
 113 46 113 46 90 85 c 0,18,19
 64 131 64 131 64 195 c 2,20,-1
 64 540 l 2,21,22
 64 604 64 604 90 650 c 0,23,24
 113 689 113 689 150 711 c 1,25,26
 193 735 193 735 250 735 c 2,27,-1
 436 735 l 1,28,-1
 436 679 l 1,29,-1
 312 679 l 1,30,-1
 312 425 l 1,31,-1
 422 425 l 1,32,-1
 422 369 l 1,33,-1
 312 369 l 1,34,-1
 312 56 l 1,35,-1
 436 56 l 1,36,-1
 436 0 l 1,37,-1
 250 0 l 2,14,15
EndSplineSet
EndChar

StartChar: oe
Encoding: 339 339 277
Width: 500
GlyphClass: 2
Flags: W
FFAnchorPoint: "Anchor-5" 436 0 basechar 0
FFAnchorPoint: "Anchor-4" 436 530 basechar 0
FFAnchorPoint: "Anchor-3" 250 265 basechar 0
FFAnchorPoint: "Anchor-2" 250 275 basechar 0
FFAnchorPoint: "Anchor-1" 250 0 basechar 0
FFAnchorPoint: "Anchor-0" 250 530 basechar 0
LayerCount: 2
Fore
SplineSet
165 -8 m 256,0,1
 132 -8 132 -8 108 6 c 0,2,3
 83 20 83 20 68 46 c 0,4,5
 48 81 48 81 48 132 c 2,6,-1
 48 398 l 2,7,8
 48 449 48 449 68 484 c 0,9,10
 83 510 83 510 108 524 c 0,11,12
 132 538 132 538 165 538 c 256,13,14
 198 538 198 538 221 524 c 1,15,16
 238 515 238 515 250 500 c 1,17,18
 262 515 262 515 279 524 c 0,19,20
 303 538 303 538 335 538 c 0,21,22
 368 538 368 538 392 524 c 0,23,24
 417 510 417 510 432 484 c 0,25,26
 452 449 452 449 452 398 c 2,27,-1
 452 237 l 1,28,-1
 281 237 l 1,29,-1
 281 132 l 2,30,31
 281 84 281 84 304 62 c 0,32,33
 318 48 318 48 338 48 c 256,34,35
 358 48 358 48 372 62 c 0,36,37
 395 84 395 84 395 131 c 1,38,-1
 457 130 l 1,39,40
 457 128 457 128 457 126 c 0,41,42
 457 82 457 82 437 47 c 0,43,44
 422 21 422 21 397 6.5 c 128,-1,45
 372 -8 372 -8 338 -8 c 256,46,47
 304 -8 304 -8 279 6 c 0,48,49
 263 16 263 16 250 31 c 1,50,51
 238 16 238 16 221 6 c 0,52,53
 198 -8 198 -8 165 -8 c 256,0,1
281 293 m 1,54,-1
 390 293 l 1,55,-1
 390 398 l 2,56,57
 390 447 390 447 367 469 c 1,58,59
 355 482 355 482 335 482 c 0,60,61
 316 482 316 482 304 469 c 1,62,63
 281 447 281 447 281 398 c 2,64,-1
 281 293 l 1,54,-1
165 48 m 256,65,66
 184 48 184 48 196 61 c 1,67,68
 219 83 219 83 219 132 c 2,69,-1
 219 398 l 2,70,71
 219 447 219 447 196 469 c 1,72,73
 184 482 184 482 165 482 c 256,74,75
 146 482 146 482 133 469 c 0,76,77
 110 447 110 447 110 398 c 2,78,-1
 110 132 l 2,79,80
 110 83 110 83 133 61 c 0,81,82
 146 48 146 48 165 48 c 256,65,66
EndSplineSet
EndChar

StartChar: Tbar
Encoding: 358 358 296
Width: 500
GlyphClass: 2
Flags: W
FFAnchorPoint: "Anchor-5" 281 0 basechar 0
FFAnchorPoint: "Anchor-4" 436 735 basechar 0
FFAnchorPoint: "Anchor-3" 250 367 basechar 0
FFAnchorPoint: "Anchor-2" 250 382 basechar 0
FFAnchorPoint: "Anchor-1" 250 0 basechar 0
FFAnchorPoint: "Anchor-0" 250 735 basechar 0
LayerCount: 2
Fore
SplineSet
219 0 m 1,0,-1
 219 303 l 1,1,-1
 101 303 l 1,2,-1
 101 359 l 1,3,-1
 219 359 l 1,4,-1
 219 679 l 1,5,-1
 64 679 l 1,6,-1
 64 735 l 1,7,-1
 436 735 l 1,8,-1
 436 679 l 1,9,-1
 281 679 l 1,10,-1
 281 359 l 1,11,-1
 399 359 l 1,12,-1
 399 303 l 1,13,-1
 281 303 l 1,14,-1
 281 0 l 1,15,-1
 219 0 l 1,0,-1
EndSplineSet
EndChar

StartChar: tbar
Encoding: 359 359 297
Width: 500
GlyphClass: 2
Flags: W
FFAnchorPoint: "Anchor-5" 487 155 basechar 0
FFAnchorPoint: "Anchor-4" 436 735 basechar 0
FFAnchorPoint: "Anchor-3" 250 367 basechar 0
FFAnchorPoint: "Anchor-2" 250 382 basechar 0
FFAnchorPoint: "Anchor-1" 302 0 basechar 0
FFAnchorPoint: "Anchor-0" 250 735 basechar 0
LayerCount: 2
Fore
SplineSet
329 -8 m 0,0,1
 284 -8 284 -8 252 11 c 0,2,3
 218 30 218 30 197 67 c 0,4,5
 169 116 169 116 169 188 c 2,6,-1
 169 290 l 1,7,-1
 79 290 l 1,8,-1
 79 346 l 1,9,-1
 169 346 l 1,10,-1
 169 474 l 1,11,-1
 52 474 l 1,12,-1
 52 530 l 1,13,-1
 169 530 l 1,14,-1
 169 735 l 1,15,-1
 231 735 l 1,16,-1
 231 530 l 1,17,-1
 402 530 l 1,18,-1
 402 474 l 1,19,-1
 231 474 l 1,20,-1
 231 346 l 1,21,-1
 340 346 l 1,22,-1
 340 290 l 1,23,-1
 231 290 l 1,24,-1
 231 188 l 2,25,26
 231 131 231 131 252 94 c 0,27,28
 266 71 266 71 286 59 c 0,29,30
 305 48 305 48 329 48 c 256,31,32
 353 48 353 48 371 59 c 0,33,34
 391 70 391 70 406 95 c 0,35,36
 423 125 423 125 426 166 c 1,37,-1
 487 155 l 1,38,39
 483 105 483 105 460 67 c 1,40,41
 440 31 440 31 406.5 11.5 c 128,-1,42
 373 -8 373 -8 329 -8 c 0,0,1
EndSplineSet
EndChar

StartChar: longs
Encoding: 383 383 321
Width: 500
GlyphClass: 2
Flags: W
FFAnchorPoint: "Anchor-5" 436 0 basechar 0
FFAnchorPoint: "Anchor-4" 436 735 basechar 0
FFAnchorPoint: "Anchor-3" 250 367 basechar 0
FFAnchorPoint: "Anchor-2" 196 382 basechar 0
FFAnchorPoint: "Anchor-1" 250 0 basechar 0
FFAnchorPoint: "Anchor-0" 250 735 basechar 0
LayerCount: 2
Fore
SplineSet
156 0 m 1,0,-1
 156 540 l 2,1,2
 156 616 156 616 185 667 c 0,3,4
 207 704 207 704 241 724 c 0,5,6
 274 743 274 743 318 743 c 0,7,8
 383 743 383 743 425 701 c 0,9,10
 470 656 470 656 478 580 c 1,11,-1
 418 567 l 1,12,13
 414 609 414 609 396 639 c 0,14,15
 382 664 382 664 361 676 c 0,16,17
 342 687 342 687 318 687 c 256,18,19
 294 687 294 687 276 676 c 1,20,21
 255 665 255 665 240 640 c 0,22,23
 218 601 218 601 218 540 c 2,24,-1
 218 0 l 1,25,-1
 156 0 l 1,0,-1
EndSplineSet
EndChar

StartChar: uni0180
Encoding: 384 384 322
Width: 500
GlyphClass: 2
Flags: W
FFAnchorPoint: "Anchor-5" 436 0 basechar 0
FFAnchorPoint: "Anchor-4" 436 735 basechar 0
FFAnchorPoint: "Anchor-3" 250 367 basechar 0
FFAnchorPoint: "Anchor-2" 250 382 basechar 0
FFAnchorPoint: "Anchor-1" 250 0 basechar 0
FFAnchorPoint: "Anchor-0" 250 735 basechar 0
LayerCount: 2
Fore
SplineSet
267 -8 m 0,0,1
 223 -8 223 -8 190 11 c 0,2,3
 155 32 155 32 131 72 c 0,4,5
 128 77 128 77 126 81 c 1,6,-1
 126 0 l 1,7,-1
 64 0 l 1,8,-1
 64 594 l 1,9,-1
 19 594 l 1,10,-1
 19 650 l 1,11,-1
 64 650 l 1,12,-1
 64 735 l 1,13,-1
 126 735 l 1,14,-1
 126 650 l 1,15,-1
 250 650 l 1,16,-1
 250 594 l 1,17,-1
 126 594 l 1,18,-1
 126 449 l 1,19,20
 128 453 128 453 131 458 c 0,21,22
 155 498 155 498 190 519 c 0,23,24
 223 538 223 538 267 538 c 0,25,26
 314 538 314 538 349 518 c 0,27,28
 387 496 387 496 411 455 c 0,29,30
 444 397 444 397 444 310 c 2,31,-1
 444 220 l 2,32,33
 444 133 444 133 411 75 c 0,34,35
 387 34 387 34 349 12 c 0,36,37
 314 -8 314 -8 267 -8 c 0,0,1
251 48 m 0,38,39
 285 48 285 48 311 63 c 0,40,41
 338 79 338 79 357 110 c 1,42,43
 382 154 382 154 382 220 c 2,44,-1
 382 310 l 2,45,46
 382 376 382 376 357 420 c 1,47,48
 338 451 338 451 311 467 c 0,49,50
 285 482 285 482 251 482 c 0,51,52
 219 482 219 482 195 468 c 0,53,54
 169 453 169 453 152 423 c 0,55,56
 126 379 126 379 126 310 c 2,57,-1
 126 220 l 2,58,59
 126 151 126 151 152 107 c 0,60,61
 169 77 169 77 195 62 c 0,62,63
 219 48 219 48 251 48 c 0,38,39
EndSplineSet
EndChar

StartChar: uni0181
Encoding: 385 385 323
Width: 500
GlyphClass: 2
Flags: W
FFAnchorPoint: "Anchor-5" 436 0 basechar 0
FFAnchorPoint: "Anchor-4" 436 735 basechar 0
FFAnchorPoint: "Anchor-3" 250 367 basechar 0
FFAnchorPoint: "Anchor-2" 250 382 basechar 0
FFAnchorPoint: "Anchor-1" 250 0 basechar 0
FFAnchorPoint: "Anchor-0" 250 735 basechar 0
LayerCount: 2
Fore
SplineSet
64 0 m 1,0,-1
 64 679 l 1,1,2
 61 679 61 679 59 677 c 0,3,4
 42 660 42 660 42 565 c 1,5,-1
 -20 565 l 1,6,7
 -20 650 -20 650 7 697 c 0,8,9
 19 718 19 718 36 728 c 0,10,11
 48 735 48 735 64 735 c 2,12,-1
 233 735 l 2,13,14
 288 735 288 735 328 712 c 0,15,16
 365 691 365 691 386 653 c 0,17,18
 412 608 412 608 412 546 c 0,19,20
 412 489 412 489 389 449 c 0,21,22
 368 413 368 413 332 392 c 0,23,24
 325 388 325 388 317 384 c 1,25,26
 338 378 338 378 356 367 c 0,27,28
 397 343 397 343 420 303 c 0,29,30
 444 262 444 262 444 204 c 0,31,32
 444 140 444 140 417 95 c 1,33,34
 393 53 393 53 351 28 c 0,35,36
 302 0 302 0 233 0 c 2,37,-1
 64 0 l 1,0,-1
233 410 m 2,38,39
 267 410 267 410 292 425 c 0,40,41
 316 439 316 439 331 465 c 0,42,43
 350 497 350 497 350 544.5 c 128,-1,44
 350 592 350 592 331 625 c 0,45,46
 316 650 316 650 292 664 c 0,47,48
 267 679 267 679 233 679 c 2,49,-1
 126 679 l 1,50,-1
 126 410 l 1,51,-1
 233 410 l 2,38,39
126 56 m 1,52,-1
 233 56 l 2,53,54
 301 56 301 56 341 96 c 0,55,56
 382 136 382 136 382 205 c 0,57,58
 382 253 382 253 362 287 c 0,59,60
 345 317 345 317 315 334 c 0,61,62
 280 354 280 354 233 354 c 2,63,-1
 126 354 l 1,64,-1
 126 56 l 1,52,-1
EndSplineSet
EndChar

StartChar: uni0182
Encoding: 386 386 324
Width: 500
GlyphClass: 2
Flags: W
FFAnchorPoint: "Anchor-5" 436 0 basechar 0
FFAnchorPoint: "Anchor-4" 436 735 basechar 0
FFAnchorPoint: "Anchor-3" 250 367 basechar 0
FFAnchorPoint: "Anchor-2" 250 382 basechar 0
FFAnchorPoint: "Anchor-1" 250 0 basechar 0
FFAnchorPoint: "Anchor-0" 250 735 basechar 0
LayerCount: 2
Fore
SplineSet
64 0 m 1,0,-1
 64 735 l 1,1,-1
 399 735 l 1,2,-1
 399 679 l 1,3,-1
 126 679 l 1,4,-1
 126 432 l 1,5,-1
 241 432 l 2,6,7
 304 432 304 432 348 406 c 1,8,9
 390 383 390 383 415 340 c 0,10,11
 444 288 444 288 444 216 c 128,-1,12
 444 144 444 144 415 93 c 0,13,14
 390 50 390 50 348 26 c 0,15,16
 304 0 304 0 241 0 c 2,17,-1
 64 0 l 1,0,-1
126 56 m 1,18,-1
 241 56 l 2,19,20
 283 56 283 56 312.5 73 c 128,-1,21
 342 90 342 90 359 121 c 1,22,23
 382 159 382 159 382 216 c 128,-1,24
 382 273 382 273 359 311 c 1,25,26
 342 342 342 342 312.5 359 c 128,-1,27
 283 376 283 376 241 376 c 2,28,-1
 126 376 l 1,29,-1
 126 56 l 1,18,-1
EndSplineSet
EndChar

StartChar: uni0183
Encoding: 387 387 325
Width: 500
GlyphClass: 2
Flags: W
FFAnchorPoint: "Anchor-5" 436 0 basechar 0
FFAnchorPoint: "Anchor-4" 436 735 basechar 0
FFAnchorPoint: "Anchor-3" 250 367 basechar 0
FFAnchorPoint: "Anchor-2" 250 382 basechar 0
FFAnchorPoint: "Anchor-1" 250 0 basechar 0
FFAnchorPoint: "Anchor-0" 250 735 basechar 0
LayerCount: 2
Fore
SplineSet
267 -8 m 0,0,1
 223 -8 223 -8 190 11 c 0,2,3
 155 32 155 32 131 72 c 0,4,5
 128 77 128 77 126 81 c 1,6,-1
 126 0 l 1,7,-1
 64 0 l 1,8,-1
 64 735 l 1,9,-1
 399 735 l 1,10,-1
 399 679 l 1,11,-1
 126 679 l 1,12,-1
 126 449 l 1,13,14
 128 453 128 453 131 458 c 0,15,16
 155 498 155 498 190 519 c 0,17,18
 223 538 223 538 267 538 c 0,19,20
 314 538 314 538 349 518 c 0,21,22
 387 496 387 496 411 455 c 0,23,24
 444 397 444 397 444 310 c 2,25,-1
 444 220 l 2,26,27
 444 133 444 133 411 75 c 0,28,29
 387 34 387 34 349 12 c 0,30,31
 314 -8 314 -8 267 -8 c 0,0,1
251 48 m 0,32,33
 285 48 285 48 311 63 c 0,34,35
 338 79 338 79 357 110 c 1,36,37
 382 154 382 154 382 220 c 2,38,-1
 382 310 l 2,39,40
 382 376 382 376 357 420 c 1,41,42
 338 451 338 451 311 467 c 0,43,44
 285 482 285 482 251 482 c 0,45,46
 219 482 219 482 195 468 c 0,47,48
 169 453 169 453 152 423 c 0,49,50
 126 379 126 379 126 310 c 2,51,-1
 126 220 l 2,52,53
 126 151 126 151 152 107 c 0,54,55
 169 77 169 77 195 62 c 0,56,57
 219 48 219 48 251 48 c 0,32,33
EndSplineSet
EndChar

StartChar: uni0184
Encoding: 388 388 326
Width: 500
GlyphClass: 2
Flags: W
FFAnchorPoint: "Anchor-5" 436 0 basechar 0
FFAnchorPoint: "Anchor-4" 436 735 basechar 0
FFAnchorPoint: "Anchor-3" 250 367 basechar 0
FFAnchorPoint: "Anchor-2" 250 382 basechar 0
FFAnchorPoint: "Anchor-1" 250 0 basechar 0
FFAnchorPoint: "Anchor-0" 250 735 basechar 0
LayerCount: 2
Fore
SplineSet
64 0 m 1,0,-1
 64 623 l 1,1,-1
 8 679 l 1,2,-1
 64 735 l 1,3,-1
 126 735 l 1,4,-1
 126 432 l 1,5,-1
 241 432 l 2,6,7
 304 432 304 432 348 406 c 1,8,9
 390 383 390 383 415 340 c 0,10,11
 444 288 444 288 444 216 c 128,-1,12
 444 144 444 144 415 93 c 0,13,14
 390 50 390 50 348 26 c 0,15,16
 304 0 304 0 241 0 c 2,17,-1
 64 0 l 1,0,-1
126 56 m 1,18,-1
 241 56 l 2,19,20
 283 56 283 56 312.5 73 c 128,-1,21
 342 90 342 90 359 121 c 1,22,23
 382 159 382 159 382 216 c 128,-1,24
 382 273 382 273 359 311 c 1,25,26
 342 342 342 342 312.5 359 c 128,-1,27
 283 376 283 376 241 376 c 2,28,-1
 126 376 l 1,29,-1
 126 56 l 1,18,-1
EndSplineSet
EndChar

StartChar: uni0185
Encoding: 389 389 327
Width: 500
GlyphClass: 2
Flags: W
FFAnchorPoint: "Anchor-5" 436 0 basechar 0
FFAnchorPoint: "Anchor-4" 436 735 basechar 0
FFAnchorPoint: "Anchor-3" 250 367 basechar 0
FFAnchorPoint: "Anchor-2" 250 382 basechar 0
FFAnchorPoint: "Anchor-1" 250 0 basechar 0
FFAnchorPoint: "Anchor-0" 250 735 basechar 0
LayerCount: 2
Fore
SplineSet
267 -8 m 0,0,1
 223 -8 223 -8 190 11 c 0,2,3
 155 32 155 32 131 72 c 0,4,5
 128 77 128 77 126 81 c 1,6,-1
 126 0 l 1,7,-1
 64 0 l 1,8,-1
 64 623 l 1,9,-1
 8 679 l 1,10,-1
 64 735 l 1,11,-1
 126 735 l 1,12,-1
 126 449 l 1,13,14
 128 453 128 453 131 458 c 0,15,16
 155 498 155 498 190 519 c 0,17,18
 223 538 223 538 267 538 c 0,19,20
 314 538 314 538 349 518 c 0,21,22
 387 496 387 496 411 455 c 0,23,24
 444 397 444 397 444 310 c 2,25,-1
 444 220 l 2,26,27
 444 133 444 133 411 75 c 0,28,29
 387 34 387 34 349 12 c 0,30,31
 314 -8 314 -8 267 -8 c 0,0,1
251 48 m 0,32,33
 285 48 285 48 311 63 c 0,34,35
 338 79 338 79 357 110 c 1,36,37
 382 154 382 154 382 220 c 2,38,-1
 382 310 l 2,39,40
 382 376 382 376 357 420 c 1,41,42
 338 451 338 451 311 467 c 0,43,44
 285 482 285 482 251 482 c 0,45,46
 219 482 219 482 195 468 c 0,47,48
 169 453 169 453 152 423 c 0,49,50
 126 379 126 379 126 310 c 2,51,-1
 126 220 l 2,52,53
 126 151 126 151 152 107 c 0,54,55
 169 77 169 77 195 62 c 0,56,57
 219 48 219 48 251 48 c 0,32,33
EndSplineSet
EndChar

StartChar: uni0186
Encoding: 390 390 328
Width: 500
GlyphClass: 2
Flags: W
FFAnchorPoint: "Anchor-5" 436 0 basechar 0
FFAnchorPoint: "Anchor-4" 436 735 basechar 0
FFAnchorPoint: "Anchor-3" 250 367 basechar 0
FFAnchorPoint: "Anchor-2" 250 382 basechar 0
FFAnchorPoint: "Anchor-1" 250 0 basechar 0
FFAnchorPoint: "Anchor-0" 250 735 basechar 0
LayerCount: 2
Fore
SplineSet
250 -8 m 256,0,1
 190 -8 190 -8 147 17 c 0,2,3
 107 40 107 40 84 80 c 0,4,5
 64 114 64 114 59 155 c 1,6,-1
 120 166 l 1,7,8
 124 135 124 135 139 109 c 0,9,10
 155 80 155 80 183 64 c 128,-1,11
 211 48 211 48 250 48 c 256,12,13
 289 48 289 48 318 64 c 0,14,15
 345 80 345 80 361 109 c 1,16,17
 382 144 382 144 382 195 c 2,18,-1
 382 540 l 2,19,20
 382 591 382 591 361 626 c 1,21,22
 345 655 345 655 318 671 c 0,23,24
 289 687 289 687 250 687 c 256,25,26
 211 687 211 687 183 671 c 128,-1,27
 155 655 155 655 139 626 c 0,28,29
 124 600 124 600 120 569 c 1,30,-1
 59 580 l 1,31,32
 64 621 64 621 84 655 c 0,33,34
 107 695 107 695 147 718 c 0,35,36
 190 743 190 743 250 743 c 256,37,38
 310 743 310 743 354 718 c 0,39,40
 394 695 394 695 416 655 c 1,41,42
 444 608 444 608 444 540 c 2,43,-1
 444 195 l 2,44,45
 444 127 444 127 416 80 c 1,46,47
 394 40 394 40 354 17 c 0,48,49
 310 -8 310 -8 250 -8 c 256,0,1
EndSplineSet
EndChar

StartChar: uni0187
Encoding: 391 391 329
Width: 500
GlyphClass: 2
Flags: W
FFAnchorPoint: "Anchor-5" 436 0 basechar 0
FFAnchorPoint: "Anchor-4" 436 735 basechar 0
FFAnchorPoint: "Anchor-3" 250 367 basechar 0
FFAnchorPoint: "Anchor-2" 250 382 basechar 0
FFAnchorPoint: "Anchor-1" 250 0 basechar 0
FFAnchorPoint: "Anchor-0" 250 735 basechar 0
LayerCount: 2
Fore
SplineSet
250 -8 m 256,0,1
 190 -8 190 -8 146 17 c 0,2,3
 106 40 106 40 84 80 c 1,4,5
 56 127 56 127 56 195 c 2,6,-1
 56 540 l 2,7,8
 56 608 56 608 84 655 c 1,9,10
 106 695 106 695 146 718 c 0,11,12
 190 743 190 743 250 743 c 256,13,14
 310 743 310 743 353 718 c 0,15,16
 367 710 367 710 379 700 c 1,17,-1
 379 735 l 2,18,19
 379 789 379 789 402 830 c 0,20,21
 424 868 424 868 463 890 c 0,22,23
 511 918 511 918 580 918 c 1,24,-1
 580 862 l 1,25,26
 533 862 533 862 499 843 c 0,27,28
 472 827 472 827 457 801 c 0,29,30
 441 773 441 773 441 735 c 2,31,-1
 441 580 l 1,32,-1
 380 569 l 1,33,34
 376 600 376 600 361 626 c 0,35,36
 345 655 345 655 317 671 c 128,-1,37
 289 687 289 687 250 687 c 256,38,39
 211 687 211 687 182 671 c 0,40,41
 155 655 155 655 139 626 c 1,42,43
 118 591 118 591 118 540 c 2,44,-1
 118 195 l 2,45,46
 118 144 118 144 139 109 c 1,47,48
 155 80 155 80 182 64 c 0,49,50
 211 48 211 48 250 48 c 256,51,52
 289 48 289 48 317 64 c 128,-1,53
 345 80 345 80 361 109 c 0,54,55
 376 135 376 135 380 166 c 1,56,-1
 441 155 l 1,57,58
 436 114 436 114 416 80 c 0,59,60
 393 40 393 40 353 17 c 0,61,62
 310 -8 310 -8 250 -8 c 256,0,1
EndSplineSet
EndChar

StartChar: uni0188
Encoding: 392 392 330
Width: 500
GlyphClass: 2
Flags: W
FFAnchorPoint: "Anchor-5" 436 0 basechar 0
FFAnchorPoint: "Anchor-4" 436 530 basechar 0
FFAnchorPoint: "Anchor-3" 250 265 basechar 0
FFAnchorPoint: "Anchor-2" 250 275 basechar 0
FFAnchorPoint: "Anchor-1" 250 0 basechar 0
FFAnchorPoint: "Anchor-0" 250 530 basechar 0
LayerCount: 2
Fore
SplineSet
251 -8 m 256,0,1
 195 -8 195 -8 154 15.5 c 128,-1,2
 113 39 113 39 88 83 c 0,3,4
 56 139 56 139 56 220 c 2,5,-1
 56 310 l 2,6,7
 56 391 56 391 88 447 c 0,8,9
 113 491 113 491 154 514.5 c 128,-1,10
 195 538 195 538 251 538 c 256,11,12
 307 538 307 538 349 514 c 0,13,14
 365 505 365 505 379 492 c 1,15,-1
 379 530 l 2,16,17
 379 584 379 584 402 625 c 0,18,19
 424 663 424 663 463 685 c 0,20,21
 511 713 511 713 580 713 c 1,22,-1
 580 657 l 1,23,24
 533 657 533 657 499 638 c 0,25,26
 472 622 472 622 457 596 c 0,27,28
 441 568 441 568 441 530 c 2,29,-1
 441 375 l 1,30,-1
 382 357 l 1,31,32
 376 392 376 392 360 419 c 1,33,34
 343 450 343 450 314 467 c 0,35,36
 287 482 287 482 251 482 c 0,37,38
 216 482 216 482 188.5 466 c 128,-1,39
 161 450 161 450 143 419 c 0,40,41
 118 376 118 376 118 310 c 2,42,-1
 118 220 l 2,43,44
 118 154 118 154 143 111 c 0,45,46
 161 80 161 80 188.5 64 c 128,-1,47
 216 48 216 48 251 48 c 0,48,49
 287 48 287 48 314 63 c 0,50,51
 343 80 343 80 360 111 c 1,52,53
 376 138 376 138 382 173 c 1,54,-1
 441 155 l 1,55,56
 434 116 434 116 415 83 c 0,57,58
 389 39 389 39 349 16 c 0,59,60
 307 -8 307 -8 251 -8 c 256,0,1
EndSplineSet
EndChar

StartChar: uni018A
Encoding: 394 394 332
Width: 500
GlyphClass: 2
Flags: W
FFAnchorPoint: "Anchor-5" 436 0 basechar 0
FFAnchorPoint: "Anchor-4" 436 735 basechar 0
FFAnchorPoint: "Anchor-3" 250 367 basechar 0
FFAnchorPoint: "Anchor-2" 250 382 basechar 0
FFAnchorPoint: "Anchor-1" 250 0 basechar 0
FFAnchorPoint: "Anchor-0" 250 735 basechar 0
LayerCount: 2
Fore
SplineSet
64 0 m 1,0,-1
 64 679 l 1,1,2
 61 679 61 679 59 677 c 0,3,4
 42 660 42 660 42 565 c 1,5,-1
 -20 565 l 1,6,7
 -20 650 -20 650 7 697 c 0,8,9
 19 718 19 718 36 728 c 0,10,11
 48 735 48 735 64 735 c 2,12,-1
 221 735 l 2,13,14
 285 735 285 735 332 708 c 0,15,16
 378 681 378 681 407 631 c 0,17,18
 444 566 444 566 444 472 c 2,19,-1
 444 263 l 2,20,21
 444 169 444 169 407 104 c 0,22,23
 378 54 378 54 332 27 c 0,24,25
 285 0 285 0 221 0 c 2,26,-1
 64 0 l 1,0,-1
126 56 m 1,27,-1
 221 56 l 2,28,29
 264 56 264 56 297 75 c 128,-1,30
 330 94 330 94 352 132 c 0,31,32
 382 184 382 184 382 263 c 2,33,-1
 382 472 l 2,34,35
 382 551 382 551 352 603 c 0,36,37
 330 641 330 641 297 660 c 128,-1,38
 264 679 264 679 221 679 c 2,39,-1
 126 679 l 1,40,-1
 126 56 l 1,27,-1
EndSplineSet
EndChar

StartChar: uni018B
Encoding: 395 395 333
Width: 500
GlyphClass: 2
Flags: W
FFAnchorPoint: "Anchor-5" 436 0 basechar 0
FFAnchorPoint: "Anchor-4" 436 735 basechar 0
FFAnchorPoint: "Anchor-3" 250 367 basechar 0
FFAnchorPoint: "Anchor-2" 250 382 basechar 0
FFAnchorPoint: "Anchor-1" 250 0 basechar 0
FFAnchorPoint: "Anchor-0" 250 735 basechar 0
LayerCount: 2
Fore
SplineSet
259 0 m 2,0,1
 197 0 197 0 151 26 c 0,2,3
 110 50 110 50 85 93 c 0,4,5
 56 144 56 144 56 216 c 128,-1,6
 56 288 56 288 85 339 c 0,7,8
 110 382 110 382 151 406 c 0,9,10
 197 432 197 432 259 432 c 2,11,-1
 374 432 l 1,12,-1
 374 679 l 1,13,-1
 101 679 l 1,14,-1
 101 735 l 1,15,-1
 436 735 l 1,16,-1
 436 0 l 1,17,-1
 259 0 l 2,0,1
259 56 m 2,18,-1
 374 56 l 1,19,-1
 374 376 l 1,20,-1
 259 376 l 2,21,22
 218 376 218 376 187 359 c 0,23,24
 158 342 158 342 141 311 c 1,25,26
 118 273 118 273 118 216 c 128,-1,27
 118 159 118 159 141 121 c 1,28,29
 158 90 158 90 187 74 c 0,30,31
 218 56 218 56 259 56 c 2,18,-1
EndSplineSet
EndChar

StartChar: uni018C
Encoding: 396 396 334
Width: 500
GlyphClass: 2
Flags: W
FFAnchorPoint: "Anchor-5" 436 0 basechar 0
FFAnchorPoint: "Anchor-4" 436 735 basechar 0
FFAnchorPoint: "Anchor-3" 250 367 basechar 0
FFAnchorPoint: "Anchor-2" 250 382 basechar 0
FFAnchorPoint: "Anchor-1" 250 0 basechar 0
FFAnchorPoint: "Anchor-0" 250 735 basechar 0
LayerCount: 2
Fore
SplineSet
233 -8 m 0,0,1
 186 -8 186 -8 151 12 c 0,2,3
 113 34 113 34 89 75 c 0,4,5
 56 133 56 133 56 220 c 2,6,-1
 56 310 l 2,7,8
 56 397 56 397 89 455 c 0,9,10
 113 496 113 496 151 518 c 0,11,12
 186 538 186 538 233 538 c 0,13,14
 277 538 277 538 310 519 c 0,15,16
 345 498 345 498 369 458 c 0,17,18
 372 453 372 453 374 449 c 1,19,-1
 374 679 l 1,20,-1
 101 679 l 1,21,-1
 101 735 l 1,22,-1
 436 735 l 1,23,-1
 436 0 l 1,24,-1
 374 0 l 1,25,-1
 374 81 l 1,26,27
 372 77 372 77 369 72 c 0,28,29
 345 32 345 32 310 11 c 0,30,31
 277 -8 277 -8 233 -8 c 0,0,1
249 48 m 0,32,33
 281 48 281 48 305 62 c 0,34,35
 331 77 331 77 348 107 c 0,36,37
 374 151 374 151 374 220 c 2,38,-1
 374 310 l 2,39,40
 374 379 374 379 348 423 c 0,41,42
 331 453 331 453 305 468 c 0,43,44
 281 482 281 482 249 482 c 0,45,46
 215 482 215 482 189 467 c 0,47,48
 162 451 162 451 143 420 c 1,49,50
 118 376 118 376 118 310 c 2,51,-1
 118 220 l 2,52,53
 118 154 118 154 143 110 c 1,54,55
 162 79 162 79 189 63 c 0,56,57
 215 48 215 48 249 48 c 0,32,33
EndSplineSet
EndChar

StartChar: uni018D
Encoding: 397 397 335
Width: 500
GlyphClass: 2
Flags: W
FFAnchorPoint: "Anchor-5" 436 -205 basechar 0
FFAnchorPoint: "Anchor-4" 436 530 basechar 0
FFAnchorPoint: "Anchor-3" 250 162 basechar 0
FFAnchorPoint: "Anchor-2" 250 177 basechar 0
FFAnchorPoint: "Anchor-1" 250 -205 basechar 0
FFAnchorPoint: "Anchor-0" 250 530 basechar 0
LayerCount: 2
Fore
SplineSet
259 -213 m 0,0,1
 179 -213 179 -213 92 -164 c 1,2,-1
 92 -108 l 1,3,4
 182 -157 182 -157 252 -157 c 0,5,6
 288 -157 288 -157 312 -143 c 0,7,8
 330 -132 330 -132 342 -113 c 0,9,10
 354 -92 354 -92 354 -66 c 0,11,12
 354 -42 354 -42 343 -23 c 0,13,14
 333 -6 333 -6 317 3.5 c 128,-1,15
 301 13 301 13 258 20 c 0,16,17
 178 33 178 33 139.5 55.5 c 128,-1,18
 101 78 101 78 79 115 c 1,19,20
 56 156 56 156 56 232 c 2,21,-1
 56 319 l 2,22,23
 56 396 56 396 87 448 c 0,24,25
 111 490 111 490 151 514 c 0,26,27
 193 538 193 538 250 538 c 256,28,29
 307 538 307 538 349 514 c 0,30,31
 389 490 389 490 413 448 c 0,32,33
 444 396 444 396 444 319 c 2,34,-1
 444 232 l 2,35,36
 444 169 444 169 418 123 c 0,37,38
 395 83 395 83 356 61 c 0,39,40
 350 57 350 57 343 54 c 1,41,42
 351 51 351 51 357 47 c 0,43,44
 383 33 383 33 398 6 c 0,45,46
 416 -26 416 -26 416 -65 c 0,47,48
 416 -107 416 -107 396 -143 c 0,49,50
 378 -174 378 -174 347 -191 c 1,51,52
 310 -213 310 -213 259 -213 c 0,0,1
291 69 m 1,53,54
 302 73 302 73 312 78 c 0,55,56
 339 94 339 94 357 125 c 0,57,58
 382 167 382 167 382 232 c 2,59,-1
 382 319 l 2,60,61
 382 380 382 380 358 420 c 0,62,63
 341 450 341 450 313 466 c 0,64,65
 286 482 286 482 250 482 c 256,66,67
 214 482 214 482 187 466 c 0,68,69
 159 450 159 450 142 420 c 0,70,71
 118 380 118 380 118 319 c 2,72,-1
 118 232 l 2,73,74
 118 173 118 173 136 143 c 1,75,76
 151 116 151 116 179 100 c 0,77,78
 205 85 205 85 270 73 c 0,79,80
 281 71 281 71 291 69 c 1,53,54
EndSplineSet
EndChar

StartChar: uni018E
Encoding: 398 398 336
Width: 500
GlyphClass: 2
Flags: W
FFAnchorPoint: "Anchor-5" 436 0 basechar 0
FFAnchorPoint: "Anchor-4" 436 735 basechar 0
FFAnchorPoint: "Anchor-3" 250 367 basechar 0
FFAnchorPoint: "Anchor-2" 250 382 basechar 0
FFAnchorPoint: "Anchor-1" 250 0 basechar 0
FFAnchorPoint: "Anchor-0" 250 735 basechar 0
LayerCount: 2
Fore
SplineSet
64 0 m 1,0,-1
 64 56 l 1,1,-1
 342 56 l 1,2,-1
 342 310 l 1,3,-1
 120 310 l 1,4,-1
 120 366 l 1,5,-1
 342 366 l 1,6,-1
 342 679 l 1,7,-1
 64 679 l 1,8,-1
 64 735 l 1,9,-1
 404 735 l 1,10,-1
 404 0 l 1,11,-1
 64 0 l 1,0,-1
EndSplineSet
EndChar

StartChar: uni018F
Encoding: 399 399 337
Width: 500
GlyphClass: 2
Flags: W
FFAnchorPoint: "Anchor-5" 436 0 basechar 0
FFAnchorPoint: "Anchor-4" 436 735 basechar 0
FFAnchorPoint: "Anchor-3" 250 367 basechar 0
FFAnchorPoint: "Anchor-2" 250 382 basechar 0
FFAnchorPoint: "Anchor-1" 250 0 basechar 0
FFAnchorPoint: "Anchor-0" 250 735 basechar 0
LayerCount: 2
Fore
SplineSet
250 -8 m 256,0,1
 195 -8 195 -8 154 15.5 c 128,-1,2
 113 39 113 39 88 82 c 0,3,4
 56 138 56 138 56 220 c 2,5,-1
 56 396 l 1,6,-1
 382 396 l 1,7,-1
 382 515 l 2,8,9
 382 579 382 579 357 622 c 0,10,11
 339 654 339 654 310 670.5 c 128,-1,12
 281 687 281 687 243 687 c 256,13,14
 205 687 205 687 176 670 c 128,-1,15
 147 653 147 653 128 621 c 0,16,17
 117 602 117 602 112 582 c 1,18,-1
 55 605 l 1,19,20
 63 630 63 630 75 650 c 0,21,22
 100 694 100 694 142.5 718.5 c 128,-1,23
 185 743 185 743 243 743 c 0,24,25
 302 743 302 743 345 718 c 0,26,27
 387 694 387 694 412 650 c 0,28,29
 444 595 444 595 444 515 c 2,30,-1
 444 220 l 2,31,32
 444 138 444 138 412 82 c 0,33,34
 387 39 387 39 346 15.5 c 128,-1,35
 305 -8 305 -8 250 -8 c 256,0,1
250 48 m 256,36,37
 285 48 285 48 311 63 c 0,38,39
 338 79 338 79 357 110 c 1,40,41
 382 154 382 154 382 220 c 2,42,-1
 382 340 l 1,43,-1
 118 340 l 1,44,-1
 118 220 l 2,45,46
 118 154 118 154 143 110 c 1,47,48
 162 79 162 79 189 63 c 0,49,50
 215 48 215 48 250 48 c 256,36,37
EndSplineSet
EndChar

StartChar: uni0190
Encoding: 400 400 338
Width: 500
GlyphClass: 2
Flags: W
FFAnchorPoint: "Anchor-5" 436 0 basechar 0
FFAnchorPoint: "Anchor-4" 436 735 basechar 0
FFAnchorPoint: "Anchor-3" 250 367 basechar 0
FFAnchorPoint: "Anchor-2" 250 382 basechar 0
FFAnchorPoint: "Anchor-1" 250 0 basechar 0
FFAnchorPoint: "Anchor-0" 250 735 basechar 0
LayerCount: 2
Fore
SplineSet
256 -8 m 0,0,1
 190 -8 190 -8 142 19 c 1,2,3
 100 44 100 44 76 86 c 0,4,5
 48 134 48 134 48 201 c 0,6,7
 48 262 48 262 73 306 c 1,8,9
 97 346 97 346 137 369 c 0,10,11
 151 377 151 377 167 383 c 1,12,13
 156 387 156 387 146 393 c 0,14,15
 109 414 109 414 87 452 c 0,16,17
 64 492 64 492 64 549 c 0,18,19
 64 612 64 612 90 657 c 0,20,21
 112 696 112 696 151 718 c 0,22,23
 194 743 194 743 254 743 c 256,24,25
 314 743 314 743 357 718 c 0,26,27
 396 696 396 696 419 657 c 0,28,29
 428 641 428 641 433 625 c 1,30,-1
 375 604 l 1,31,32
 372 615 372 615 365 628 c 0,33,34
 348 656 348 656 322 670 c 1,35,36
 294 687 294 687 254 687 c 0,37,38
 216 687 216 687 187 671 c 1,39,40
 161 655 161 655 145 628 c 0,41,42
 126 596 126 596 126 548.5 c 128,-1,43
 126 501 126 501 145 467 c 0,44,45
 161 440 161 440 186 426 c 0,46,47
 214 410 214 410 250 410 c 2,48,-1
 306 410 l 1,49,-1
 306 354 l 1,50,-1
 250 354 l 2,51,52
 208 354 208 354 177 336 c 0,53,54
 149 320 149 320 131 290 c 0,55,56
 110 253 110 253 110 201.5 c 128,-1,57
 110 150 110 150 131 115 c 1,58,59
 148 84 148 84 178 67 c 0,60,61
 211 48 211 48 256 48 c 0,62,63
 303 48 303 48 336 67 c 0,64,65
 366 85 366 85 383 115 c 0,66,67
 388 122 388 122 392 132 c 1,68,-1
 449 110 l 1,69,70
 444 97 444 97 437 86 c 0,71,72
 413 44 413 44 371 19 c 1,73,74
 323 -8 323 -8 256 -8 c 0,0,1
EndSplineSet
EndChar

StartChar: uni0191
Encoding: 401 401 339
Width: 500
GlyphClass: 2
Flags: W
FFAnchorPoint: "Anchor-5" 436 0 basechar 0
FFAnchorPoint: "Anchor-4" 436 735 basechar 0
FFAnchorPoint: "Anchor-3" 250 367 basechar 0
FFAnchorPoint: "Anchor-2" 250 382 basechar 0
FFAnchorPoint: "Anchor-1" 250 0 basechar 0
FFAnchorPoint: "Anchor-0" 250 735 basechar 0
LayerCount: 2
Fore
SplineSet
-43 -183 m 1,0,-1
 -43 -127 l 1,1,2
 4 -127 4 -127 38 -108 c 0,3,4
 65 -92 65 -92 80 -66 c 0,5,6
 96 -38 96 -38 96 0 c 2,7,-1
 96 735 l 1,8,-1
 436 735 l 1,9,-1
 436 679 l 1,10,-1
 158 679 l 1,11,-1
 158 425 l 1,12,-1
 380 425 l 1,13,-1
 380 369 l 1,14,-1
 158 369 l 1,15,-1
 158 0 l 2,16,17
 158 -54 158 -54 135 -95 c 0,18,19
 113 -133 113 -133 74 -155 c 0,20,21
 26 -183 26 -183 -43 -183 c 1,0,-1
EndSplineSet
EndChar

StartChar: florin
Encoding: 402 402 340
Width: 500
GlyphClass: 2
Flags: W
FFAnchorPoint: "Anchor-5" 436 -205 basechar 0
FFAnchorPoint: "Anchor-4" 436 735 basechar 0
FFAnchorPoint: "Anchor-3" 250 265 basechar 0
FFAnchorPoint: "Anchor-2" 250 283 basechar 0
FFAnchorPoint: "Anchor-1" 250 -205 basechar 0
FFAnchorPoint: "Anchor-0" 250 735 basechar 0
LayerCount: 2
Fore
SplineSet
80 -195 m 1,0,-1
 80 -139 l 1,1,2
 137 -139 137 -139 166 -122 c 0,3,4
 189 -109 189 -109 202 -86 c 0,5,6
 219 -58 219 -58 219 0 c 2,7,-1
 219 440 l 1,8,-1
 75 440 l 1,9,-1
 75 496 l 1,10,-1
 219 496 l 1,11,-1
 219 580 l 2,12,13
 219 659 219 659 242 699 c 0,14,15
 261 732 261 732 293 751 c 0,16,17
 336 775 336 775 420 775 c 1,18,-1
 420 719 l 1,19,20
 363 719 363 719 334 702 c 0,21,22
 311 689 311 689 298 666 c 0,23,24
 281 638 281 638 281 580 c 2,25,-1
 281 496 l 1,26,-1
 425 496 l 1,27,-1
 425 440 l 1,28,-1
 281 440 l 1,29,-1
 281 0 l 2,30,31
 281 -79 281 -79 258 -119 c 0,32,33
 239 -152 239 -152 207 -171 c 0,34,35
 164 -195 164 -195 80 -195 c 1,0,-1
EndSplineSet
EndChar

StartChar: uni0193
Encoding: 403 403 341
Width: 500
GlyphClass: 2
Flags: W
FFAnchorPoint: "Anchor-5" 436 0 basechar 0
FFAnchorPoint: "Anchor-4" 436 735 basechar 0
FFAnchorPoint: "Anchor-3" 250 367 basechar 0
FFAnchorPoint: "Anchor-2" 250 382 basechar 0
FFAnchorPoint: "Anchor-1" 250 0 basechar 0
FFAnchorPoint: "Anchor-0" 250 735 basechar 0
LayerCount: 2
Fore
SplineSet
249 -8 m 0,0,1
 190 -8 190 -8 147 17 c 0,2,3
 107 40 107 40 83 80 c 1,4,5
 56 128 56 128 56 195 c 2,6,-1
 56 540 l 2,7,8
 56 608 56 608 84 655 c 1,9,10
 106 695 106 695 146 718 c 0,11,12
 190 743 190 743 250 743 c 256,13,14
 310 743 310 743 353 718 c 0,15,16
 367 710 367 710 379 700 c 1,17,-1
 379 735 l 2,18,19
 379 789 379 789 402 830 c 0,20,21
 424 868 424 868 463 890 c 0,22,23
 511 918 511 918 580 918 c 1,24,-1
 580 862 l 1,25,26
 533 862 533 862 499 843 c 0,27,28
 472 827 472 827 457 801 c 0,29,30
 441 773 441 773 441 735 c 2,31,-1
 441 580 l 1,32,-1
 380 569 l 1,33,34
 376 600 376 600 361 626 c 0,35,36
 345 655 345 655 317 671 c 128,-1,37
 289 687 289 687 250 687 c 256,38,39
 211 687 211 687 182 671 c 0,40,41
 155 655 155 655 139 626 c 1,42,43
 118 591 118 591 118 540 c 2,44,-1
 118 195 l 2,45,46
 118 144 118 144 139 109 c 0,47,48
 155 81 155 81 182 64 c 1,49,50
 211 48 211 48 249 48 c 0,51,52
 285 48 285 48 311 63 c 128,-1,53
 337 78 337 78 353 106 c 0,54,55
 374 142 374 142 374 195 c 2,56,-1
 374 340 l 1,57,-1
 250 340 l 1,58,-1
 250 396 l 1,59,-1
 436 396 l 1,60,-1
 436 195 l 2,61,62
 436 126 436 126 408 77 c 0,63,64
 385 38 385 38 347 15 c 1,65,66
 306 -8 306 -8 249 -8 c 0,0,1
EndSplineSet
EndChar

StartChar: uni0194
Encoding: 404 404 342
Width: 500
GlyphClass: 2
Flags: W
FFAnchorPoint: "Anchor-5" 436 -205 basechar 0
FFAnchorPoint: "Anchor-4" 436 735 basechar 0
FFAnchorPoint: "Anchor-3" 250 265 basechar 0
FFAnchorPoint: "Anchor-2" 250 283 basechar 0
FFAnchorPoint: "Anchor-1" 250 -205 basechar 0
FFAnchorPoint: "Anchor-0" 250 735 basechar 0
LayerCount: 2
Fore
SplineSet
250 -205 m 256,0,1
 222 -205 222 -205 203 -194 c 0,2,3
 186 -184 186 -184 176 -167 c 0,4,5
 166 -149 166 -149 166 -119 c 0,6,7
 166 6 166 6 219 217 c 1,8,9
 165 432 165 432 56 735 c 1,10,-1
 118 735 l 1,11,-1
 118 734 l 1,12,13
 199 509 199 509 250 332 c 1,14,15
 301 509 301 509 382 735 c 1,16,-1
 444 735 l 1,17,18
 334 430 334 430 281 219 c 1,19,20
 334 7 334 7 334 -119 c 0,21,22
 334 -149 334 -149 324 -167 c 0,23,24
 314 -184 314 -184 297 -194 c 0,25,26
 278 -205 278 -205 250 -205 c 256,0,1
250 -149 m 256,27,28
 259 -149 259 -149 265 -143 c 0,29,30
 272 -136 272 -136 272 -121 c 0,31,32
 272 -38 272 -38 249 80 c 1,33,34
 230 -19 230 -19 229 -91 c 1,35,-1
 229 -95 l 2,36,37
 229 -102 229 -102 228 -106 c 1,38,39
 228 -117 228 -117 228 -121 c 0,40,41
 228 -136 228 -136 235 -143 c 0,42,43
 241 -149 241 -149 250 -149 c 256,27,28
EndSplineSet
EndChar

StartChar: uni0195
Encoding: 405 405 343
Width: 500
GlyphClass: 2
Flags: W
LayerCount: 2
Fore
SplineSet
331 -8 m 0,0,1
 301 -8 301 -8 278 5 c 0,2,3
 254 19 254 19 239 45 c 0,4,5
 219 80 219 80 219 132 c 2,6,-1
 219 398 l 2,7,8
 219 448 219 448 197 470 c 0,9,10
 185 482 185 482 169 482 c 0,11,12
 152 482 152 482 140 470 c 0,13,14
 118 448 118 448 118 398 c 2,15,-1
 118 0 l 1,16,-1
 56 0 l 1,17,-1
 56 735 l 1,18,-1
 118 735 l 1,19,-1
 118 499 l 1,20,21
 130 518 130 518 148 528 c 0,22,23
 165 538 165 538 187 538 c 256,24,25
 209 538 209 538 227 528 c 0,26,27
 246 517 246 517 260 493 c 0,28,29
 281 457 281 457 281 398 c 2,30,-1
 281 132 l 2,31,32
 281 82 281 82 303 60 c 0,33,34
 315 48 315 48 331 48 c 0,35,36
 348 48 348 48 360 60 c 0,37,38
 382 82 382 82 382 132 c 2,39,-1
 382 530 l 1,40,-1
 444 530 l 1,41,-1
 444 132 l 2,42,43
 444 80 444 80 424 45 c 0,44,45
 409 19 409 19 385 5 c 0,46,47
 362 -8 362 -8 331 -8 c 0,0,1
EndSplineSet
EndChar

StartChar: uni0196
Encoding: 406 406 344
Width: 500
GlyphClass: 2
Flags: W
FFAnchorPoint: "Anchor-5" 436 0 basechar 0
FFAnchorPoint: "Anchor-4" 436 735 basechar 0
FFAnchorPoint: "Anchor-3" 250 367 basechar 0
FFAnchorPoint: "Anchor-2" 250 382 basechar 0
FFAnchorPoint: "Anchor-1" 250 0 basechar 0
FFAnchorPoint: "Anchor-0" 250 735 basechar 0
LayerCount: 2
Fore
SplineSet
377 0 m 2,0,1
 326 0 326 0 289 21 c 0,2,3
 258 39 258 39 239 71 c 0,4,5
 219 106 219 106 219 155 c 2,6,-1
 219 679 l 1,7,-1
 75 679 l 1,8,-1
 75 735 l 1,9,-1
 281 735 l 1,10,-1
 281 155 l 2,11,12
 281 123 281 123 294 99 c 1,13,14
 306 80 306 80 325 69 c 0,15,16
 347 56 347 56 377 56 c 2,17,-1
 434 56 l 1,18,-1
 434 0 l 1,19,-1
 377 0 l 2,0,1
EndSplineSet
EndChar

StartChar: uni0198
Encoding: 408 408 346
Width: 500
GlyphClass: 2
Flags: W
FFAnchorPoint: "Anchor-5" 436 0 basechar 0
FFAnchorPoint: "Anchor-4" 436 735 basechar 0
FFAnchorPoint: "Anchor-3" 250 367 basechar 0
FFAnchorPoint: "Anchor-2" 250 382 basechar 0
FFAnchorPoint: "Anchor-1" 250 0 basechar 0
FFAnchorPoint: "Anchor-0" 250 735 basechar 0
LayerCount: 2
Fore
SplineSet
64 0 m 1,0,-1
 64 552 l 2,1,2
 64 606 64 606 87 647 c 0,3,4
 109 685 109 685 148 707 c 0,5,6
 196 735 196 735 265 735 c 1,7,-1
 265 679 l 1,8,9
 217 679 217 679 185 660 c 0,10,11
 158 645 158 645 142 618 c 0,12,13
 126 590 126 590 126 552 c 2,14,-1
 126 366 l 1,15,16
 264 511 264 511 331 629 c 0,17,18
 370 696 370 696 371 735 c 1,19,-1
 436 735 l 1,20,21
 436 692 436 692 391 614 c 0,22,23
 348 539 348 539 281 455 c 1,24,25
 444 115 444 115 444 0 c 1,26,-1
 382 0 l 1,27,28
 382 105 382 105 238 403 c 1,29,30
 187 345 187 345 126 282 c 1,31,-1
 126 0 l 1,32,-1
 64 0 l 1,0,-1
EndSplineSet
EndChar

StartChar: uni0199
Encoding: 409 409 347
Width: 500
GlyphClass: 2
Flags: W
FFAnchorPoint: "Anchor-5" 436 0 basechar 0
FFAnchorPoint: "Anchor-4" 436 735 basechar 0
FFAnchorPoint: "Anchor-3" 250 367 basechar 0
FFAnchorPoint: "Anchor-2" 250 382 basechar 0
FFAnchorPoint: "Anchor-1" 250 0 basechar 0
FFAnchorPoint: "Anchor-0" 250 735 basechar 0
LayerCount: 2
Fore
SplineSet
64 0 m 1,0,-1
 64 552 l 2,1,2
 64 606 64 606 87 647 c 0,3,4
 109 685 109 685 148 707 c 0,5,6
 196 735 196 735 265 735 c 1,7,-1
 265 679 l 1,8,9
 217 679 217 679 185 660 c 0,10,11
 158 645 158 645 142 618 c 0,12,13
 126 590 126 590 126 552 c 2,14,-1
 126 274 l 1,15,16
 308 406 308 406 358 494 c 0,17,18
 370 515 370 515 371 530 c 1,19,-1
 436 530 l 1,20,21
 436 512 436 512 420 484 c 0,22,23
 381 417 381 417 283 329 c 1,24,25
 328 260 328 260 363 200 c 0,26,27
 444 59 444 59 444 0 c 1,28,-1
 382 0 l 1,29,30
 382 50 382 50 316 164 c 0,31,32
 283 221 283 221 237 289 c 1,33,34
 187 248 187 248 126 203 c 1,35,-1
 126 0 l 1,36,-1
 64 0 l 1,0,-1
EndSplineSet
EndChar

StartChar: uni019C
Encoding: 412 412 350
Width: 500
GlyphClass: 2
Flags: W
FFAnchorPoint: "Anchor-5" 436 0 basechar 0
FFAnchorPoint: "Anchor-4" 436 735 basechar 0
FFAnchorPoint: "Anchor-3" 250 367 basechar 0
FFAnchorPoint: "Anchor-2" 250 382 basechar 0
FFAnchorPoint: "Anchor-1" 250 0 basechar 0
FFAnchorPoint: "Anchor-0" 250 735 basechar 0
LayerCount: 2
Fore
SplineSet
152 -8 m 0,0,1
 131 -8 131 -8 115 1 c 0,2,3
 95 13 95 13 81 37 c 0,4,5
 56 81 56 81 56 154 c 2,6,-1
 56 735 l 1,7,-1
 118 735 l 1,8,-1
 118 154 l 2,9,10
 118 84 118 84 144 58 c 0,11,12
 155 48 155 48 169 48 c 256,13,14
 183 48 183 48 193 58 c 0,15,16
 219 84 219 84 219 154 c 2,17,-1
 219 735 l 1,18,-1
 281 735 l 1,19,-1
 281 154 l 2,20,21
 281 84 281 84 307 58 c 0,22,23
 317 48 317 48 331 48 c 256,24,25
 345 48 345 48 356 58 c 0,26,27
 382 84 382 84 382 154 c 2,28,-1
 382 735 l 1,29,-1
 444 735 l 1,30,-1
 444 0 l 1,31,-1
 382 0 l 1,32,-1
 382 35 l 1,33,34
 369 12 369 12 350 1 c 0,35,36
 334 -8 334 -8 315 -8 c 0,37,38
 294 -8 294 -8 278 1 c 0,39,40
 258 13 258 13 244 37 c 0,41,42
 237 49 237 49 232 64 c 1,43,44
 227 48 227 48 219 35 c 0,45,46
 206 12 206 12 187 1 c 0,47,48
 171 -8 171 -8 152 -8 c 0,0,1
EndSplineSet
EndChar

StartChar: uni019D
Encoding: 413 413 351
Width: 500
GlyphClass: 2
Flags: W
FFAnchorPoint: "Anchor-5" 436 0 basechar 0
FFAnchorPoint: "Anchor-4" 436 735 basechar 0
FFAnchorPoint: "Anchor-3" 250 367 basechar 0
FFAnchorPoint: "Anchor-2" 250 382 basechar 0
FFAnchorPoint: "Anchor-1" 250 0 basechar 0
FFAnchorPoint: "Anchor-0" 250 735 basechar 0
LayerCount: 2
Fore
SplineSet
-75 -183 m 1,0,-1
 -75 -127 l 1,1,2
 -28 -127 -28 -127 6 -108 c 0,3,4
 33 -92 33 -92 48 -66 c 0,5,6
 64 -38 64 -38 64 0 c 2,7,-1
 64 735 l 1,8,-1
 154 735 l 1,9,-1
 374 98 l 1,10,-1
 374 735 l 1,11,-1
 436 735 l 1,12,-1
 436 0 l 1,13,-1
 346 0 l 1,14,-1
 126 637 l 1,15,-1
 126 0 l 2,16,17
 126 -54 126 -54 103 -95 c 0,18,19
 81 -133 81 -133 42 -155 c 0,20,21
 -6 -183 -6 -183 -75 -183 c 1,0,-1
EndSplineSet
EndChar

StartChar: uni019E
Encoding: 414 414 352
Width: 500
GlyphClass: 2
Flags: W
FFAnchorPoint: "Anchor-7" 92 0 basechar 0
FFAnchorPoint: "Anchor-5" 436 -205 basechar 0
FFAnchorPoint: "Anchor-4" 436 530 basechar 0
FFAnchorPoint: "Anchor-3" 250 162 basechar 0
FFAnchorPoint: "Anchor-2" 250 177 basechar 0
FFAnchorPoint: "Anchor-1" 250 -205 basechar 0
FFAnchorPoint: "Anchor-0" 250 530 basechar 0
LayerCount: 2
Fore
SplineSet
374 -205 m 1,0,-1
 374 310 l 2,1,2
 374 379 374 379 348 423 c 0,3,4
 331 453 331 453 305 468 c 0,5,6
 281 482 281 482 250 482 c 256,7,8
 219 482 219 482 195 468 c 0,9,10
 169 453 169 453 152 423 c 0,11,12
 126 379 126 379 126 310 c 2,13,-1
 126 0 l 1,14,-1
 64 0 l 1,15,-1
 64 530 l 1,16,-1
 126 530 l 1,17,-1
 126 449 l 1,18,19
 128 453 128 453 131 458 c 0,20,21
 155 498 155 498 190 519 c 0,22,23
 223 538 223 538 267 538 c 0,24,25
 310 538 310 538 343 519 c 0,26,27
 379 498 379 498 402 458 c 0,28,29
 436 400 436 400 436 310 c 2,30,-1
 436 -205 l 1,31,-1
 374 -205 l 1,0,-1
EndSplineSet
EndChar

StartChar: uni019F
Encoding: 415 415 353
Width: 500
GlyphClass: 2
Flags: W
FFAnchorPoint: "Anchor-5" 436 0 basechar 0
FFAnchorPoint: "Anchor-4" 436 735 basechar 0
FFAnchorPoint: "Anchor-3" 250 367 basechar 0
FFAnchorPoint: "Anchor-2" 250 382 basechar 0
FFAnchorPoint: "Anchor-1" 250 0 basechar 0
FFAnchorPoint: "Anchor-0" 250 735 basechar 0
LayerCount: 2
Fore
SplineSet
250 -8 m 256,0,1
 190 -8 190 -8 147 17 c 0,2,3
 107 40 107 40 83 80 c 1,4,5
 56 128 56 128 56 195 c 2,6,-1
 56 540 l 2,7,8
 56 607 56 607 83 655 c 1,9,10
 107 695 107 695 147 718 c 0,11,12
 190 743 190 743 250 743 c 256,13,14
 310 743 310 743 353 718 c 0,15,16
 393 695 393 695 417 655 c 1,17,18
 444 607 444 607 444 540 c 2,19,-1
 444 195 l 2,20,21
 444 128 444 128 417 80 c 1,22,23
 393 40 393 40 353 17 c 0,24,25
 310 -8 310 -8 250 -8 c 256,0,1
250 48 m 256,26,27
 289 48 289 48 318 64 c 1,28,29
 345 81 345 81 361 109 c 0,30,31
 382 144 382 144 382 195 c 2,32,-1
 382 340 l 1,33,-1
 118 340 l 1,34,-1
 118 195 l 2,35,36
 118 144 118 144 139 109 c 0,37,38
 155 81 155 81 182 64 c 1,39,40
 211 48 211 48 250 48 c 256,26,27
118 396 m 1,41,-1
 382 396 l 1,42,-1
 382 540 l 2,43,44
 382 591 382 591 361 626 c 0,45,46
 345 654 345 654 318 671 c 1,47,48
 289 687 289 687 250 687 c 256,49,50
 211 687 211 687 182 671 c 1,51,52
 155 654 155 654 139 626 c 0,53,54
 118 591 118 591 118 540 c 2,55,-1
 118 396 l 1,41,-1
EndSplineSet
EndChar

StartChar: uni01A2
Encoding: 418 418 356
Width: 500
GlyphClass: 2
Flags: W
FFAnchorPoint: "Anchor-5" 436 0 basechar 0
FFAnchorPoint: "Anchor-4" 436 735 basechar 0
FFAnchorPoint: "Anchor-3" 250 367 basechar 0
FFAnchorPoint: "Anchor-2" 250 382 basechar 0
FFAnchorPoint: "Anchor-1" 250 0 basechar 0
FFAnchorPoint: "Anchor-0" 250 735 basechar 0
LayerCount: 2
Fore
SplineSet
390 -205 m 1,0,-1
 390 644 l 1,1,2
 379 636 379 636 367 629 c 0,3,4
 334 610 334 610 289 605 c 1,5,-1
 289 603 l 1,6,-1
 289 132 l 2,7,8
 289 82 289 82 269 48 c 0,9,10
 254 22 254 22 228.5 7 c 128,-1,11
 203 -8 203 -8 169 -8 c 0,12,13
 134 -8 134 -8 108.5 7 c 128,-1,14
 83 22 83 22 68 48 c 0,15,16
 48 82 48 82 48 132 c 2,17,-1
 48 603 l 2,18,19
 48 653 48 653 68 687 c 0,20,21
 83 713 83 713 108.5 728 c 128,-1,22
 134 743 134 743 169 743 c 0,23,24
 203 743 203 743 228.5 728 c 128,-1,25
 254 713 254 713 269 687 c 0,26,27
 276 675 276 675 281 661 c 1,28,29
 313 665 313 665 335 678 c 0,30,31
 371 698 371 698 390 735 c 1,32,-1
 452 735 l 1,33,-1
 452 -205 l 1,34,-1
 390 -205 l 1,0,-1
169 48 m 0,35,36
 190 48 190 48 204 62 c 0,37,38
 227 85 227 85 227 132 c 2,39,-1
 227 603 l 2,40,41
 227 650 227 650 204 673 c 0,42,43
 190 687 190 687 169 687 c 0,44,45
 147 687 147 687 133 673 c 0,46,47
 110 650 110 650 110 603 c 2,48,-1
 110 132 l 2,49,50
 110 85 110 85 133 62 c 0,51,52
 147 48 147 48 169 48 c 0,35,36
EndSplineSet
EndChar

StartChar: uni01A3
Encoding: 419 419 357
Width: 500
GlyphClass: 2
Flags: W
FFAnchorPoint: "Anchor-5" 436 -205 basechar 0
FFAnchorPoint: "Anchor-4" 436 530 basechar 0
FFAnchorPoint: "Anchor-3" 250 162 basechar 0
FFAnchorPoint: "Anchor-2" 250 177 basechar 0
FFAnchorPoint: "Anchor-1" 250 -205 basechar 0
FFAnchorPoint: "Anchor-0" 250 530 basechar 0
LayerCount: 2
Fore
SplineSet
390 -205 m 1,0,-1
 390 439 l 1,1,2
 379 431 379 431 367 424 c 0,3,4
 334 405 334 405 289 400 c 1,5,-1
 289 398 l 1,6,-1
 289 132 l 2,7,8
 289 82 289 82 269 48 c 0,9,10
 254 22 254 22 228.5 7 c 128,-1,11
 203 -8 203 -8 169 -8 c 0,12,13
 134 -8 134 -8 108.5 7 c 128,-1,14
 83 22 83 22 68 48 c 0,15,16
 48 82 48 82 48 132 c 2,17,-1
 48 398 l 2,18,19
 48 448 48 448 68 482 c 0,20,21
 83 508 83 508 108.5 523 c 128,-1,22
 134 538 134 538 169 538 c 0,23,24
 203 538 203 538 228.5 523 c 128,-1,25
 254 508 254 508 269 482 c 0,26,27
 276 470 276 470 281 456 c 1,28,29
 313 460 313 460 335 473 c 0,30,31
 371 493 371 493 390 530 c 1,32,-1
 452 530 l 1,33,-1
 452 -205 l 1,34,-1
 390 -205 l 1,0,-1
169 48 m 0,35,36
 190 48 190 48 204 62 c 0,37,38
 227 85 227 85 227 132 c 2,39,-1
 227 398 l 2,40,41
 227 445 227 445 204 468 c 0,42,43
 190 482 190 482 169 482 c 0,44,45
 147 482 147 482 133 468 c 0,46,47
 110 445 110 445 110 398 c 2,48,-1
 110 132 l 2,49,50
 110 85 110 85 133 62 c 0,51,52
 147 48 147 48 169 48 c 0,35,36
EndSplineSet
EndChar

StartChar: uni01A4
Encoding: 420 420 358
Width: 500
GlyphClass: 2
Flags: W
FFAnchorPoint: "Anchor-5" 436 0 basechar 0
FFAnchorPoint: "Anchor-4" 436 735 basechar 0
FFAnchorPoint: "Anchor-3" 250 367 basechar 0
FFAnchorPoint: "Anchor-2" 250 382 basechar 0
FFAnchorPoint: "Anchor-1" 250 0 basechar 0
FFAnchorPoint: "Anchor-0" 250 735 basechar 0
LayerCount: 2
Fore
SplineSet
80 0 m 1,0,-1
 80 679 l 1,1,2
 77 679 77 679 75 677 c 0,3,4
 58 660 58 660 58 565 c 1,5,-1
 -4 565 l 1,6,7
 -4 650 -4 650 23 697 c 0,8,9
 35 718 35 718 52 728 c 0,10,11
 64 735 64 735 80 735 c 2,12,-1
 248 735 l 2,13,14
 308 735 308 735 352 710 c 0,15,16
 392 687 392 687 416 645 c 0,17,18
 444 596 444 596 444 526.5 c 128,-1,19
 444 457 444 457 416 408 c 0,20,21
 392 366 392 366 352 344 c 1,22,23
 308 318 308 318 248 318 c 2,24,-1
 142 318 l 1,25,-1
 142 0 l 1,26,-1
 80 0 l 1,0,-1
248 374 m 2,27,28
 287 374 287 374 316 391 c 0,29,30
 343 406 343 406 361 436 c 0,31,32
 382 473 382 473 382 526.5 c 128,-1,33
 382 580 382 580 361 617 c 0,34,35
 343 647 343 647 316 662 c 0,36,37
 287 679 287 679 248 679 c 2,38,-1
 142 679 l 1,39,-1
 142 374 l 1,40,-1
 248 374 l 2,27,28
EndSplineSet
EndChar

StartChar: uni01A5
Encoding: 421 421 359
Width: 500
GlyphClass: 2
Flags: W
FFAnchorPoint: "Anchor-5" 436 -205 basechar 0
FFAnchorPoint: "Anchor-4" 436 735 basechar 0
FFAnchorPoint: "Anchor-3" 250 265 basechar 0
FFAnchorPoint: "Anchor-2" 250 283 basechar 0
FFAnchorPoint: "Anchor-1" 250 -205 basechar 0
FFAnchorPoint: "Anchor-0" 250 735 basechar 0
LayerCount: 2
Fore
SplineSet
64 -205 m 1,0,-1
 64 515 l 2,1,2
 64 598 64 598 97 654 c 0,3,4
 121 696 121 696 161 719.5 c 128,-1,5
 201 743 201 743 255 743 c 256,6,7
 309 743 309 743 349 720 c 128,-1,8
 389 697 389 697 414 654 c 0,9,10
 433 621 433 621 441 580 c 1,11,-1
 382 562 l 1,12,13
 376 597 376 597 360 625 c 0,14,15
 342 656 342 656 315 672 c 0,16,17
 289 687 289 687 255 687 c 0,18,19
 222 687 222 687 196 672 c 0,20,21
 169 656 169 656 152 626 c 0,22,23
 126 583 126 583 126 515 c 2,24,-1
 126 449 l 1,25,26
 128 453 128 453 131 458 c 0,27,28
 155 498 155 498 190 519 c 0,29,30
 223 538 223 538 267 538 c 0,31,32
 314 538 314 538 349 518 c 0,33,34
 387 496 387 496 411 455 c 0,35,36
 444 397 444 397 444 310 c 2,37,-1
 444 220 l 2,38,39
 444 133 444 133 411 75 c 0,40,41
 387 34 387 34 349 12 c 0,42,43
 314 -8 314 -8 267 -8 c 0,44,45
 223 -8 223 -8 190 11 c 0,46,47
 155 32 155 32 131 72 c 0,48,49
 128 77 128 77 126 81 c 1,50,-1
 126 -205 l 1,51,-1
 64 -205 l 1,0,-1
251 48 m 0,52,53
 285 48 285 48 311 63 c 0,54,55
 338 79 338 79 357 110 c 1,56,57
 382 154 382 154 382 220 c 2,58,-1
 382 310 l 2,59,60
 382 376 382 376 357 420 c 1,61,62
 338 451 338 451 311 467 c 0,63,64
 285 482 285 482 251 482 c 0,65,66
 219 482 219 482 195 468 c 0,67,68
 169 453 169 453 152 423 c 0,69,70
 126 379 126 379 126 310 c 2,71,-1
 126 220 l 2,72,73
 126 151 126 151 152 107 c 0,74,75
 169 77 169 77 195 62 c 0,76,77
 219 48 219 48 251 48 c 0,52,53
EndSplineSet
EndChar

StartChar: uni01A6
Encoding: 422 422 360
Width: 500
GlyphClass: 2
Flags: W
FFAnchorPoint: "Anchor-5" 436 -205 basechar 0
FFAnchorPoint: "Anchor-4" 436 735 basechar 0
FFAnchorPoint: "Anchor-3" 250 265 basechar 0
FFAnchorPoint: "Anchor-2" 250 283 basechar 0
FFAnchorPoint: "Anchor-1" 250 -205 basechar 0
FFAnchorPoint: "Anchor-0" 250 735 basechar 0
LayerCount: 2
Fore
SplineSet
447 -205 m 1,0,-1
 385 -205 l 1,1,2
 385 -38 385 -38 243 209 c 0,3,4
 241 212 241 212 237 218.5 c 128,-1,5
 233 225 233 225 231 228 c 1,6,-1
 126 228 l 1,7,-1
 126 0 l 1,8,-1
 64 0 l 1,9,-1
 64 735 l 1,10,-1
 126 735 l 1,11,-1
 126 625 l 1,12,-1
 257 625 l 2,13,14
 314 625 314 625 357 601 c 1,15,16
 395 578 395 578 417 539 c 0,17,18
 444 493 444 493 444 426.5 c 128,-1,19
 444 360 444 360 417 313 c 0,20,21
 395 274 395 274 357 252 c 0,22,23
 331 237 331 237 299 232 c 1,24,25
 447 -28 447 -28 447 -205 c 1,0,-1
126 284 m 1,26,-1
 257 284 l 2,27,28
 293 284 293 284 321 300 c 0,29,30
 346 314 346 314 362 342 c 0,31,32
 382 376 382 376 382 426.5 c 128,-1,33
 382 477 382 477 362 511 c 0,34,35
 346 538 346 538 321 553 c 0,36,37
 293 569 293 569 257 569 c 2,38,-1
 126 569 l 1,39,-1
 126 284 l 1,26,-1
EndSplineSet
EndChar

StartChar: uni01A7
Encoding: 423 423 361
Width: 500
GlyphClass: 2
Flags: W
FFAnchorPoint: "Anchor-5" 436 0 basechar 0
FFAnchorPoint: "Anchor-4" 436 735 basechar 0
FFAnchorPoint: "Anchor-3" 250 367 basechar 0
FFAnchorPoint: "Anchor-2" 250 382 basechar 0
FFAnchorPoint: "Anchor-1" 250 0 basechar 0
FFAnchorPoint: "Anchor-0" 250 735 basechar 0
LayerCount: 2
Fore
SplineSet
253 -8 m 0,0,1
 192 -8 192 -8 149 17 c 0,2,3
 111 39 111 39 89 77 c 0,4,5
 64 120 64 120 64 172.5 c 128,-1,6
 64 225 64 225 92 274 c 0,7,8
 126 332 126 332 216 385 c 0,9,10
 230 393 230 393 238 397 c 128,-1,11
 246 401 246 401 258 408 c 0,12,13
 329 450 329 450 354 494 c 1,14,15
 374 527 374 527 374 563.5 c 128,-1,16
 374 600 374 600 357 630 c 0,17,18
 342 656 342 656 316 670 c 1,19,20
 287 687 287 687 247 687 c 0,21,22
 203 687 203 687 173 669 c 0,23,24
 148 655 148 655 134 631 c 0,25,26
 121 608 121 608 120 580 c 1,27,-1
 120 578 l 1,28,29
 121 574 121 574 121 573 c 2,30,-1
 59 580 l 1,31,32
 59 583 59 583 59 585 c 0,33,34
 59 624 59 624 79 660 c 1,35,36
 101 696 101 696 137 717 c 0,37,38
 182 743 182 743 247 743 c 0,39,40
 308 743 308 743 351 718 c 0,41,42
 389 696 389 696 411 658 c 0,43,44
 436 615 436 615 436 562.5 c 128,-1,45
 436 510 436 510 408 461 c 0,46,47
 374 403 374 403 284 350 c 0,48,49
 270 342 270 342 262 338 c 128,-1,50
 254 334 254 334 242 327 c 0,51,52
 171 285 171 285 146 241 c 1,53,54
 126 208 126 208 126 171.5 c 128,-1,55
 126 135 126 135 143 105 c 0,56,57
 158 79 158 79 184 65 c 1,58,59
 213 48 213 48 253 48 c 0,60,61
 297 48 297 48 327 66 c 0,62,63
 352 80 352 80 366 104 c 0,64,65
 379 127 379 127 380 155 c 1,66,-1
 380 157 l 1,67,68
 379 161 379 161 379 162 c 2,69,-1
 441 155 l 1,70,71
 441 152 441 152 441 150 c 0,72,73
 441 111 441 111 421 75 c 1,74,75
 399 39 399 39 363 18 c 0,76,77
 318 -8 318 -8 253 -8 c 0,0,1
EndSplineSet
EndChar

